<?xml version="1.0" standalone="no"?>
<!DOCTYPE svg PUBLIC "-//W3C//DTD SVG 20010904//EN"
 "http://www.w3.org/TR/2001/REC-SVG-20010904/DTD/svg10.dtd">
<svg version="1.0" xmlns="http://www.w3.org/2000/svg"
 width="512.000000pt" height="512.000000pt" viewBox="0 0 512.000000 512.000000"
 preserveAspectRatio="xMidYMid meet">

<g transform="translate(0.000000,512.000000) scale(0.100000,-0.100000)"
fill="#000000" stroke="none">
<path d="M613 4788 c-6 -7 -16 -69 -22 -138 -58 -623 -242 -1132 -500 -1385
-28 -27 -51 -57 -51 -66 0 -10 12 -27 28 -39 68 -52 188 -182 241 -260 263
-384 340 -896 235 -1553 -30 -183 -27 -193 41 -184 23 4 107 24 188 47 228 64
324 80 502 86 173 6 290 -7 418 -46 57 -18 71 -27 96 -63 32 -47 144 -157 177
-175 l22 -12 -23 -57 c-13 -32 -29 -85 -35 -119 l-12 -61 -83 -11 c-163 -22
-235 -92 -235 -230 0 -80 45 -144 124 -177 92 -39 330 -27 398 18 53 36 68 74
78 194 9 111 22 170 58 258 23 57 8 54 185 35 112 -13 228 -8 363 16 31 6 31
6 62 -78 35 -97 52 -180 52 -252 0 -149 67 -204 260 -214 225 -10 333 56 333
203 0 143 -76 213 -251 231 l-70 6 -6 57 c-4 31 -18 83 -31 116 l-25 60 22 18
c84 67 114 95 148 139 22 27 44 57 49 65 4 9 56 28 122 45 92 24 143 31 260
35 186 7 296 -6 519 -64 273 -70 292 -75 316 -69 12 3 24 12 27 19 3 7 -3 59
-14 115 -52 284 -65 634 -34 879 55 422 220 749 498 980 20 17 37 36 37 42 0
6 -32 44 -71 83 -195 200 -335 516 -424 953 -28 138 -65 413 -65 485 0 87 -20
92 -189 48 -423 -110 -709 -467 -825 -1029 -47 -224 -58 -346 -66 -719 -8
-381 -11 -403 -67 -514 -32 -63 -113 -143 -181 -179 -29 -16 -54 -27 -55 -25
-1 2 -15 18 -31 35 l-29 32 64 63 c240 235 283 567 109 842 l-42 67 26 59 c82
182 103 426 60 700 -13 85 -23 129 -55 252 -13 52 -37 56 -106 17 -131 -75
-284 -259 -352 -424 -33 -80 -81 -250 -81 -289 0 -21 -4 -21 -138 -21 l-138 0
-30 125 c-33 136 -87 261 -155 361 -104 155 -309 312 -346 267 -6 -7 -20 -49
-32 -93 -58 -229 -76 -480 -47 -653 17 -103 49 -211 80 -270 16 -31 16 -33 -8
-65 -40 -52 -95 -177 -111 -252 -46 -217 21 -438 185 -606 l75 -78 -28 -35
-29 -36 -59 31 c-112 60 -199 181 -228 317 -6 30 -11 150 -11 275 0 581 -70
968 -231 1290 -59 115 -110 188 -203 285 -124 129 -268 215 -446 265 -117 34
-174 41 -187 25z m1383 -835 c49 -82 88 -178 115 -280 30 -120 28 -135 -29
-172 -26 -16 -61 -44 -77 -61 -16 -16 -32 -30 -36 -30 -9 0 -45 100 -65 185
-20 78 -26 350 -10 440 l8 50 27 -32 c14 -17 44 -62 67 -100z m1236 -108 c1
-148 -10 -229 -44 -335 -34 -106 -34 -106 -73 -72 -18 17 -54 44 -79 61 -42
29 -46 35 -46 73 0 109 96 352 181 458 l44 55 8 -50 c4 -27 8 -113 9 -190z
m-524 -1071 c60 -25 82 -52 82 -99 0 -110 -155 -214 -278 -187 -96 22 -176 96
-189 175 -10 65 34 104 141 127 56 12 199 3 244 -16z"/>
<path d="M2453 2673 c-7 -2 -13 -18 -13 -34 0 -22 6 -30 25 -35 29 -7 55 10
55 35 0 33 -32 49 -67 34z"/>
<path d="M2613 2673 c-7 -2 -13 -18 -13 -34 0 -22 6 -30 25 -35 29 -7 55 10
55 35 0 33 -32 49 -67 34z"/>
</g>
</svg>
