<?xml version="1.0" standalone="no"?>
<!DOCTYPE svg PUBLIC "-//W3C//DTD SVG 20010904//EN"
 "http://www.w3.org/TR/2001/REC-SVG-20010904/DTD/svg10.dtd">
<svg version="1.0" xmlns="http://www.w3.org/2000/svg"
 width="512.000000pt" height="512.000000pt" viewBox="0 0 512.000000 512.000000"
 preserveAspectRatio="xMidYMid meet">

<g transform="translate(0.000000,512.000000) scale(0.100000,-0.100000)"
fill="#000000" stroke="none">
<path d="M304 4450 c-131 -18 -199 -50 -250 -117 -51 -66 -59 -129 -39 -281
43 -332 84 -526 162 -767 108 -334 265 -458 612 -482 l115 -8 -55 -41 c-190
-143 -340 -358 -404 -579 -115 -396 5 -783 350 -1130 136 -137 245 -213 411
-287 216 -97 598 -126 711 -55 153 97 332 423 519 942 l43 120 1 -125 c0 -100
3 -122 13 -109 34 44 89 47 127 7 l20 -22 1 125 0 124 43 -120 c153 -425 305
-729 434 -867 26 -28 64 -61 85 -75 113 -71 485 -43 707 54 165 72 277 150
415 288 290 291 424 618 387 943 -35 301 -195 580 -441 766 l-55 41 115 8
c347 24 504 148 612 482 78 241 119 435 162 767 20 152 12 215 -39 281 -66 87
-179 122 -386 121 -264 -2 -520 -77 -785 -229 -308 -177 -624 -470 -896 -831
-81 -106 -197 -277 -245 -359 l-29 -50 -10 47 -10 47 293 593 c161 326 296
604 298 618 8 38 -29 80 -70 80 -17 0 -40 -6 -51 -14 -11 -8 -146 -267 -300
-575 l-280 -561 -35 0 -35 0 -280 561 c-154 308 -289 567 -300 575 -11 8 -34
14 -51 14 -41 0 -78 -42 -70 -80 2 -14 137 -292 298 -618 l293 -593 -10 -47
-10 -47 -29 50 c-48 82 -164 253 -245 359 -441 585 -959 955 -1454 1041 -112
19 -284 26 -363 15z m611 -480 c31 0 75 -52 91 -108 8 -32 25 -83 36 -115 11
-32 19 -60 16 -62 -3 -3 -25 2 -49 10 -24 9 -107 34 -184 55 -109 31 -145 45
-162 65 -50 57 -17 114 79 139 67 17 125 25 146 19 8 -1 20 -3 27 -3z m3463
-17 c96 -24 129 -81 80 -138 -18 -20 -54 -34 -163 -65 -77 -21 -160 -46 -184
-55 -24 -8 -46 -13 -49 -10 -3 2 2 24 11 47 9 24 25 75 36 114 38 129 94 151
269 107z m-2979 -44 c203 -153 467 -438 657 -709 84 -119 84 -119 29 -77 -199
151 -444 300 -659 403 l-115 54 -39 68 c-48 82 -92 191 -92 227 0 17 12 39 34
61 53 53 86 48 185 -27z m2507 27 c22 -22 34 -44 34 -61 0 -36 -44 -145 -92
-227 l-39 -68 -115 -54 c-215 -103 -460 -252 -659 -403 -55 -42 -55 -42 29 77
191 272 453 555 657 709 99 75 132 80 185 27z m-3221 -322 c198 -50 428 -131
597 -208 l73 -33 -143 -6 c-281 -14 -451 -40 -637 -97 -125 -38 -163 -39 -203
-2 -91 85 -50 275 73 339 75 39 112 41 240 7z m3981 -2 c132 -68 177 -256 82
-344 -40 -37 -78 -36 -203 2 -186 57 -356 83 -637 97 l-143 6 73 33 c165 76
372 148 582 205 119 33 184 33 246 1z m-3002 -431 c46 -8 77 -22 145 -67 115
-76 279 -206 371 -293 l75 -71 -65 6 c-155 14 -277 45 -449 113 -201 81 -358
104 -687 99 l-215 -3 -30 33 c-32 36 -38 77 -15 121 23 43 36 47 266 75 58 7
541 -4 604 -13z m2521 0 c92 -15 123 -28 140 -62 23 -44 19 -85 -14 -121 l-30
-33 -215 3 c-329 5 -486 -18 -687 -99 -172 -68 -294 -99 -449 -113 l-65 -6 70
66 c151 144 430 348 491 360 127 24 615 27 759 5z m-2686 -406 c35 -9 125 -38
200 -67 220 -82 377 -118 529 -118 80 0 82 -1 82 -24 0 -23 -3 -24 -92 -30
-186 -14 -334 -27 -393 -36 -96 -15 -124 -13 -157 16 -98 82 -320 144 -518
144 -47 0 -95 3 -108 6 l-23 7 21 14 c12 9 63 37 113 65 l92 49 95 -6 c52 -3
124 -12 159 -20z m2449 -14 c42 -22 94 -51 116 -64 37 -23 38 -24 15 -30 -13
-4 -62 -7 -109 -7 -198 0 -420 -62 -518 -144 -33 -29 -61 -31 -157 -16 -59 9
-207 22 -392 36 -90 6 -93 7 -93 30 0 23 2 24 83 24 151 0 308 36 528 118 180
68 261 87 392 90 49 2 69 -4 135 -37z m-2733 -270 c92 -9 235 -40 235 -50 0
-3 -64 -21 -143 -40 -78 -19 -218 -61 -312 -94 -191 -66 -214 -72 -250 -63
-31 8 -58 57 -49 91 3 14 26 46 50 71 45 46 91 72 154 84 50 11 210 11 315 1z
m3068 -19 c54 -24 132 -99 141 -137 9 -34 -18 -83 -49 -91 -36 -9 -59 -3 -250
63 -93 33 -234 75 -312 94 -79 19 -143 37 -143 40 0 9 139 41 220 49 41 5 136
7 210 6 111 -3 143 -7 183 -24z m-2078 -121 c-11 -10 -76 -67 -145 -126 -358
-307 -663 -632 -864 -922 -66 -95 -102 -128 -154 -143 -51 -14 -71 -12 -117 9
-47 22 -89 64 -104 104 -14 36 -14 108 0 143 5 16 63 82 127 148 65 67 144
154 176 195 112 141 210 315 247 440 8 26 21 46 33 52 78 31 472 91 741 112
22 2 49 4 60 5 19 2 19 2 0 -17z m920 -2 c185 -16 530 -74 591 -98 12 -6 25
-26 33 -52 37 -125 134 -298 244 -436 33 -43 113 -131 178 -198 65 -67 123
-133 128 -149 14 -35 14 -107 0 -143 -15 -40 -57 -82 -104 -104 -46 -21 -66
-23 -117 -9 -52 15 -88 48 -154 143 -198 285 -489 597 -834 895 -80 69 -156
136 -170 149 l-25 24 55 -6 c30 -2 109 -10 175 -16z m-1951 -206 c-64 -147
-272 -415 -356 -459 -43 -22 -129 -18 -168 9 -51 34 -73 70 -78 130 -5 63 20
123 65 155 28 19 143 73 243 113 59 23 300 107 312 108 4 1 -4 -25 -18 -56z
m2881 13 c195 -66 373 -140 428 -178 45 -32 70 -92 65 -155 -5 -60 -27 -96
-78 -130 -39 -27 -125 -31 -168 -9 -58 31 -193 187 -289 336 -36 56 -98 180
-90 180 2 0 61 -20 132 -44z m-2183 -612 c-281 -459 -388 -625 -412 -642 -93
-63 -220 5 -220 119 0 38 9 59 58 135 125 195 288 388 534 631 149 148 409
384 416 378 1 -1 -168 -281 -376 -621z m1387 271 c263 -257 433 -457 564 -659
48 -76 57 -97 57 -135 0 -114 -127 -182 -220 -118 -24 16 -131 182 -411 640
-209 340 -379 621 -379 624 0 12 230 -197 389 -352z m-922 54 c-209 -629 -420
-1039 -536 -1039 -61 0 -111 72 -90 128 13 33 692 1142 697 1138 2 -2 -30
-105 -71 -227z m731 -345 c182 -298 336 -552 341 -566 21 -56 -29 -128 -90
-128 -114 0 -320 396 -528 1012 -37 112 -71 217 -75 233 -7 28 -6 29 7 10 8
-11 163 -264 345 -561z"/>
</g>
</svg>
