<?xml version="1.0" standalone="no"?>
<!DOCTYPE svg PUBLIC "-//W3C//DTD SVG 20010904//EN"
 "http://www.w3.org/TR/2001/REC-SVG-20010904/DTD/svg10.dtd">
<svg version="1.0" xmlns="http://www.w3.org/2000/svg"
 width="512.000000pt" height="512.000000pt" viewBox="0 0 512.000000 512.000000"
 preserveAspectRatio="xMidYMid meet">

<g transform="translate(0.000000,512.000000) scale(0.100000,-0.100000)"
fill="#000000" stroke="none">
<path d="M747 4846 c-127 -47 -314 -251 -413 -451 -52 -105 -53 -128 -4 -177
l29 -29 -18 -72 c-10 -40 -22 -96 -26 -124 -5 -37 -11 -53 -21 -53 -48 0 -94
-52 -94 -106 0 -31 59 -94 88 -94 17 0 21 -9 27 -52 4 -29 16 -86 26 -126 l20
-73 -30 -25 c-44 -37 -48 -72 -15 -144 l27 -61 -24 -17 c-91 -63 -198 -194
-248 -304 -52 -114 -65 -180 -65 -328 0 -126 2 -141 33 -230 73 -215 217 -378
416 -470 83 -39 189 -70 241 -70 26 0 40 -15 137 -154 59 -84 107 -157 107
-160 0 -4 -18 -28 -39 -54 -45 -53 -94 -151 -112 -223 l-13 -49 -271 0 c-323
0 -351 -5 -425 -79 -120 -120 -101 -314 39 -407 l38 -25 7 -93 c3 -51 13 -114
22 -139 21 -63 84 -130 152 -164 l57 -28 2165 0 2165 0 57 28 c68 34 131 101
152 164 9 25 19 88 22 139 l7 93 38 25 c140 93 159 287 39 407 -74 74 -102 79
-425 79 l-271 0 -13 51 c-18 69 -72 175 -115 226 -20 23 -36 44 -36 48 0 4 48
77 108 161 96 139 110 154 136 154 49 0 157 30 234 66 219 100 371 283 443
534 20 69 17 290 -5 369 -47 171 -164 343 -295 433 l-24 17 27 61 c81 180 110
316 110 520 1 220 -36 377 -132 564 -86 168 -252 359 -364 422 -45 25 -64 29
-128 29 -64 0 -82 -4 -122 -28 -115 -67 -155 -196 -107 -340 12 -35 19 -75 16
-92 -3 -16 -35 -110 -71 -207 -36 -97 -66 -184 -66 -193 0 -21 -15 -16 -147
45 -99 47 -102 49 -127 102 -50 107 -135 167 -234 168 -91 0 -170 -49 -214
-134 -26 -50 -37 -177 -27 -299 39 -468 359 -851 818 -980 l80 -22 20 -59 c11
-33 19 -60 18 -60 -33 -9 -116 -64 -161 -109 -32 -32 -61 -57 -65 -55 -3 2
-55 36 -116 77 -117 78 -321 181 -447 226 l-76 27 -4 142 c-4 156 -16 199 -77
269 -82 92 -237 121 -353 64 -108 -53 -159 -139 -166 -279 l-4 -88 -98 0 -98
0 -4 88 c-7 142 -63 233 -177 286 -71 32 -179 29 -253 -7 -64 -32 -111 -80
-142 -146 -17 -38 -21 -70 -24 -187 l-4 -142 -76 -27 c-126 -45 -330 -148
-447 -226 -60 -41 -113 -75 -116 -77 -4 -2 -33 23 -65 55 -45 45 -128 100
-161 109 -1 0 7 27 18 60 l20 59 80 22 c304 86 556 287 696 558 88 171 124
319 124 510 0 67 -3 134 -7 150 -28 117 -123 195 -236 195 -99 -1 -184 -61
-234 -168 -25 -53 -28 -55 -127 -102 -132 -61 -147 -66 -147 -45 0 9 -30 96
-66 193 -36 97 -68 191 -71 207 -3 17 4 57 16 92 48 142 8 273 -105 339 -55
32 -150 42 -207 20z m1449 -1631 c44 -18 64 -63 64 -143 l0 -59 -77 -11 c-43
-7 -88 -15 -100 -18 -22 -6 -23 -4 -23 70 0 96 18 142 62 161 41 18 33 18 74
0z m800 0 c46 -19 64 -63 64 -161 0 -74 -1 -76 -22 -70 -13 3 -58 11 -100 18
l-78 11 0 59 c0 78 20 125 62 143 41 18 33 18 74 0z m-266 -395 c394 -34 745
-166 1048 -395 123 -92 298 -273 380 -393 l63 -91 -103 -146 c-85 -121 -106
-145 -123 -141 -11 3 -51 14 -90 25 -85 24 -206 26 -294 6 -198 -47 -375 -215
-433 -413 l-22 -72 -596 0 -596 0 -22 72 c-58 198 -235 366 -433 413 -88 20
-209 18 -294 -6 -38 -11 -79 -22 -90 -25 -17 -4 -38 20 -123 141 l-103 146 63
91 c83 122 258 302 385 397 390 293 887 434 1383 391z m-1751 -289 c19 -15 44
-39 54 -54 l20 -26 -81 -85 c-82 -88 -187 -222 -225 -288 -11 -21 -27 -38 -35
-38 -60 0 -210 61 -280 113 l-32 24 56 23 c148 60 306 181 395 301 58 77 66
79 128 30z m3290 -30 c88 -120 247 -240 396 -302 l54 -22 -32 -24 c-69 -52
-219 -113 -279 -113 -8 0 -24 17 -35 38 -38 66 -142 200 -224 287 -88 92 -88
94 -32 147 26 25 80 58 94 58 3 0 29 -31 58 -69z m626 -1526 c30 -29 31 -45 4
-79 -20 -26 -22 -26 -149 -26 -122 0 -130 -1 -158 -25 -35 -30 -45 -69 -27
-111 20 -48 50 -64 122 -64 l63 0 0 -72 c0 -77 -13 -104 -57 -127 -16 -8 -598
-11 -2133 -11 -1863 0 -2114 2 -2140 15 -41 21 -50 43 -50 124 l0 71 1708 0
c1892 0 1738 -6 1767 64 18 42 8 81 -27 111 l-30 25 -1771 0 -1771 0 -23 22
c-30 28 -29 53 2 83 l24 25 2311 0 2311 0 24 -25z"/>
<path d="M1969 2341 c-39 -12 -70 -31 -119 -72 -25 -20 -63 -42 -84 -48 -57
-15 -86 -46 -86 -93 0 -50 13 -74 50 -93 61 -31 149 -8 229 60 66 56 90 57
150 7 63 -53 104 -73 166 -79 71 -7 136 16 205 72 33 27 65 45 80 45 15 0 47
-18 80 -45 69 -56 134 -79 205 -72 62 6 103 26 166 79 60 50 84 49 150 -7 80
-68 168 -91 229 -60 36 19 50 43 50 88 0 46 -32 84 -83 98 -23 6 -62 28 -87
49 -60 50 -102 70 -159 77 -71 8 -146 -17 -209 -72 -69 -58 -91 -58 -162 0
-54 45 -127 75 -180 75 -53 0 -126 -30 -180 -75 -71 -58 -93 -58 -161 0 -75
64 -171 89 -250 66z"/>
<path d="M4142 845 c-35 -30 -45 -69 -27 -111 16 -40 51 -64 90 -64 59 0 109
63 98 123 -7 38 -57 77 -98 77 -21 0 -44 -9 -63 -25z"/>
</g>
</svg>
