<?xml version="1.0" standalone="no"?>
<!DOCTYPE svg PUBLIC "-//W3C//DTD SVG 20010904//EN"
 "http://www.w3.org/TR/2001/REC-SVG-20010904/DTD/svg10.dtd">
<svg version="1.0" xmlns="http://www.w3.org/2000/svg"
 width="512.000000pt" height="512.000000pt" viewBox="0 0 512.000000 512.000000"
 preserveAspectRatio="xMidYMid meet">

<g transform="translate(0.000000,512.000000) scale(0.100000,-0.100000)"
fill="#000000" stroke="none">
<path d="M2085 5113 c-384 -35 -732 -236 -976 -563 -87 -118 -187 -298 -234
-423 -20 -52 -14 -50 -148 -67 -117 -15 -476 -106 -507 -129 -28 -20 -39 -76
-21 -110 20 -37 498 -361 533 -361 4 0 8 -46 8 -103 0 -371 146 -849 373
-1224 186 -307 405 -542 677 -727 100 -69 292 -163 408 -201 92 -30 88 -23 72
-135 -5 -36 -18 -159 -29 -274 -20 -206 -25 -225 -59 -226 -27 0 -130 -60
-180 -105 -60 -54 -73 -86 -47 -115 26 -29 52 -25 101 15 41 34 117 74 140 75
8 0 13 -44 17 -132 5 -148 16 -190 53 -207 69 -31 110 4 135 119 10 47 19 104
19 128 0 48 8 52 37 19 31 -34 49 -74 78 -178 15 -52 33 -100 40 -108 23 -23
73 -17 102 12 32 31 42 111 24 184 -25 95 -143 233 -236 273 -41 18 -38 -10
-39 367 l-1 233 55 -8 c113 -15 388 -5 500 17 58 11 112 21 121 21 14 0 18
-18 24 -117 4 -65 13 -188 20 -273 8 -85 11 -158 7 -161 -4 -3 -29 -14 -57
-24 -66 -24 -139 -96 -154 -153 -15 -52 0 -114 34 -148 28 -28 42 -30 72 -9
16 11 23 28 25 62 3 41 8 50 37 70 62 42 60 45 81 -141 11 -103 50 -238 77
-268 21 -23 55 -23 83 0 19 16 23 30 27 122 3 59 0 137 -6 179 -6 40 -9 76 -6
79 8 9 56 -40 75 -78 10 -19 29 -77 43 -129 30 -108 50 -135 103 -135 48 0 88
43 102 110 21 100 -23 215 -122 315 -58 59 -155 121 -209 134 -15 4 -30 11
-33 16 -3 5 -21 100 -40 211 -19 112 -41 238 -49 282 -8 43 -15 82 -15 86 0 5
39 22 86 39 276 100 534 271 780 516 259 258 471 566 658 957 100 208 186 426
186 472 0 65 -77 112 -146 89 -22 -7 -31 -4 -55 19 -45 45 -70 38 -158 -44
-160 -151 -302 -181 -465 -100 -54 27 -94 58 -167 131 -184 185 -307 410 -489
896 -71 189 -129 311 -196 413 -236 354 -699 558 -1169 515z m321 -234 c154
-27 319 -97 444 -188 58 -42 226 -209 218 -216 -2 -2 -60 2 -130 8 -136 13
-148 13 -148 -8 0 -15 1 -16 200 -48 l135 -22 63 -124 c34 -68 62 -127 62
-132 0 -5 -55 -9 -122 -9 -141 0 -165 -5 -173 -32 -13 -39 8 -45 174 -53 l159
-7 60 -171 c34 -95 64 -180 67 -189 7 -16 -1 -18 -81 -18 -94 0 -121 -8 -111
-33 4 -11 29 -17 94 -22 48 -3 97 -7 108 -8 14 -1 35 -34 80 -123 33 -66 68
-131 78 -144 9 -14 17 -28 17 -32 0 -11 -99 -9 -190 2 -49 7 -77 7 -84 0 -28
-28 75 -57 232 -67 98 -6 104 -7 123 -34 33 -46 167 -148 251 -190 109 -55
209 -79 324 -79 144 0 229 31 376 139 14 10 0 -25 -42 -108 l-61 -123 -42 6
c-23 3 -157 6 -296 7 -227 2 -256 0 -265 -14 -8 -12 -7 -21 4 -31 21 -21 209
-47 392 -55 l157 -6 -62 -107 -62 -108 -107 0 c-150 0 -348 -44 -348 -76 0
-13 25 -14 189 -8 136 5 190 4 195 -5 7 -10 -39 -81 -132 -204 l-44 -58 -196
3 c-168 3 -197 1 -199 -12 -6 -31 16 -39 161 -58 81 -11 150 -23 154 -26 6 -7
-26 -43 -177 -198 l-94 -96 -193 5 c-177 6 -194 5 -200 -11 -4 -10 -3 -21 2
-26 5 -5 69 -18 143 -29 73 -11 135 -22 137 -24 5 -5 -94 -80 -185 -140 -46
-31 -57 -34 -80 -25 -71 28 -502 -4 -502 -37 0 -17 110 -26 280 -23 l165 4
-60 -27 c-327 -150 -647 -172 -973 -67 -630 201 -1133 841 -1288 1637 -24 123
-27 159 -27 376 -1 274 10 361 74 555 151 463 506 798 955 900 93 21 307 26
401 9z m-1609 -1006 c-15 -54 -30 -133 -40 -209 l-12 -85 -132 111 c-73 62
-133 115 -133 120 0 4 37 15 83 24 45 9 114 25 152 35 89 24 87 24 82 4z"/>
<path d="M1799 4207 c-85 -24 -173 -106 -208 -193 -37 -93 10 -254 74 -254 39
0 59 39 45 90 -15 54 -5 93 32 136 39 44 77 64 123 64 95 0 169 -92 181 -225
11 -113 30 -145 88 -145 16 0 32 11 48 33 20 28 23 43 23 127 0 85 -4 102 -31
161 -41 88 -93 142 -168 179 -72 35 -144 44 -207 27z"/>
<path d="M3131 3031 c-50 -50 -10 -90 183 -185 211 -104 251 -152 184 -223
-46 -49 -122 -53 -255 -12 -36 11 -73 22 -82 24 -9 3 -37 12 -62 22 -43 16
-48 16 -72 1 -38 -26 -42 -62 -12 -115 31 -51 93 -95 205 -142 120 -51 163
-109 130 -171 -12 -23 -97 -50 -157 -50 -35 0 -47 5 -65 28 -79 97 -225 202
-281 202 -28 0 -77 -38 -77 -61 0 -10 20 -61 39 -99 4 -8 38 -39 74 -69 116
-93 148 -200 78 -263 -95 -86 -285 -48 -401 79 -83 91 -131 204 -145 343 -8
73 -17 90 -50 90 -42 0 -50 -24 -49 -144 2 -170 52 -305 158 -423 148 -165
382 -215 559 -121 101 54 157 143 157 250 l0 48 63 0 c157 0 276 83 296 207 9
62 -6 130 -42 180 l-27 37 43 13 c115 34 197 170 168 279 -23 85 -139 174
-325 250 -115 47 -203 57 -235 25z"/>
</g>
</svg>
