<?xml version="1.0" standalone="no"?>
<!DOCTYPE svg PUBLIC "-//W3C//DTD SVG 20010904//EN"
 "http://www.w3.org/TR/2001/REC-SVG-20010904/DTD/svg10.dtd">
<svg version="1.0" xmlns="http://www.w3.org/2000/svg"
 width="512.000000pt" height="512.000000pt" viewBox="0 0 512.000000 512.000000"
 preserveAspectRatio="xMidYMid meet">

<g transform="translate(0.000000,512.000000) scale(0.100000,-0.100000)"
fill="#000000" stroke="none">
<path d="M1235 5105 c-27 -7 -62 -18 -77 -24 -46 -18 -569 -320 -636 -368
-246 -176 -424 -448 -493 -753 -25 -115 -34 -293 -20 -405 6 -49 66 -312 134
-584 l122 -493 90 5 c103 5 178 30 255 83 l50 34 0 -95 c0 -237 57 -501 146
-677 13 -26 24 -52 24 -59 0 -6 -30 -43 -66 -82 -186 -201 -340 -508 -409
-813 -42 -185 -29 -287 53 -412 41 -63 120 -125 192 -153 28 -11 416 -80 893
-159 926 -155 1012 -165 1251 -141 160 16 1664 266 1747 291 85 25 174 91 220
161 79 120 93 211 59 375 -63 310 -209 608 -413 845 l-74 85 28 55 c84 167
137 395 146 626 l6 151 49 -33 c75 -52 151 -77 253 -82 l90 -5 122 493 c67
272 127 529 133 572 59 451 -154 924 -531 1183 -111 76 -584 343 -648 366
-124 43 -264 33 -387 -27 -141 -69 -213 -158 -284 -350 l-43 -116 -56 8 c-31
4 -301 8 -601 8 -300 0 -570 -4 -601 -8 l-56 -8 -43 116 c-23 64 -59 141 -79
173 -114 176 -351 270 -546 217z m257 -183 c60 -26 138 -99 165 -154 43 -86
83 -208 70 -213 -204 -71 -373 -163 -512 -281 l-61 -51 -12 61 c-15 79 -81
212 -135 271 l-42 46 -59 -60 -59 -60 31 -36 c69 -78 112 -203 112 -327 0 -66
-1 -68 -67 -165 -176 -260 -250 -500 -262 -858 -7 -186 -9 -204 -33 -257 -39
-85 -121 -155 -213 -182 -19 -6 -27 20 -130 432 l-110 437 0 170 c1 142 4 183
22 252 70 265 218 484 428 635 77 55 564 330 620 351 66 23 181 19 247 -11z
m2383 10 c63 -22 565 -309 643 -367 75 -56 196 -184 244 -257 135 -202 195
-420 186 -662 -5 -112 -13 -152 -114 -558 -102 -412 -110 -438 -129 -432 -91
26 -174 98 -214 184 -23 51 -25 70 -32 255 -12 358 -86 598 -262 858 -66 97
-67 99 -67 165 0 124 43 249 112 327 l31 36 -59 60 -59 60 -42 -46 c-54 -59
-120 -192 -135 -271 l-12 -61 -65 55 c-130 110 -331 220 -503 276 -16 5 -15
12 11 83 48 132 58 150 101 197 74 81 150 114 255 115 33 0 83 -7 110 -17z
m-695 -496 c571 -113 1002 -558 1095 -1131 18 -107 21 -894 5 -1010 -15 -106
-48 -230 -88 -328 l-35 -89 -24 25 c-24 23 -25 27 -14 76 43 203 -42 443 -206
576 -61 50 -149 101 -234 135 -51 20 -59 28 -80 73 -152 325 -540 600 -981
698 -66 14 -109 7 -268 -43 -383 -122 -694 -368 -829 -655 -21 -45 -29 -53
-80 -73 -141 -57 -255 -137 -320 -222 -110 -147 -155 -327 -120 -489 11 -50
10 -54 -11 -71 -13 -10 -27 -15 -31 -11 -17 18 -73 175 -97 273 -25 104 -25
111 -29 569 -4 382 -2 480 11 560 87 548 479 980 1012 1116 157 39 229 43 749
40 409 -2 504 -5 575 -19z m-452 -1181 c213 -72 384 -170 519 -299 69 -65 150
-163 142 -171 -2 -2 -24 1 -49 5 -25 5 -61 9 -80 10 -29 0 -46 10 -87 49 -28
27 -82 64 -119 82 -58 29 -80 34 -159 37 -115 5 -180 -12 -269 -72 l-66 -44
-66 44 c-89 60 -154 77 -269 72 -79 -3 -101 -8 -159 -37 -37 -18 -91 -55 -119
-82 -41 -39 -58 -49 -87 -49 -19 -1 -55 -5 -80 -10 -25 -4 -47 -7 -49 -4 -7 7
78 110 137 166 149 142 321 238 562 315 124 39 146 38 298 -12z m-368 -476
c25 -11 79 -54 123 -97 l77 -77 78 77 c93 93 142 118 232 118 160 0 264 -111
263 -281 0 -91 -17 -133 -104 -259 -129 -189 -272 -271 -469 -271 -197 0 -340
82 -469 271 -87 126 -104 168 -104 259 -1 125 49 210 148 257 65 31 160 32
225 3z m-513 -440 c24 -54 149 -242 195 -294 48 -55 139 -121 218 -159 l70
-34 -43 -24 c-153 -86 -366 -149 -565 -168 -135 -13 -221 -4 -300 31 -293 129
-353 519 -114 730 81 71 305 167 462 196 l45 9 5 -121 c5 -92 11 -131 27 -166z
m1676 230 c114 -38 233 -99 291 -150 200 -176 191 -511 -18 -669 -113 -85
-213 -108 -398 -90 -199 19 -412 82 -564 167 l-43 24 87 44 c124 63 195 131
302 291 105 158 120 199 120 340 l0 102 67 -14 c36 -8 107 -28 156 -45z m-884
-824 c94 -61 256 -139 357 -172 46 -15 84 -30 84 -34 0 -14 -134 -108 -198
-139 -200 -98 -451 -96 -648 3 -69 35 -194 122 -194 136 0 4 39 20 86 35 98
32 294 127 369 180 28 19 55 35 62 35 7 1 44 -19 82 -44z m-1490 -57 c76 -82
143 -129 239 -165 89 -33 181 -42 331 -31 l124 8 61 -63 c179 -186 401 -279
661 -279 251 1 476 97 651 279 l61 63 124 -9 c268 -18 420 35 572 199 l68 74
90 -90 c236 -233 378 -481 459 -802 37 -144 38 -209 6 -277 -29 -61 -66 -97
-127 -124 -31 -14 -314 -66 -860 -158 l-814 -137 -230 0 -230 0 -820 138
c-538 90 -835 144 -865 157 -60 27 -98 64 -126 124 -31 66 -31 141 0 270 76
311 216 563 437 787 59 60 110 108 114 108 4 0 37 -32 74 -72z"/>
<path d="M1768 3960 c-103 -19 -188 -115 -196 -218 -6 -79 11 -131 58 -185 53
-60 110 -87 183 -87 100 0 174 44 222 131 33 62 39 149 13 210 -46 107 -166
171 -280 149z m104 -187 c25 -22 30 -59 14 -92 -17 -31 -34 -41 -74 -41 -77 0
-100 115 -29 145 33 14 63 10 89 -12z"/>
<path d="M3251 3959 c-122 -24 -215 -156 -195 -280 10 -62 62 -139 118 -173
61 -38 154 -47 221 -21 54 20 130 101 145 153 52 189 -100 357 -289 321z m119
-199 c37 -70 -30 -142 -105 -114 -42 17 -53 95 -17 127 35 31 103 23 122 -13z"/>
<path d="M2255 2455 c-52 -51 -16 -145 54 -145 46 0 85 39 85 85 0 74 -88 112
-139 60z"/>
<path d="M2754 2456 c-58 -49 -20 -146 57 -146 43 0 79 39 79 85 0 74 -80 110
-136 61z"/>
<path d="M675 780 c-8 -13 -46 -152 -43 -156 2 -2 384 -67 849 -145 l844 -143
235 0 235 0 844 143 c465 78 847 143 849 145 8 8 -46 161 -56 159 -6 -2 -377
-64 -824 -140 l-813 -137 -235 1 -235 0 -823 139 c-453 77 -825 137 -827 134z"/>
</g>
</svg>
