<?xml version="1.0" standalone="no"?>
<!DOCTYPE svg PUBLIC "-//W3C//DTD SVG 20010904//EN"
 "http://www.w3.org/TR/2001/REC-SVG-20010904/DTD/svg10.dtd">
<svg version="1.0" xmlns="http://www.w3.org/2000/svg"
 width="512.000000pt" height="512.000000pt" viewBox="0 0 512.000000 512.000000"
 preserveAspectRatio="xMidYMid meet">

<g transform="translate(0.000000,512.000000) scale(0.100000,-0.100000)"
fill="#000000" stroke="none">
<path d="M1023 5083 c-59 -8 -43 -37 45 -83 43 -22 93 -52 111 -68 l32 -27
-218 0 c-265 -1 -448 -25 -738 -96 -193 -48 -255 -68 -255 -84 0 -8 32 -39 71
-70 214 -172 343 -337 393 -504 20 -67 21 -207 2 -278 -17 -63 -15 -65 74 -81
145 -26 287 -128 347 -250 62 -124 68 -247 18 -391 -16 -45 -26 -83 -23 -86 3
-3 39 -8 79 -11 174 -12 313 -97 403 -247 36 -62 66 -167 66 -237 0 -58 19
-60 87 -7 119 91 253 137 399 137 182 0 342 -68 467 -198 l38 -39 -98 1 c-158
1 -253 -29 -578 -182 -202 -94 -251 -112 -415 -147 -473 -102 -592 -155 -772
-343 -124 -130 -332 -467 -408 -662 -29 -75 -34 -99 -38 -205 -3 -99 0 -136
17 -210 32 -135 89 -243 169 -324 79 -79 127 -113 248 -175 310 -160 533 -199
1032 -180 167 7 256 14 264 22 6 6 9 14 7 17 -3 2 -153 23 -335 45 -502 62
-640 97 -772 195 -111 81 -182 199 -208 345 -34 194 22 369 165 511 91 91 173
138 299 175 84 24 106 26 205 22 125 -6 170 -20 281 -87 36 -22 82 -47 102
-56 l35 -15 -50 -62 c-87 -107 -86 -104 -84 -338 2 -113 6 -268 9 -344 9 -190
5 -186 191 -186 94 0 158 5 198 16 42 11 79 13 123 9 54 -6 62 -4 62 10 0 13
6 15 31 10 25 -6 31 -3 35 13 5 16 17 20 79 25 40 3 89 2 108 -3 38 -8 50 -4
60 22 3 9 18 18 34 20 22 2 29 9 31 32 8 65 -49 134 -119 143 -25 4 -53 15
-65 27 -12 12 -39 35 -62 53 -72 58 -75 159 -8 292 l25 49 48 -11 c26 -6 138
-11 248 -11 170 0 215 3 302 22 56 12 122 31 148 42 26 11 49 20 51 20 10 0 2
-82 -16 -160 -24 -104 -25 -169 -5 -303 9 -59 15 -147 13 -209 -3 -100 -2
-109 20 -130 20 -21 32 -23 115 -23 161 0 461 15 466 23 4 5 47 9 98 9 50 1
101 7 113 13 16 8 46 10 97 5 69 -6 75 -5 80 13 3 15 17 22 49 27 24 3 46 10
49 16 11 17 -39 93 -82 123 -28 20 -56 30 -80 30 -32 1 -45 8 -80 47 -33 35
-43 54 -43 80 0 19 -7 70 -15 114 -19 109 -19 166 5 280 28 136 26 208 -6 273
l-26 53 64 63 c171 166 244 350 288 726 41 354 88 500 210 654 64 81 71 85
115 80 167 -22 237 -36 285 -58 100 -47 181 -29 277 60 l48 45 -22 17 c-21 16
-22 20 -12 87 10 69 6 115 -9 115 -4 0 -30 -30 -57 -66 l-50 -65 -11 44 c-20
79 -31 84 -68 31 l-24 -36 -20 39 c-39 76 -69 78 -92 7 -7 -21 -18 -34 -28
-34 -40 0 -183 60 -246 102 -62 42 -67 47 -45 52 148 32 147 32 156 -33 3 -23
10 -44 15 -47 5 -3 26 12 47 35 l38 41 18 -40 c10 -22 24 -40 31 -40 8 0 23
18 34 40 11 22 22 40 25 40 2 0 13 -20 24 -45 14 -32 26 -45 40 -45 24 0 31 9
57 85 l21 60 11 -53 c7 -29 12 -61 12 -72 0 -57 57 -13 105 81 19 36 31 48 55
52 75 15 80 161 8 243 -44 50 -74 62 -177 74 -107 12 -150 28 -297 108 -130
71 -193 92 -288 93 l-71 0 -44 56 c-104 132 -137 214 -167 413 -9 63 -21 119
-26 125 -13 14 -68 -20 -100 -62 -40 -52 -87 -181 -100 -275 l-12 -82 -38 44
c-86 96 -148 248 -191 468 -14 68 -27 126 -30 129 -10 10 -47 -61 -72 -139
-37 -117 -48 -200 -42 -312 13 -234 112 -452 277 -610 l72 -70 -31 -60 c-45
-90 -58 -165 -75 -437 -22 -350 -48 -463 -127 -552 -52 -60 -91 -83 -166 -98
-48 -10 -72 -10 -115 -1 -50 12 -56 16 -95 75 -84 126 -145 279 -180 452 -15
73 -18 138 -18 345 1 239 2 263 28 382 38 179 94 341 171 497 36 73 66 141 66
151 0 10 7 35 16 56 22 52 14 199 -13 269 -28 68 -33 69 -89 4 l-32 -37 -4 72
c-6 80 -32 146 -59 146 -10 0 -48 -27 -86 -60 -37 -33 -71 -60 -76 -60 -4 0
-26 12 -50 27 -73 46 -227 113 -367 160 -266 89 -852 238 -1050 267 -111 16
-332 27 -387 19z m389 -149 c502 -171 811 -309 1115 -500 78 -49 82 -52 65
-68 -10 -9 -21 -16 -23 -16 -3 0 -55 30 -115 66 -146 88 -590 310 -736 368
-64 26 -179 63 -255 82 -76 20 -149 43 -163 52 -33 21 -123 92 -117 92 3 0
106 -34 229 -76z m-340 -210 c565 -62 1032 -267 1357 -595 45 -45 80 -84 78
-85 -2 -2 -32 5 -68 16 -79 24 -263 63 -384 82 -139 20 -579 17 -725 -5 -269
-42 -502 -109 -696 -201 l-111 -53 9 51 c24 147 -33 323 -160 492 -59 79 -204
225 -256 259 -15 10 -24 20 -21 23 11 12 352 29 588 31 165 1 295 -4 389 -15z
m1968 -64 c0 -5 -7 -7 -15 -4 -8 4 -12 10 -9 15 6 11 24 2 24 -11z m-5 -35
c16 -15 25 -36 25 -55 l0 -30 -49 37 c-45 35 -47 39 -33 56 20 23 28 22 57 -8z
m-20 -68 c38 -37 59 -77 40 -77 -14 0 -134 103 -129 111 12 20 46 7 89 -34z
m180 -65 c7 -23 7 -24 -19 -7 -21 14 -24 20 -15 32 14 16 24 8 34 -25z m328
-32 c6 -45 5 -46 -27 -56 l-34 -10 15 45 c8 25 17 54 20 64 8 27 20 8 26 -43z
m-336 -2 c14 -13 23 -33 23 -50 l0 -29 -34 35 c-18 20 -41 36 -51 36 -14 0
-15 3 -5 15 17 21 40 19 67 -7z m-46 -28 c27 -15 72 -89 65 -107 -5 -12 -11
-9 -28 13 -12 16 -37 46 -57 67 -27 29 -31 37 -17 37 9 0 26 -5 37 -10z m393
-46 c14 -36 5 -53 -39 -77 l-45 -26 0 35 c0 56 68 111 84 68z m-834 -51 c0
-16 -2 -16 -33 0 -25 13 -25 15 -9 31 16 16 18 16 29 -1 7 -9 13 -23 13 -30z
m170 -29 c0 -31 -2 -35 -15 -24 -18 15 -19 32 -3 48 17 17 18 16 18 -24z
m-184 3 c14 -13 25 -31 23 -40 -3 -15 -11 -12 -51 16 -26 19 -45 37 -41 41 13
13 43 5 69 -17z m1284 -21 c0 -14 -7 -26 -17 -29 -10 -2 -26 -8 -37 -12 -17
-7 -17 -6 -6 16 31 59 60 71 60 25z m-410 -17 c6 -22 14 -47 17 -55 3 -9 -2
-14 -15 -14 -11 0 -41 -16 -66 -35 l-46 -35 0 65 c0 63 1 65 37 90 21 14 43
25 50 25 7 0 17 -18 23 -41z m-699 -19 c12 -16 17 -33 13 -48 l-7 -23 -19 20
c-10 12 -30 24 -43 27 -30 7 -30 11 -8 36 21 24 41 20 64 -12z m1114 -40 c8
-35 0 -50 -24 -50 -10 0 -37 -14 -59 -30 -47 -34 -48 -32 -27 31 25 73 98 105
110 49z m-1171 5 c30 -15 74 -80 62 -93 -7 -7 -114 91 -109 101 6 10 10 9 47
-8z m799 -72 c9 -25 16 -47 15 -47 -37 -20 -92 -63 -110 -86 -26 -36 -34 -28
-44 48 -5 44 -3 56 12 74 16 18 87 57 104 58 3 0 13 -21 23 -47z m390 -20 c3
-16 8 -35 12 -43 4 -12 -6 -19 -42 -28 -27 -7 -65 -27 -85 -43 l-38 -30 0 44
c0 47 24 78 85 110 44 24 62 21 68 -10z m-2118 -13 c148 -11 334 -39 449 -68
l70 -18 -69 -12 c-115 -22 -331 -98 -471 -168 -253 -125 -694 -440 -824 -588
l-47 -54 5 93 c8 164 -37 286 -148 397 -71 71 -178 133 -253 145 -20 3 -39 9
-42 13 -5 8 134 64 300 120 363 123 675 165 1030 140z m1783 -74 l21 -35 -27
-17 c-32 -19 -53 -43 -92 -102 l-28 -43 -21 56 c-12 31 -21 59 -21 64 0 16 71
89 102 104 38 18 40 18 66 -27z m368 -21 c18 -45 19 -42 -21 -55 -20 -7 -55
-27 -79 -45 -34 -25 -46 -30 -58 -21 -59 43 -5 117 107 146 17 4 31 8 33 9 2
1 10 -15 18 -34z m-1570 -48 c-191 -145 -367 -317 -525 -512 -248 -308 -384
-525 -438 -699 -17 -55 -33 -74 -33 -38 0 27 -45 116 -89 176 -76 103 -249
205 -348 206 -35 0 -36 17 -5 62 70 100 260 260 522 437 312 212 552 318 837
371 54 10 100 18 103 19 3 0 -8 -10 -24 -22z m1276 -29 c22 -24 34 -44 28 -46
-32 -11 -108 -72 -135 -109 -16 -23 -33 -42 -36 -42 -3 -1 -15 16 -27 37 l-21
38 20 42 c21 42 100 122 120 122 7 0 30 -19 51 -42z m-1290 -149 c-125 -278
-172 -404 -194 -507 -32 -157 -18 -221 107 -482 72 -150 125 -283 125 -311 0
-5 -31 22 -68 60 -73 72 -164 130 -271 169 -52 19 -93 26 -188 30 -150 6 -239
-12 -360 -74 l-83 -43 6 27 c83 341 460 859 884 1214 63 53 116 95 117 94 1
-1 -33 -81 -75 -177z m1630 131 l17 -29 -46 -26 c-41 -23 -50 -24 -82 -14 -20
6 -39 15 -44 18 -17 16 78 81 118 81 12 0 27 -12 37 -30z m-249 -58 l27 -19
-49 -32 c-52 -33 -96 -83 -125 -138 -9 -18 -19 -33 -21 -33 -3 0 -17 18 -31
40 l-26 39 21 35 c27 42 84 94 125 112 41 17 46 17 79 -4z m316 -34 c22 -24
38 -44 37 -45 -3 -3 -148 46 -154 52 -5 5 50 34 65 35 7 0 30 -19 52 -42z
m-231 -14 l37 -16 -35 -18 c-65 -34 -125 -111 -160 -204 l-11 -30 -36 36 -35
35 20 45 c26 60 83 121 135 147 50 25 40 24 85 5z m127 -43 c33 -10 53 -21 45
-24 -8 -2 -35 -10 -59 -17 -81 -22 -169 -93 -213 -172 -22 -39 -40 -45 -46
-15 -6 31 50 136 95 178 37 34 92 67 113 68 3 1 32 -8 65 -18z m275 -277 c0
-12 7 -14 31 -9 24 6 30 4 27 -6 -3 -8 -20 -15 -40 -17 -28 -2 -38 2 -52 22
-16 26 -16 26 9 26 16 0 25 -6 25 -16z m664 -210 c22 -8 20 -17 -13 -70 l-28
-46 -11 45 c-7 24 -14 52 -18 61 -5 13 0 16 24 16 17 0 37 -3 46 -6z m-137
-28 c-3 -8 -11 -33 -17 -55 -6 -23 -13 -41 -16 -41 -3 0 -14 19 -24 43 l-19
42 32 12 c43 16 50 15 44 -1z m-253 -51 c-16 -25 -34 -33 -34 -16 0 5 -3 16
-6 25 -5 13 1 16 25 16 31 0 31 0 15 -25z m116 19 c0 -3 -5 -15 -11 -26 -11
-21 -12 -21 -25 -3 -20 27 -17 35 11 35 14 0 25 -3 25 -6z m55 -165 c6 -24 4
-26 -19 -22 -30 6 -29 4 -14 38 13 28 23 23 33 -16z m120 -67 c-1 -1 -14 3
-28 9 l-26 12 22 29 22 30 6 -39 c4 -21 6 -39 4 -41z m107 -4 c-7 -27 -13 -32
-32 -30 -13 1 -26 4 -28 7 -2 2 11 22 29 45 37 45 47 38 31 -22z m-829 -81
c34 -9 90 -19 125 -23 69 -7 83 -17 51 -35 -31 -16 -135 -6 -191 19 -52 23
-141 99 -132 113 3 5 23 -6 45 -25 27 -22 61 -39 102 -49z m-18 -53 c29 -13
79 -28 111 -32 l59 -7 -36 -28 c-20 -15 -61 -33 -90 -39 -70 -14 -154 8 -206
56 l-36 32 28 62 28 62 44 -41 c25 -22 68 -52 98 -65z m-98 -110 c42 -18 136
-20 177 -4 16 6 30 9 32 8 1 -2 -12 -28 -30 -58 -29 -49 -36 -55 -69 -58 -47
-4 -133 20 -177 51 -40 26 -56 62 -46 101 l7 28 34 -27 c19 -14 51 -33 72 -41z
m-43 -93 c46 -24 139 -45 167 -38 23 6 23 6 4 -40 l-15 -36 -58 6 c-61 7 -120
27 -162 57 -22 16 -25 24 -22 65 l4 46 22 -19 c11 -11 39 -29 60 -41z m11
-106 c28 -9 71 -17 97 -18 37 -2 47 -5 43 -17 -2 -8 -9 -35 -15 -59 l-11 -44
-46 7 c-50 7 -128 38 -155 63 -13 12 -18 31 -18 70 l0 54 28 -19 c15 -11 50
-27 77 -37z m53 -145 c55 -12 61 -22 46 -76 -5 -19 -10 -20 -52 -13 -26 5 -73
16 -104 25 -57 17 -58 18 -58 53 0 20 3 46 6 57 6 21 6 21 57 -7 29 -16 76
-33 105 -39z m-78 -91 c35 -11 77 -19 93 -19 22 0 27 -4 24 -17 -3 -10 -8 -39
-11 -64 l-7 -45 -57 28 c-31 15 -79 33 -107 40 -27 7 -52 13 -54 15 -2 1 2 23
9 48 10 36 16 45 29 39 9 -4 45 -15 81 -25z m-60 -93 c58 -18 137 -55 147 -69
5 -7 6 -29 3 -49 l-5 -37 -57 38 c-35 24 -83 45 -127 56 l-71 17 17 29 c20 33
30 34 93 15z m-16 -85 c32 -10 80 -34 107 -52 l50 -34 -6 -50 c-3 -27 -8 -51
-10 -54 -3 -2 -20 10 -38 26 -39 34 -162 88 -224 98 -24 4 -43 9 -43 11 0 3
12 21 28 40 32 40 53 42 136 15z m-14 -115 c36 -14 85 -43 109 -64 l43 -37
-22 -84 c-21 -76 -24 -82 -37 -65 -34 48 -102 108 -155 140 -33 19 -61 34 -63
34 -2 0 -24 9 -49 20 l-47 20 23 36 c23 35 24 35 78 30 30 -2 84 -16 120 -30z
m-124 -96 c90 -45 152 -94 195 -153 l28 -39 -41 -81 -41 -82 -13 37 c-28 81
-123 187 -217 242 -26 15 -47 31 -47 36 0 20 32 80 42 80 7 0 49 -18 94 -40z
m1 -163 c37 -35 72 -79 87 -110 40 -84 41 -97 3 -144 l-34 -42 -13 42 c-28 96
-102 193 -187 246 l-42 26 19 43 20 43 42 -23 c23 -13 70 -49 105 -81z m-2090
69 c2 -2 -9 -26 -26 -52 -65 -107 -131 -312 -131 -407 l0 -58 -31 18 c-38 22
-45 38 -57 139 -13 114 1 212 43 303 l35 74 82 -6 c44 -4 83 -8 85 -11z m-200
-8 c-60 -135 -61 -141 -62 -253 0 -60 4 -131 8 -157 l8 -47 -50 21 c-44 19
-51 26 -60 64 -15 59 -13 181 3 227 23 62 78 146 100 150 43 9 58 7 53 -5z
m-123 -45 c-42 -63 -67 -164 -61 -251 2 -43 8 -85 12 -95 7 -16 3 -18 -31 -15
-34 3 -41 8 -58 43 -30 60 -27 181 5 259 23 57 26 59 79 76 79 26 82 24 54
-17z m318 -213 c-35 -80 -82 -228 -82 -256 0 -24 -15 -31 -36 -16 -48 32 -4
242 89 430 l42 84 5 -93 c5 -83 3 -100 -18 -149z m-473 148 c-22 -64 -24 -195
-5 -250 l14 -38 -44 0 c-41 0 -45 2 -66 43 -27 52 -29 139 -4 213 15 47 20 52
64 66 26 9 50 17 53 17 3 1 -2 -23 -12 -51z m2426 22 c86 -59 144 -142 170
-242 l13 -47 -61 -50 -61 -50 -16 77 c-18 90 -54 156 -111 205 l-41 36 28 50
c15 28 29 51 31 51 3 0 24 -13 48 -30z m-2540 -37 c-31 -76 -32 -183 -2 -242
9 -19 16 -35 15 -36 -2 -2 -21 -6 -44 -9 -38 -7 -43 -5 -67 24 -43 50 -56 121
-37 191 9 31 18 40 68 62 70 31 76 32 67 10z m-122 -262 l26 -39 -42 -16 c-56
-21 -70 -20 -95 7 -30 31 -42 70 -42 132 l0 53 58 34 57 34 6 -83 c5 -66 11
-90 32 -122z m2602 166 c56 -59 87 -128 93 -207 l4 -66 -61 -33 -61 -32 0 36
c0 56 -28 154 -62 216 l-31 56 29 37 c16 20 33 36 38 36 5 0 28 -19 51 -43z
m-995 8 c27 -14 30 -21 30 -63 0 -26 -11 -117 -25 -203 -42 -269 -87 -355
-169 -323 -13 5 -12 12 8 52 48 96 86 268 86 389 0 68 19 163 32 163 5 0 22
-7 38 -15z m155 -74 c-27 -66 -62 -402 -50 -471 l6 -38 -86 -7 c-47 -4 -88 -5
-91 -2 -3 2 4 20 16 39 11 19 29 71 40 114 19 80 60 340 60 386 l0 25 55 -15
c44 -12 54 -19 50 -31z m-1035 -144 c-6 -28 -19 -70 -30 -94 -17 -38 -22 -43
-38 -34 -29 16 -16 88 42 236 l31 80 3 -69 c2 -38 -2 -92 -8 -119z m1166 151
c-33 -110 -43 -321 -20 -450 6 -36 6 -37 -32 -46 -22 -6 -57 -13 -78 -16 l-39
-5 6 142 c6 131 25 279 45 352 7 27 13 31 58 36 27 3 53 7 58 7 4 1 5 -8 2
-20z m-2040 -130 c9 -18 23 -41 31 -50 14 -16 11 -19 -31 -40 -46 -22 -47 -22
-82 -3 -41 22 -72 61 -80 102 -5 27 0 34 63 82 l68 53 7 -56 c4 -30 15 -70 24
-88z m2662 60 c26 -51 35 -85 39 -142 l6 -74 -50 -26 -50 -25 -18 62 c-9 34
-22 101 -28 149 -10 86 -10 87 14 107 13 11 31 20 39 18 8 -1 30 -32 48 -69z
m-577 -60 c27 -73 30 -98 32 -206 l2 -122 -33 -11 c-53 -18 -57 -8 -57 174 0
151 10 266 22 254 2 -3 18 -43 34 -89z m-424 -25 c-6 -93 -39 -226 -74 -305
-28 -63 -33 -65 -116 -50 l-39 7 22 28 c24 30 60 117 60 143 0 9 19 42 43 73
23 32 56 85 72 119 17 34 32 62 34 62 2 0 1 -35 -2 -77z m-1812 -27 c11 -17
37 -40 57 -51 l37 -21 -34 -27 c-39 -31 -61 -34 -93 -11 -23 16 -62 83 -62
106 0 6 12 25 28 41 24 25 28 27 37 11 6 -9 19 -30 30 -48z m-53 -113 c12 -13
27 -23 35 -23 19 0 16 -11 -10 -44 -21 -25 -27 -28 -63 -22 -44 8 -62 20 -87
55 -15 23 -15 26 5 55 12 17 30 41 42 54 l20 23 18 -38 c10 -20 28 -47 40 -60z
m2784 0 c6 -46 4 -52 -16 -63 -12 -6 -23 -10 -25 -8 -2 2 2 36 8 75 12 78 22
77 33 -4z m-411 -46 c14 -37 25 -71 25 -76 0 -4 -11 -13 -25 -19 -27 -12 -26
-14 -39 64 -5 30 3 108 10 101 2 -2 15 -33 29 -70z m-2422 -56 l36 -6 -20 -32
c-17 -27 -28 -33 -55 -33 -30 0 -114 26 -114 36 0 2 12 28 26 57 l27 54 31
-35 c21 -22 45 -37 69 -41z m1736 12 c-6 -21 -23 -55 -36 -76 -20 -31 -29 -38
-46 -33 -12 4 -34 9 -49 12 -36 8 -35 16 5 37 17 10 55 37 82 61 28 24 52 43
53 41 2 -2 -2 -21 -9 -42z m1115 -45 c8 -75 12 -568 5 -568 -20 0 -42 49 -60
134 -11 54 -27 116 -35 138 -31 90 -4 320 40 338 39 16 44 11 50 -42z m-2909
-51 l42 -2 -17 -40 c-13 -31 -24 -41 -46 -45 -28 -6 -90 3 -101 14 -3 3 0 28
7 55 l12 51 30 -16 c17 -9 49 -16 73 -17z m-38 -107 c35 0 35 0 28 -37 -10
-56 -31 -75 -79 -71 l-41 3 -3 59 -3 59 32 -7 c17 -3 47 -6 66 -6z m1411 -210
c-2 -63 -9 -124 -15 -134 -10 -19 -11 -19 -20 0 -28 54 -22 172 13 250 23 53
27 31 22 -116z m-1404 36 c-6 -49 -11 -59 -31 -67 -13 -5 -28 -9 -33 -9 -11 0
-30 65 -30 101 0 22 4 26 23 22 12 -2 33 0 47 5 14 5 26 9 28 7 1 -1 -1 -28
-4 -59z m10 -118 c7 -44 2 -54 -28 -60 -13 -2 -22 8 -36 42 l-18 45 27 6 c46
11 48 10 55 -33z m23 -102 c12 -38 9 -46 -17 -46 -10 0 -23 13 -30 31 -11 26
-11 32 1 40 25 16 35 10 46 -25z m1860 -31 c11 -8 26 -28 31 -44 15 -44 -11
-49 -54 -11 -19 16 -46 30 -60 30 -22 0 -23 2 -14 20 13 24 65 27 97 5z
m-1817 -65 c23 -46 24 -50 8 -50 -16 0 -70 75 -61 84 15 15 34 3 53 -34z
m1515 -16 c28 -30 34 -74 10 -74 -8 0 -19 8 -24 18 -5 10 -21 24 -34 31 -17 9
-23 19 -20 32 7 27 40 23 68 -7z m1882 15 c28 -10 93 -66 93 -80 0 -4 -9 -11
-20 -14 -15 -5 -31 2 -56 24 -19 17 -44 31 -55 31 -15 0 -19 5 -15 16 3 9 6
20 6 25 0 12 12 11 47 -2z m-1639 -15 c32 -22 27 -33 -13 -31 -19 1 -35 5 -35
9 0 3 -3 13 -6 22 -8 21 24 21 54 0z m1304 -64 c42 -45 46 -58 22 -67 -10 -3
-29 8 -53 31 -20 20 -44 36 -52 36 -21 0 -29 9 -22 26 3 8 19 14 36 14 22 0
40 -10 69 -40z m-2991 -22 l34 -43 -30 22 c-46 32 -72 63 -53 63 8 0 30 -19
49 -42z m1385 10 c18 -20 18 -21 1 -15 -10 4 -25 7 -33 7 -8 0 -14 7 -14 15 0
22 24 18 46 -7z m1934 -13 l23 -25 -46 0 c-43 0 -47 2 -47 25 0 20 5 25 23 25
13 0 34 -11 47 -25z m-396 -26 c36 -28 33 -35 -14 -31 -34 4 -40 7 -40 28 0
30 19 31 54 3z"/>
</g>
</svg>
