<?xml version="1.0" standalone="no"?>
<!DOCTYPE svg PUBLIC "-//W3C//DTD SVG 20010904//EN"
 "http://www.w3.org/TR/2001/REC-SVG-20010904/DTD/svg10.dtd">
<svg version="1.0" xmlns="http://www.w3.org/2000/svg"
 width="512.000000pt" height="512.000000pt" viewBox="0 0 512.000000 512.000000"
 preserveAspectRatio="xMidYMid meet">

<g transform="translate(0.000000,512.000000) scale(0.100000,-0.100000)"
fill="#000000" stroke="none">
<path d="M1388 4680 c-414 -70 -758 -443 -848 -920 -29 -151 -35 -262 -16
-298 18 -35 74 -59 103 -44 43 23 50 45 62 173 26 281 130 519 300 690 234
233 544 301 830 181 95 -40 173 -94 272 -189 101 -98 129 -108 177 -68 47 39
44 83 -8 145 l-40 48 51 11 c150 32 428 32 578 0 l51 -11 -42 -50 c-52 -63
-57 -108 -14 -144 50 -44 78 -34 175 60 176 171 322 241 527 253 451 27 829
-365 884 -916 17 -166 -1 -309 -61 -497 -41 -127 -35 -143 68 -189 244 -112
415 -313 485 -574 28 -101 30 -294 5 -399 -15 -61 -15 -78 -5 -100 32 -65 126
-62 154 5 8 18 22 80 30 136 63 410 -143 835 -503 1037 -32 18 -59 34 -61 36
-2 1 8 49 22 106 37 151 50 304 37 448 -47 514 -357 930 -781 1050 -218 61
-498 23 -694 -95 l-58 -35 -71 20 c-265 72 -609 72 -874 0 l-71 -20 -58 35
c-167 101 -413 147 -606 115z"/>
<path d="M1433 4255 c-230 -50 -423 -284 -478 -580 -13 -67 -16 -122 -12 -215
6 -155 31 -253 94 -380 39 -78 63 -110 133 -180 60 -61 104 -95 150 -117 270
-131 562 -7 716 302 66 134 85 208 91 363 6 152 -6 249 -46 362 -42 119 -97
208 -180 291 -84 85 -162 130 -263 154 -76 18 -123 18 -205 0z m238 -191 c121
-55 228 -206 270 -382 18 -72 20 -109 17 -217 -4 -111 -9 -142 -35 -216 -78
-226 -242 -362 -415 -346 -161 14 -301 158 -370 377 -19 64 -23 96 -23 215 0
160 14 227 70 342 107 219 302 309 486 227z"/>
<path d="M1480 3730 c-29 -29 -32 -50 -28 -253 3 -175 4 -188 24 -208 33 -32
90 -30 120 5 24 27 24 31 24 227 0 199 0 200 -25 224 -31 31 -86 34 -115 5z"/>
<path d="M3478 4254 c-187 -45 -355 -212 -436 -433 -56 -154 -69 -368 -32
-536 23 -107 98 -265 162 -341 141 -170 323 -242 510 -203 99 21 176 66 268
158 71 71 94 103 133 181 62 125 87 227 94 372 13 265 -67 491 -231 653 -82
82 -166 130 -263 150 -83 18 -130 18 -205 -1z m249 -194 c114 -56 217 -198
260 -360 13 -47 18 -104 18 -205 0 -119 -4 -151 -23 -215 -51 -162 -148 -292
-258 -346 -206 -101 -437 40 -530 322 -27 83 -29 99 -29 244 0 123 4 167 19
215 30 96 84 194 139 253 123 130 261 161 404 92z"/>
<path d="M3525 3725 c-25 -24 -25 -25 -25 -222 0 -215 4 -234 56 -254 35 -13
91 12 104 46 6 15 10 107 10 206 0 224 -9 249 -91 249 -18 0 -39 -10 -54 -25z"/>
<path d="M603 3066 c-302 -144 -511 -404 -579 -721 -38 -179 -27 -356 33 -538
48 -145 117 -259 228 -375 147 -154 261 -220 534 -306 128 -40 168 -63 331
-185 342 -257 702 -419 1085 -486 126 -23 386 -30 524 -16 421 44 825 212
1212 502 162 123 204 145 372 200 235 76 350 143 485 282 63 65 72 80 72 111
0 47 -36 86 -80 86 -26 0 -47 -15 -113 -78 -135 -129 -237 -186 -427 -242
-142 -42 -235 -90 -360 -184 -302 -229 -596 -379 -894 -456 -611 -157 -1220
-5 -1827 457 -121 92 -213 139 -355 182 -162 48 -243 86 -333 155 -154 119
-261 280 -312 471 -32 115 -32 309 -1 418 75 265 240 459 484 570 81 37 105
69 93 120 -17 68 -75 79 -172 33z"/>
<path d="M2418 2980 c-113 -20 -233 -73 -268 -117 -27 -35 -21 -78 16 -110 32
-29 63 -29 122 1 84 43 159 59 272 59 113 0 188 -16 272 -59 63 -32 93 -31
129 5 71 71 8 143 -176 201 -78 24 -283 36 -367 20z"/>
<path d="M2184 2466 c-45 -20 -56 -57 -52 -179 2 -85 7 -109 22 -125 26 -29
69 -36 105 -18 40 21 54 75 49 189 -4 77 -7 91 -29 111 -32 32 -58 38 -95 22z"/>
<path d="M2875 2471 c-46 -19 -59 -48 -63 -139 -5 -113 9 -167 49 -188 36 -18
79 -11 105 18 15 16 20 40 22 125 4 124 -6 159 -54 179 -19 8 -35 14 -36 13
-2 0 -12 -4 -23 -8z"/>
<path d="M969 2021 c-57 -58 -25 -126 104 -224 136 -103 307 -181 524 -238
l122 -32 17 -51 c102 -316 438 -536 819 -536 125 0 205 13 320 51 138 46 227
101 330 204 94 93 144 172 179 281 l17 52 92 22 c210 52 415 142 545 240 140
105 175 180 111 234 -48 41 -70 35 -160 -48 -193 -179 -537 -292 -1024 -337
-168 -16 -642 -16 -810 0 -487 45 -831 158 -1024 336 -92 85 -116 92 -162 46z"/>
</g>
</svg>
