<?xml version="1.0" standalone="no"?>
<!DOCTYPE svg PUBLIC "-//W3C//DTD SVG 20010904//EN"
 "http://www.w3.org/TR/2001/REC-SVG-20010904/DTD/svg10.dtd">
<svg version="1.0" xmlns="http://www.w3.org/2000/svg"
 width="512.000000pt" height="512.000000pt" viewBox="0 0 512.000000 512.000000"
 preserveAspectRatio="xMidYMid meet">

<g transform="translate(0.000000,512.000000) scale(0.100000,-0.100000)"
fill="#000000" stroke="none">
<path d="M717 5025 c-234 -45 -443 -186 -576 -389 -274 -420 -128 -993 317
-1242 2 -1 -14 -41 -34 -90 -77 -186 -128 -369 -160 -576 -25 -157 -25 -499
-1 -658 79 -514 304 -957 669 -1317 358 -355 794 -573 1298 -650 159 -24 501
-24 660 0 504 77 940 295 1298 650 365 360 590 803 669 1317 24 159 24 501 -1
658 -32 207 -83 390 -160 576 -20 49 -36 89 -34 90 451 252 592 829 308 1255
-241 359 -702 489 -1095 307 -151 -70 -296 -200 -381 -342 -23 -38 -46 -68
-50 -67 -5 2 -67 23 -139 47 -256 88 -457 120 -745 120 -288 0 -489 -32 -745
-120 -71 -24 -134 -45 -139 -47 -4 -1 -27 29 -50 67 -51 86 -160 203 -242 262
-79 57 -194 110 -291 135 -104 26 -276 33 -376 14z m386 -178 c104 -33 210
-102 293 -189 70 -74 131 -164 119 -176 -3 -4 -50 -32 -103 -63 l-97 -57 -19
37 c-29 56 -144 163 -207 193 -219 105 -475 36 -609 -164 -60 -91 -84 -179
-78 -293 4 -81 10 -104 41 -169 39 -83 105 -160 172 -203 l43 -27 -37 -55
c-20 -31 -49 -77 -64 -103 l-28 -47 -47 29 c-50 31 -159 135 -193 186 -156
229 -173 513 -47 757 82 160 256 301 432 352 130 38 294 34 429 -8z m3344 8
c235 -68 431 -272 494 -512 27 -105 27 -251 0 -354 -19 -73 -67 -181 -110
-243 -34 -51 -143 -155 -193 -186 l-47 -29 -28 47 c-15 26 -44 72 -64 103
l-37 55 43 27 c67 43 133 120 172 203 31 65 37 88 41 169 4 76 1 106 -17 163
-23 77 -46 102 -94 102 -32 0 -77 -39 -77 -68 0 -11 7 -39 15 -62 19 -55 19
-154 0 -211 -20 -59 -92 -149 -141 -176 l-40 -22 -65 76 c-66 78 -215 218
-306 288 -58 44 -59 52 -17 118 31 47 105 102 168 123 39 13 69 15 151 10
l103 -7 21 27 c63 80 -15 144 -176 144 -84 -1 -139 -13 -212 -48 -63 -30 -178
-137 -207 -193 l-19 -37 -97 57 c-53 31 -100 59 -103 63 -12 12 49 102 119
176 156 164 365 242 593 220 40 -3 98 -14 130 -23z m-1595 -311 c236 -32 444
-96 663 -204 648 -318 1090 -931 1189 -1648 21 -148 21 -436 0 -584 -66 -479
-281 -907 -625 -1248 -86 -85 -109 -102 -210 -152 -468 -232 -1026 -291 -1534
-163 -692 174 -1262 668 -1530 1322 -57 141 -108 319 -136 471 -30 168 -37
493 -14 657 30 221 76 394 151 575 77 188 115 249 219 353 333 335 747 546
1210 617 157 24 459 26 617 4z m-1840 -92 c58 -29 121 -88 147 -141 l20 -39
-47 -38 c-92 -75 -250 -226 -313 -299 l-63 -74 -39 22 c-94 53 -159 165 -159
275 0 150 86 266 232 313 49 16 172 5 222 -19z"/>
<path d="M1383 3184 c-23 -8 -65 -36 -92 -60 -67 -60 -91 -124 -91 -243 0
-107 18 -165 69 -223 56 -63 120 -92 206 -92 84 -1 144 23 200 79 62 63 79
113 80 235 0 95 -3 110 -28 162 -47 95 -129 149 -237 154 -42 2 -80 -2 -107
-12z m165 -162 c37 -24 52 -65 52 -142 0 -111 -37 -160 -123 -160 -79 0 -127
60 -127 160 0 133 101 205 198 142z"/>
<path d="M3564 3189 c-53 -15 -127 -72 -156 -119 -52 -85 -61 -250 -19 -345
24 -54 82 -112 140 -139 67 -30 170 -28 235 4 61 31 120 97 140 157 24 69 21
208 -5 277 -47 128 -202 204 -335 165z m146 -168 c37 -26 60 -79 60 -139 0
-102 -47 -162 -127 -162 -86 0 -123 49 -123 160 0 78 15 118 52 142 46 30 93
30 138 -1z"/>
<path d="M2420 2945 c-146 -32 -295 -112 -399 -213 -37 -35 -51 -56 -51 -76 0
-39 15 -62 49 -74 35 -12 61 0 148 71 122 99 250 147 393 147 267 0 504 -178
664 -497 135 -270 177 -632 101 -869 -67 -210 -211 -377 -410 -474 -134 -65
-212 -83 -355 -83 -143 0 -221 18 -355 83 -199 97 -343 264 -410 474 -75 233
-37 573 96 855 45 97 48 129 16 159 -34 32 -79 29 -110 -7 -56 -66 -142 -305
-173 -481 -22 -126 -29 -324 -14 -417 62 -391 331 -691 711 -795 71 -19 108
-23 239 -23 131 0 168 4 239 23 430 117 721 495 721 936 0 310 -101 642 -266
873 -133 187 -326 330 -509 378 -87 23 -246 28 -325 10z"/>
<path d="M2250 2391 c-48 -10 -73 -25 -104 -61 -49 -59 -54 -150 -12 -215 20
-31 289 -262 322 -277 24 -11 24 -13 24 -142 l0 -131 -113 -43 c-159 -60 -203
-57 -289 24 -49 45 -80 54 -119 33 -58 -30 -38 -106 45 -172 76 -60 129 -80
211 -80 60 -1 87 6 188 46 69 27 135 47 157 47 22 0 89 -20 155 -46 172 -67
271 -63 373 14 102 77 132 143 83 184 -39 31 -76 23 -129 -26 -86 -81 -130
-84 -289 -24 l-113 43 0 131 c0 129 0 131 24 142 38 17 305 250 326 284 54 88
20 204 -74 256 -27 15 -69 17 -331 19 -165 1 -316 -2 -335 -6z"/>
</g>
</svg>
