<?xml version="1.0" standalone="no"?>
<!DOCTYPE svg PUBLIC "-//W3C//DTD SVG 20010904//EN"
 "http://www.w3.org/TR/2001/REC-SVG-20010904/DTD/svg10.dtd">
<svg version="1.0" xmlns="http://www.w3.org/2000/svg"
 width="512.000000pt" height="512.000000pt" viewBox="0 0 512.000000 512.000000"
 preserveAspectRatio="xMidYMid meet">

<g transform="translate(0.000000,512.000000) scale(0.100000,-0.100000)"
fill="#000000" stroke="none">
<path d="M2849 5110 c-779 -90 -1361 -772 -1326 -1554 13 -286 95 -534 260
-785 57 -86 61 -98 62 -150 0 -76 -27 -125 -95 -172 -159 -109 -414 -59 -745
146 -146 90 -213 121 -294 135 -192 32 -402 -78 -486 -255 -50 -107 -75 -315
-75 -630 0 -304 27 -493 105 -730 206 -631 679 -989 1440 -1092 112 -15 216
-17 740 -18 586 0 616 1 752 23 524 83 912 283 1187 612 326 389 434 919 296
1454 -53 206 -148 417 -280 620 -77 119 -79 138 -26 245 43 85 111 284 121
354 5 34 13 51 29 59 11 6 59 35 106 64 47 29 122 67 167 84 126 48 185 125
185 242 0 104 -70 200 -167 229 l-43 13 38 71 c53 96 74 181 67 273 -7 98 -38
151 -109 186 -74 37 -112 34 -211 -18 -96 -51 -173 -76 -232 -76 -39 0 -43 3
-91 67 -220 302 -561 516 -934 588 -101 19 -335 27 -441 15z m438 -169 c318
-65 609 -248 798 -500 l65 -86 0 -70 c0 -38 -7 -113 -15 -165 -23 -153 -63
-252 -136 -337 -108 -124 -109 -262 -4 -368 65 -65 195 -111 291 -103 24 2 44
-1 44 -6 0 -28 -49 -167 -95 -266 -29 -63 -56 -132 -59 -153 -12 -66 11 -141
68 -225 158 -232 256 -463 307 -722 31 -154 33 -416 5 -565 -115 -614 -582
-1044 -1281 -1179 -195 -37 -271 -41 -845 -41 -602 0 -677 4 -905 51 -721 149
-1132 612 -1215 1369 -22 205 -10 577 25 749 33 159 149 258 303 258 85 -1
128 -16 239 -87 127 -81 354 -190 458 -220 282 -81 529 -6 626 190 64 130 49
234 -57 399 -162 252 -229 470 -228 751 0 215 31 369 110 550 157 356 481 639
857 748 74 22 130 33 262 51 69 10 285 -4 382 -23z m1421 -561 c37 -69 -21
-235 -122 -348 -64 -72 -72 -91 -52 -130 19 -37 32 -42 109 -42 127 -1 177
-28 177 -99 0 -51 -22 -77 -83 -97 -68 -22 -95 -36 -198 -100 -108 -69 -185
-96 -269 -96 -113 0 -200 54 -200 126 0 34 14 59 66 118 89 100 164 340 164
523 l0 55 35 0 c80 0 205 42 283 96 44 29 72 28 90 -6z"/>
<path d="M3759 4252 c-27 -23 -28 -50 -4 -156 20 -88 47 -126 90 -126 31 0 75
41 75 70 0 43 -44 194 -62 212 -23 23 -69 23 -99 0z"/>
<path d="M2807 2565 c-158 -30 -296 -103 -544 -287 -92 -69 -187 -137 -210
-152 -52 -35 -69 -75 -48 -117 17 -31 51 -45 85 -34 26 8 135 84 315 218 139
105 310 196 405 218 77 18 223 15 295 -6 227 -66 392 -259 462 -541 26 -109
24 -326 -5 -433 -49 -180 -124 -306 -267 -446 -159 -156 -335 -254 -575 -318
-113 -31 -119 -31 -350 -31 -217 0 -245 2 -361 27 -450 95 -793 316 -1065 682
-71 97 -87 136 -81 198 5 53 28 91 74 123 26 17 57 22 209 32 103 7 229 22
297 36 149 31 381 103 407 128 29 27 35 64 16 93 -28 42 -57 41 -202 -5 -201
-63 -343 -89 -542 -100 -198 -10 -249 -26 -320 -100 -68 -69 -87 -120 -87
-230 0 -112 9 -134 118 -279 345 -460 830 -720 1417 -761 297 -21 535 22 786
140 272 128 485 333 604 581 192 405 94 947 -220 1206 -72 60 -196 126 -280
149 -82 22 -241 26 -333 9z"/>
</g>
</svg>
