<?xml version="1.0" standalone="no"?>
<!DOCTYPE svg PUBLIC "-//W3C//DTD SVG 20010904//EN"
 "http://www.w3.org/TR/2001/REC-SVG-20010904/DTD/svg10.dtd">
<svg version="1.0" xmlns="http://www.w3.org/2000/svg"
 width="512.000000pt" height="512.000000pt" viewBox="0 0 512.000000 512.000000"
 preserveAspectRatio="xMidYMid meet">

<g transform="translate(0.000000,512.000000) scale(0.100000,-0.100000)"
fill="#000000" stroke="none">
<path d="M912 5104 c-123 -63 -123 -356 2 -1744 25 -272 48 -553 52 -625 l6
-130 -67 -85 c-235 -295 -452 -736 -560 -1137 -30 -112 -28 -144 10 -169 23
-15 37 -15 126 -5 112 12 209 14 209 4 0 -4 -12 -44 -27 -89 -23 -71 -25 -86
-14 -112 15 -37 20 -39 223 -107 469 -155 849 -342 1073 -526 62 -51 182 -119
210 -119 6 0 20 -22 32 -49 43 -93 137 -164 260 -196 193 -50 413 38 486 196
12 27 26 49 32 49 28 0 148 68 210 119 225 185 609 373 1085 530 189 63 196
66 211 103 11 26 9 41 -14 112 -15 45 -27 85 -27 89 0 10 97 8 209 -4 89 -10
103 -10 126 5 38 25 40 57 10 169 -108 401 -325 842 -560 1137 l-67 85 6 130
c4 72 27 353 52 625 108 1197 119 1562 54 1691 -57 111 -214 80 -379 -76 -89
-85 -137 -143 -361 -440 -264 -350 -351 -456 -520 -628 -149 -152 -157 -158
-185 -150 -17 4 -131 8 -255 8 -124 0 -238 -4 -255 -8 -28 -8 -36 -2 -185 150
-169 172 -256 278 -520 628 -224 297 -272 355 -361 440 -126 119 -251 168
-327 129z m538 -640 c112 -148 249 -325 304 -394 112 -141 403 -438 455 -465
30 -15 47 -16 192 -5 122 9 196 9 318 0 145 -11 162 -10 192 5 52 27 343 324
455 465 55 69 192 246 304 394 112 147 239 305 282 350 l79 81 -34 -65 c-80
-151 -435 -826 -571 -1086 -83 -160 -146 -292 -146 -308 0 -33 41 -76 72 -76
13 0 71 10 131 21 59 12 110 20 112 17 3 -3 -11 -47 -32 -99 -33 -82 -37 -105
-38 -179 0 -70 4 -93 24 -130 52 -100 153 -190 213 -190 67 0 103 88 54 133
-105 98 -114 108 -125 150 -12 40 -10 51 14 123 15 43 52 127 81 186 30 59 54
119 54 133 0 35 -42 75 -78 75 -16 0 -75 -9 -131 -21 -57 -11 -105 -19 -107
-16 -4 4 601 1165 614 1177 18 17 -23 -583 -93 -1350 -47 -531 -62 -764 -51
-824 5 -24 29 -64 69 -114 186 -231 335 -495 451 -799 25 -67 46 -124 46 -126
0 -3 -37 14 -83 37 -142 72 -291 112 -456 122 -131 9 -207 -1 -237 -31 -33
-33 -32 -78 2 -112 25 -25 29 -26 107 -20 157 13 360 -28 506 -101 l74 -37
-73 -7 c-89 -9 -142 -33 -155 -71 -7 -22 -3 -47 22 -121 l30 -94 -41 -12
c-179 -53 -626 -237 -805 -331 -103 -55 -113 -58 -107 -37 3 13 11 91 17 173
11 170 26 244 69 331 26 53 50 81 146 171 32 30 32 76 -1 108 -46 47 -105 25
-202 -76 -107 -113 -157 -261 -173 -516 -11 -163 -21 -213 -61 -300 -37 -78
-118 -154 -191 -179 -68 -22 -177 -21 -248 4 -49 17 -55 22 -58 49 -3 26 3 34
54 67 130 87 179 161 179 271 0 84 -27 148 -90 210 -66 67 -125 90 -225 90
-100 0 -159 -23 -225 -90 -63 -62 -90 -126 -90 -210 0 -110 49 -184 179 -271
51 -33 57 -41 54 -67 -3 -27 -9 -32 -58 -49 -71 -25 -180 -26 -248 -4 -73 25
-154 101 -191 179 -40 87 -50 137 -61 300 -16 255 -66 403 -173 516 -97 101
-156 123 -202 76 -33 -32 -33 -78 -1 -108 96 -90 120 -118 146 -171 43 -87 58
-161 69 -331 6 -82 14 -160 17 -173 6 -21 -4 -18 -107 37 -179 94 -626 278
-805 331 l-41 12 30 94 c25 74 29 99 22 121 -13 38 -66 62 -155 71 l-73 7 74
37 c146 73 349 114 506 101 78 -6 82 -5 107 20 34 34 35 79 2 112 -30 30 -106
40 -237 31 -165 -10 -314 -50 -456 -122 -46 -23 -83 -40 -83 -37 0 2 21 59 46
126 116 304 265 568 451 799 40 50 64 90 69 114 11 60 -4 293 -51 824 -70 767
-111 1367 -93 1350 13 -12 618 -1173 614 -1177 -2 -3 -50 5 -107 16 -56 12
-115 21 -131 21 -36 0 -78 -40 -78 -75 0 -14 24 -74 54 -133 29 -59 66 -143
81 -186 24 -72 26 -83 14 -123 -11 -42 -20 -52 -125 -150 -49 -45 -13 -133 54
-133 60 0 161 90 213 190 20 37 24 60 24 130 -1 74 -5 97 -38 179 -21 52 -35
96 -32 99 2 3 53 -5 112 -17 60 -11 118 -21 131 -21 31 0 72 43 72 76 0 16
-63 148 -146 308 -136 260 -491 935 -571 1086 l-34 65 79 -81 c43 -45 170
-203 282 -350z m1171 -4178 c35 -13 83 -27 107 -31 41 -7 42 -8 27 -25 -75
-83 -314 -84 -390 0 -15 16 -12 18 42 29 47 10 81 21 149 50 1 1 30 -10 65
-23z"/>
<path d="M1839 2057 c-52 -35 -79 -82 -79 -137 0 -122 143 -203 241 -137 106
71 106 203 0 274 -23 16 -49 23 -81 23 -32 0 -58 -7 -81 -23z"/>
<path d="M3119 2057 c-52 -35 -79 -82 -79 -137 0 -32 7 -58 23 -81 71 -106
203 -106 274 0 66 98 -15 241 -137 241 -32 0 -58 -7 -81 -23z"/>
</g>
</svg>
