<?xml version="1.0" standalone="no"?>
<!DOCTYPE svg PUBLIC "-//W3C//DTD SVG 20010904//EN"
 "http://www.w3.org/TR/2001/REC-SVG-20010904/DTD/svg10.dtd">
<svg version="1.0" xmlns="http://www.w3.org/2000/svg"
 width="992.000000pt" height="1280.000000pt" viewBox="0 0 992.000000 1280.000000"
 preserveAspectRatio="xMidYMid meet">
<metadata>
Created by potrace 1.15, written by Peter Selinger 2001-2017
</metadata>
<g transform="translate(0.000000,1280.000000) scale(0.100000,-0.100000)"
fill="#000000" stroke="none">
<path d="M2057 12782 c-36 -22 -73 -97 -94 -192 -21 -94 -24 -494 -4 -640 42
-315 59 -371 148 -473 81 -92 159 -161 350 -308 94 -74 143 -118 147 -135 13
-51 26 -275 26 -458 l0 -189 -37 7 c-264 45 -626 22 -873 -56 -160 -51 -261
-110 -366 -213 -125 -124 -179 -228 -219 -420 -34 -165 -28 -598 11 -733 61
-211 221 -384 456 -492 l76 -35 -167 -170 c-534 -545 -699 -883 -660 -1352 6
-76 12 -142 12 -148 0 -5 -20 -46 -45 -90 -191 -339 -253 -732 -192 -1219 39
-313 155 -699 290 -967 l33 -67 -63 -95 c-107 -159 -148 -296 -246 -812 -129
-675 -150 -730 -380 -1004 -163 -194 -201 -244 -231 -306 -37 -76 -37 -106 0
-147 27 -30 35 -33 84 -32 101 0 253 93 426 259 240 230 321 419 451 1047 42
206 61 277 112 418 25 70 100 234 114 249 2 2 16 -12 31 -30 116 -142 274
-275 451 -382 84 -50 235 -117 266 -117 30 0 21 -17 -50 -94 -147 -158 -261
-360 -304 -540 -11 -44 -23 -130 -26 -191 -17 -319 101 -606 327 -791 150
-122 328 -206 559 -263 163 -40 317 -59 544 -67 l185 -7 -195 -203 c-192 -201
-233 -256 -220 -290 6 -14 16 -16 75 -11 141 12 406 138 618 294 77 56 210
182 251 236 18 25 35 32 119 49 378 78 780 262 1109 509 55 41 160 135 235
209 152 151 249 285 302 418 28 68 32 88 32 178 0 95 -2 103 -30 150 -63 102
-216 172 -396 181 -157 9 -260 -26 -354 -121 -126 -126 -189 -318 -189 -576 0
-134 11 -208 40 -283 4 -11 -27 -27 -113 -62 -123 -50 -403 -147 -403 -140 0
3 24 30 53 61 105 112 183 239 243 396 111 286 121 547 34 809 -21 62 -27 97
-23 127 8 60 -4 107 -37 142 -17 18 -30 34 -30 35 0 2 24 11 53 20 76 25 193
85 280 144 42 28 79 51 83 51 4 0 41 -33 83 -73 42 -39 148 -130 236 -201 442
-358 721 -634 894 -886 57 -83 161 -259 161 -273 0 -4 -27 -20 -60 -37 -88
-44 -192 -147 -234 -231 -47 -94 -59 -161 -54 -299 4 -99 10 -130 42 -225 36
-108 110 -259 167 -342 l29 -42 -33 -25 c-95 -73 -184 -85 -422 -61 -536 55
-983 -77 -1165 -346 -79 -115 -116 -244 -108 -376 11 -175 131 -296 372 -377
175 -58 426 -75 426 -29 0 8 -52 65 -116 127 -206 198 -284 311 -284 414 0 99
49 146 188 184 71 19 117 21 557 29 577 9 613 14 774 111 l63 38 49 -44 c89
-80 173 -105 239 -71 44 23 83 79 84 122 1 36 -1 38 -71 77 -39 23 -86 53
-105 67 l-33 26 44 64 c57 85 168 314 224 464 58 155 77 248 77 385 0 68 4
110 10 110 12 0 176 -34 273 -57 61 -14 68 -18 63 -37 -15 -64 -28 -242 -22
-318 25 -365 194 -613 531 -781 333 -166 740 -178 1075 -33 232 100 401 308
448 550 l17 84 78 22 c267 77 493 280 602 539 145 343 97 759 -125 1087 -25
38 -28 48 -19 72 46 119 71 422 50 587 -15 120 -61 214 -135 283 l-55 49 30
29 c45 42 94 128 126 219 26 76 28 89 28 255 -1 157 -4 188 -29 295 -67 284
-204 608 -487 1146 l-120 229 79 97 c233 288 379 593 457 958 130 602 107
1182 -64 1665 -111 311 -285 549 -544 743 -309 232 -674 349 -1136 364 l-183
6 7 116 c4 64 10 150 15 192 l7 75 89 87 c73 71 95 86 121 87 56 0 123 75 123
136 0 17 14 45 38 73 112 135 204 301 222 401 6 30 13 215 16 410 4 282 9 363
21 395 19 52 10 115 -22 145 -14 13 -32 48 -41 79 -31 110 -82 171 -142 171
-54 0 -230 -141 -330 -263 -257 -315 -410 -707 -442 -1128 -14 -190 3 -360 55
-549 16 -59 19 -207 9 -371 l-7 -96 -56 -17 c-82 -25 -211 -88 -293 -143 -381
-254 -546 -762 -388 -1195 149 -409 528 -710 936 -745 l73 -6 180 -336 c99
-185 211 -394 250 -465 39 -72 71 -131 71 -132 0 -1 -27 -12 -60 -24 -139 -52
-351 -196 -445 -302 -54 -62 -108 -167 -133 -257 -20 -74 -9 -69 -192 -102
-165 -30 -401 -37 -510 -15 -196 39 -376 163 -499 345 -35 51 -101 173 -101
186 0 3 35 5 78 5 179 0 335 88 413 233 32 58 34 68 34 157 0 85 -3 101 -29
155 -82 166 -291 267 -494 238 -42 -6 -99 -21 -126 -33 -54 -23 -53 -23 -58 3
-2 14 7 22 37 32 45 16 104 77 135 141 33 67 27 121 -25 216 -126 232 -130
242 -134 364 -2 82 4 157 23 290 32 223 53 400 62 526 l6 96 77 27 c311 111
530 317 570 538 26 141 -35 376 -170 657 -241 502 -684 1069 -1079 1383 -41
33 -104 88 -139 123 -127 128 -259 160 -394 96 -35 -16 -86 -49 -114 -73 -28
-24 -88 -64 -134 -89 -114 -61 -280 -174 -424 -288 -148 -118 -482 -450 -597
-595 -284 -357 -444 -698 -466 -992 l-7 -94 -65 51 c-36 28 -85 64 -110 80
l-45 28 -22 183 c-60 492 -65 599 -32 692 31 84 37 207 14 276 -37 111 -213
458 -318 629 -22 36 -87 146 -144 245 -141 244 -223 365 -306 451 -100 106
-175 136 -240 96z m492 -2889 l54 -6 -7 -71 c-10 -110 -36 -273 -57 -362 -48
-202 -90 -281 -228 -426 l-105 -111 -77 6 c-101 8 -158 23 -246 63 -173 78
-266 235 -267 449 -1 94 1 105 32 167 21 43 51 83 85 114 90 82 266 151 439
173 79 11 305 13 377 4z m5592 -167 c257 -68 473 -214 601 -407 109 -165 197
-410 245 -684 27 -157 25 -569 -4 -730 -41 -225 -101 -391 -207 -566 -79 -133
-76 -130 -143 -136 l-58 -5 -180 259 c-212 304 -405 592 -405 603 0 5 30 18
68 30 319 103 563 342 637 625 49 184 20 415 -72 581 -42 76 -150 179 -226
214 -177 83 -414 75 -550 -19 -59 -40 -98 -94 -124 -170 l-21 -63 -7 73 c-3
41 -5 151 -3 244 l3 170 45 7 c94 14 300 1 401 -26z m-709 -418 c-3 -396 6
-579 37 -700 11 -40 18 -74 17 -75 -2 -2 -44 17 -95 42 -259 126 -366 389
-285 699 34 132 74 208 148 281 50 50 154 124 176 125 3 0 4 -168 2 -372z
m-3662 281 c63 -31 167 -76 232 -99 l116 -42 5 -37 c2 -20 3 -37 2 -39 -3 -3
-319 -101 -320 -99 -1 1 -17 44 -36 96 -19 52 -55 136 -80 188 -26 52 -44 92
-40 91 3 -2 58 -29 121 -59z m-592 -243 c48 -74 116 -223 104 -230 -19 -11
-403 -109 -408 -104 -2 2 13 30 32 63 74 122 123 233 171 385 6 19 35 -14 101
-114z m5082 -180 c102 -67 114 -242 33 -449 -65 -166 -244 -274 -436 -265
l-61 3 -23 85 c-27 99 -71 400 -58 400 2 0 15 -24 28 -54 30 -65 93 -131 150
-157 83 -37 207 -19 242 35 25 37 14 77 -51 187 -83 139 -85 191 -12 229 56
28 133 22 188 -14z m-3976 -374 c85 -268 106 -349 106 -414 0 -56 -12 -99 -90
-313 -23 -63 -34 -108 -34 -152 -1 -58 1 -64 34 -98 19 -19 53 -44 76 -56 46
-22 54 -34 54 -83 l0 -32 -75 -13 c-151 -25 -284 -122 -343 -248 -22 -48 -26
-73 -27 -138 0 -69 5 -89 32 -148 69 -145 233 -247 401 -247 l52 0 0 -34 c0
-35 0 -35 -291 -209 l-292 -175 -51 15 c-64 19 -158 68 -184 96 -11 12 -86
121 -167 242 -152 227 -203 296 -292 401 l-51 61 37 54 c506 729 598 880 678
1116 36 105 37 113 40 268 l2 160 153 67 c84 36 158 67 163 67 6 0 37 -84 69
-187z m-1060 -262 c-21 -39 -88 -137 -148 -218 -101 -137 -353 -510 -439 -652
-35 -57 -40 -62 -65 -56 -15 4 -93 10 -173 13 -234 9 -403 -27 -714 -153 -27
-11 -21 -3 355 457 173 212 329 402 345 423 29 35 36 38 150 61 197 41 562
147 688 200 18 7 33 9 35 4 2 -5 -14 -40 -34 -79z m-1084 -1803 c0 -1 -16 -41
-36 -87 -20 -47 -55 -138 -78 -203 l-42 -118 -64 86 c-35 48 -81 114 -101 148
l-37 62 26 17 c42 27 160 68 243 83 87 16 89 16 89 12z m6701 -769 c28 -57 77
-152 108 -213 231 -448 371 -791 371 -907 0 -98 -64 -181 -185 -239 -33 -16
-64 -29 -70 -29 -6 0 -10 55 -11 143 -1 167 -14 229 -79 362 -70 145 -184 266
-339 359 -54 32 -56 36 -143 207 -105 208 -97 189 -84 189 20 0 205 110 288
171 43 31 81 58 85 58 3 1 30 -45 59 -101z m-471 -198 c6 -11 8 -20 6 -20 -3
0 -10 9 -16 20 -6 11 -8 20 -6 20 3 0 10 -9 16 -20z m-1959 -154 c63 -14 143
-28 179 -32 36 -4 69 -9 74 -12 4 -2 -15 -17 -43 -32 -74 -41 -146 -96 -186
-142 -19 -23 -36 -40 -38 -37 -6 10 -43 91 -83 188 -28 64 -39 101 -30 98 7
-3 65 -17 127 -31z m-5018 -211 c51 -88 198 -282 290 -385 l77 -85 -38 -8
c-81 -17 -160 -40 -216 -63 -46 -18 -62 -21 -67 -12 -12 20 -50 164 -66 253
-14 80 -32 365 -23 365 3 0 22 -29 43 -65z m6372 -205 c39 -6 93 -15 122 -21
l51 -10 42 -117 c38 -106 93 -302 87 -308 -1 -2 -43 11 -92 27 -163 55 -352
91 -540 103 -237 16 -234 16 -271 48 -122 107 -50 226 161 266 33 6 69 13 80
16 41 8 293 5 360 -4z m-3495 -419 c-82 -80 -494 -390 -505 -380 -9 10 -65
135 -65 147 0 8 9 25 19 39 25 30 36 99 22 135 -8 23 -6 32 19 66 31 44 111
113 213 186 45 32 74 46 97 46 47 0 97 27 121 67 12 20 43 49 68 65 l46 29 5
-178 5 -178 -45 -44z m-1260 -356 c23 -94 52 -170 106 -274 30 -58 54 -106 54
-108 0 -8 -114 -54 -179 -72 l-68 -19 -6 102 c-9 158 -61 315 -153 462 -24 40
-44 74 -44 78 0 3 10 6 23 7 12 0 72 14 132 32 l110 32 6 -95 c4 -52 12 -117
19 -145z m-931 71 c146 -37 285 -137 347 -248 25 -46 29 -63 29 -128 -1 -85
-22 -141 -67 -174 -21 -15 -44 -20 -95 -20 -81 0 -118 16 -243 110 -125 94
-408 399 -397 428 7 17 92 46 161 55 66 8 184 -2 265 -23z m4655 -679 c28 -21
91 -63 142 -93 50 -30 94 -61 98 -69 23 -60 -179 69 -284 181 -40 43 -26 37
44 -19z m2146 21 c86 -21 179 -62 245 -108 53 -36 55 -51 4 -21 -51 30 -178
52 -331 58 l-137 6 41 48 c45 54 36 53 178 17z m-5179 -461 c210 -260 280
-401 280 -559 -1 -122 -48 -222 -156 -328 l-56 -55 -51 60 c-129 151 -280 274
-410 335 -112 52 -179 65 -328 64 -115 -1 -148 -6 -225 -28 -234 -70 -395
-218 -457 -419 -20 -68 -22 -168 -3 -222 10 -29 -69 60 -116 130 -57 86 -83
177 -77 276 4 70 10 91 49 167 75 148 252 308 442 398 79 37 196 68 697 184
184 43 337 78 340 79 3 0 35 -36 71 -82z m5114 3 c91 -13 175 -55 253 -126 91
-82 91 -85 40 -146 -73 -88 -217 -206 -277 -229 -88 -33 -200 -43 -305 -29
-77 10 -260 61 -275 75 -2 3 23 37 56 77 87 105 170 231 215 323 l38 81 93 -8
c50 -4 124 -12 162 -18z m-870 -170 c-3 -5 -11 -10 -16 -10 -6 0 -7 5 -4 10 3
6 11 10 16 10 6 0 7 -4 4 -10z m-371 -224 c25 -38 46 -71 46 -73 0 -3 -34 -42
-77 -87 -145 -154 -265 -316 -324 -438 -13 -27 -28 -48 -33 -48 -6 0 -60 15
-121 34 -60 18 -162 46 -225 61 -63 15 -120 29 -126 30 -6 2 -27 56 -48 122
-21 65 -67 186 -103 268 -36 83 -67 155 -70 162 -3 8 19 5 68 -7 226 -58 571
-48 864 25 49 13 93 22 96 21 4 0 28 -32 53 -70z m-2447 -56 c57 -32 83 -63
83 -96 0 -27 -39 -80 -158 -219 -53 -60 -110 -127 -127 -147 -18 -21 -34 -38
-36 -38 -2 0 -1 57 3 128 13 250 72 402 157 402 14 0 49 -14 78 -30z m4272
-240 c50 -156 51 -344 1 -472 -29 -79 -105 -159 -183 -197 -92 -44 -96 -44
-117 13 -39 100 -108 166 -173 166 -32 0 -86 -38 -114 -79 -27 -40 -30 -102
-8 -145 l15 -29 -92 7 c-227 17 -505 74 -868 177 -99 29 -249 74 -278 84 -21
8 67 114 238 288 l156 157 62 -25 c93 -38 224 -74 352 -97 135 -24 388 -29
488 -9 152 29 306 96 422 181 36 27 67 49 71 49 3 1 15 -30 28 -69z m-6279
-146 c30 -14 70 -39 89 -57 33 -32 141 -173 194 -255 l28 -43 -63 -28 c-291
-132 -550 -98 -634 83 -100 215 147 407 386 300z m3093 -446 c15 -62 18 -183
7 -273 -11 -98 -43 -262 -53 -271 -7 -7 -66 151 -83 221 -16 71 -18 165 -3
219 11 40 88 126 113 126 7 0 16 -10 19 -22z m1515 -217 c147 -49 379 -130
516 -180 310 -114 391 -138 539 -159 l119 -17 -6 -43 c-3 -24 -14 -60 -23 -80
-24 -51 -127 -152 -193 -189 -144 -82 -379 -130 -590 -120 -240 11 -411 76
-540 206 -113 113 -159 230 -160 399 0 108 36 272 60 272 6 0 131 -40 278 -89z"/>
</g>
</svg>
