<?xml version="1.0" standalone="no"?>
<!DOCTYPE svg PUBLIC "-//W3C//DTD SVG 20010904//EN"
 "http://www.w3.org/TR/2001/REC-SVG-20010904/DTD/svg10.dtd">
<svg version="1.0" xmlns="http://www.w3.org/2000/svg"
 width="812.000000pt" height="1200.000000pt" viewBox="0 0 812.000000 1200.000000"
 preserveAspectRatio="xMidYMid meet">

<g transform="translate(0.000000,1200.000000) scale(0.100000,-0.100000)"
fill="#000000" stroke="none">
<path d="M3503 8565 c-23 -7 -67 -26 -97 -43 -29 -17 -56 -29 -58 -26 -9 9
-77 -75 -104 -127 -37 -74 -80 -225 -104 -364 -16 -94 -20 -161 -20 -311 1
-106 -3 -209 -9 -231 -10 -38 -11 -38 -54 -35 -24 2 -61 -1 -83 -7 -51 -14
-193 -107 -205 -135 -5 -11 -22 -68 -38 -126 -16 -58 -37 -128 -48 -156 l-19
-51 -39 34 c-22 18 -83 55 -136 82 -123 62 -197 117 -204 150 -3 14 -9 59 -15
99 -19 140 -34 187 -130 427 -118 293 -206 417 -347 489 -38 19 -116 21 -135
3 -8 -7 -41 -12 -83 -13 -52 0 -80 -5 -112 -22 -59 -31 -136 -112 -167 -175
-23 -47 -79 -273 -71 -287 18 -30 30 -337 20 -525 l-4 -79 -78 -74 c-71 -66
-75 -73 -48 -69 92 15 192 -168 215 -392 12 -113 16 -127 35 -135 10 -3 15
-19 15 -42 0 -62 22 -164 34 -156 6 3 25 7 41 7 24 1 35 -6 52 -32 13 -19 26
-51 29 -72 7 -46 11 -51 50 -78 25 -18 31 -29 33 -68 1 -25 5 -55 10 -67 7
-19 8 -19 24 -3 18 18 23 40 7 30 -6 -3 -10 4 -10 17 0 18 2 20 10 8 9 -13 10
-13 11 0 1 8 2 20 4 25 1 6 3 23 3 38 1 16 6 26 11 23 5 -3 11 14 13 39 2 25
0 45 -4 45 -18 0 -6 18 15 24 12 3 18 9 12 13 -14 11 -18 36 -5 28 6 -4 23 -4
38 0 20 5 23 8 11 16 -9 5 -9 9 -2 9 6 0 14 -4 17 -8 2 -4 23 -6 45 -4 42 4
60 25 41 47 -8 9 -8 15 0 20 5 3 10 11 10 16 0 6 -4 7 -10 4 -5 -3 -10 -1 -10
5 0 22 29 20 53 -3 26 -27 24 -38 -8 -52 -18 -7 -18 -9 -2 -12 22 -6 22 -23 0
-23 -12 0 -18 -8 -18 -24 0 -16 4 -21 11 -15 20 16 33 -10 19 -39 -15 -27 -65
-41 -65 -17 0 9 -15 13 -51 13 -43 1 -49 -1 -35 -11 16 -11 15 -13 -6 -14 -12
-1 -26 3 -31 10 -6 8 -7 6 -3 -5 3 -10 1 -18 -4 -18 -17 0 1 -28 23 -35 24 -8
72 -14 125 -16 33 -1 33 -1 27 -40 -6 -34 -5 -38 10 -33 14 6 16 3 10 -17 -8
-24 -7 -24 13 -6 11 11 18 25 16 32 -9 23 54 135 83 146 33 12 35 9 19 -23
-17 -33 -9 -44 16 -21 11 9 18 11 18 5 0 -28 30 -9 46 29 17 36 20 39 31 23
11 -16 13 -12 13 27 0 24 7 52 14 62 13 17 15 16 25 -10 l10 -28 -1 35 c-1 19
1 41 6 48 4 6 3 12 -2 12 -6 0 -8 9 -5 21 5 20 7 19 18 -7 7 -16 20 -35 29
-43 15 -13 16 -12 7 11 -12 31 -11 138 1 138 4 0 8 -8 8 -17 1 -17 1 -17 11
-1 7 12 6 24 -2 39 -8 15 -8 19 0 15 6 -4 12 1 13 11 0 10 2 23 3 28 2 6 4 17
5 25 1 11 4 9 10 -5 7 -16 9 -14 10 15 0 19 9 46 20 60 11 14 20 28 20 32 0
11 69 118 98 153 14 16 38 38 54 48 17 10 46 34 66 53 71 69 132 24 132 -98 0
-38 -10 -83 -31 -140 -16 -46 -30 -87 -30 -93 0 -5 4 -48 9 -95 6 -47 8 -88 6
-91 -15 -24 57 -149 145 -253 48 -56 50 -61 56 -135 3 -42 8 -92 10 -113 4
-44 57 -174 91 -223 28 -42 29 -48 8 -80 -10 -15 -12 -25 -5 -25 6 0 11 -7 11
-15 0 -10 10 -15 28 -15 17 -1 34 -10 46 -27 17 -23 18 -32 8 -82 -5 -31 -13
-63 -16 -72 -5 -10 22 -43 86 -106 107 -104 139 -144 147 -187 4 -19 16 -35
29 -41 24 -11 28 -25 10 -43 -13 -13 -6 -16 51 -26 19 -4 42 -13 51 -21 14
-13 21 -13 58 2 34 13 47 14 68 4 15 -6 23 -7 19 -1 -4 6 10 10 34 10 35 0 43
-4 58 -32 9 -18 16 -38 15 -43 -2 -14 55 -38 73 -31 19 7 19 -11 0 -89 -8 -32
-13 -61 -11 -63 10 -9 46 143 46 191 0 56 49 204 63 190 4 -3 7 9 7 27 0 18 8
47 19 64 10 17 22 42 26 55 4 13 34 57 66 97 33 40 59 76 59 81 0 47 109 157
193 196 36 16 39 16 75 -3 42 -23 70 -27 32 -5 -38 22 -5 18 39 -5 89 -45 180
-155 206 -247 8 -31 -4 -68 -17 -55 -7 7 -19 3 -36 -13 -36 -33 -40 -23 -8 16
19 22 25 40 23 58 -6 32 -28 81 -37 81 -4 0 -10 -28 -13 -62 -3 -35 -22 -107
-41 -161 -34 -95 -44 -113 -127 -247 -65 -103 -96 -170 -144 -310 -47 -137
-93 -241 -171 -381 -55 -98 -52 -94 -60 -86 -3 3 3 19 15 36 40 55 159 315
196 425 22 65 86 206 159 350 121 238 136 277 156 405 8 55 7 68 -7 83 -23 25
-33 22 -33 -9 0 -72 -43 -198 -115 -343 -42 -84 -110 -231 -151 -328 -122
-283 -227 -503 -277 -578 -26 -39 -47 -75 -47 -82 0 -6 11 -14 25 -18 18 -4
25 -13 25 -30 0 -30 -14 -31 -34 -2 -9 12 -18 19 -22 16 -3 -4 6 -17 20 -29
14 -12 23 -26 20 -31 -3 -4 1 -8 9 -8 9 0 18 23 26 70 7 39 17 68 22 65 4 -3
6 -20 4 -38 l-5 -32 14 30 15 30 1 -48 c0 -33 5 -49 15 -53 18 -7 20 -24 3
-24 -7 0 -13 -13 -14 -30 -1 -25 1 -28 17 -19 18 9 31 55 33 111 1 16 4 28 8
28 10 0 111 203 147 295 17 44 42 119 56 167 26 92 70 180 146 293 68 101 142
259 136 290 -2 14 0 28 4 31 5 3 9 -16 9 -43 0 -55 -30 -118 -120 -253 -90
-134 -126 -208 -158 -315 -17 -56 -42 -130 -57 -165 -39 -94 -136 -289 -146
-296 -5 -3 -8 -20 -8 -37 1 -24 3 -26 6 -9 2 12 9 22 15 22 6 0 8 -9 5 -20 -8
-30 6 -24 21 8 6 16 20 37 30 48 9 10 30 60 47 109 16 50 39 106 52 125 13 19
23 39 23 45 1 5 9 28 20 50 11 22 19 48 20 58 0 10 9 39 19 65 10 26 24 61 31
78 6 17 36 67 67 110 51 72 55 76 50 44 -5 -32 -5 -33 5 -10 6 14 23 51 38 83
26 55 26 69 2 45 -6 -6 -14 -9 -17 -6 -12 12 8 58 32 74 28 18 28 20 7 -32 -6
-14 -3 -14 30 0 20 8 36 13 36 10 0 -3 27 -167 60 -366 55 -327 63 -399 90
-757 27 -359 111 -1135 124 -1148 3 -3 54 7 113 22 97 25 123 28 253 26 80 -2
146 -3 147 -5 1 -1 -2 -22 -8 -46 -22 -106 -22 -98 0 -65 12 16 28 60 38 97 9
37 21 64 25 62 5 -3 17 5 28 18 l19 23 1 -22 c0 -17 8 -25 33 -31 25 -6 33
-14 35 -35 2 -15 8 -27 13 -27 6 0 8 9 4 19 -9 28 14 37 24 9 8 -22 8 -22 14
-3 4 11 8 44 9 73 2 48 4 52 28 52 32 0 43 -8 62 -45 19 -37 57 -146 71 -203
11 -44 21 -53 31 -27 6 17 42 20 51 5 4 -6 11 -8 16 -4 16 10 40 -17 34 -37
-4 -11 -2 -19 4 -19 19 0 12 -22 -9 -27 -17 -4 -20 -14 -20 -54 0 -27 2 -49 4
-49 1 0 56 -14 120 -30 115 -31 142 -31 132 -4 -3 8 -1 14 4 14 6 0 10 -11 10
-24 0 -30 20 -36 126 -36 l81 0 7 37 c3 21 5 61 5 88 -1 49 -1 50 -11 16 l-9
-34 -87 6 c-86 6 -202 28 -253 48 -15 6 -31 21 -37 35 -7 13 -16 24 -21 24 -6
0 -8 9 -6 21 3 16 0 19 -11 15 -13 -5 -15 1 -10 36 3 24 11 45 16 46 6 2 7 8
4 13 -12 20 7 59 35 73 16 9 49 17 74 19 43 3 47 1 58 -25 6 -16 17 -32 23
-36 6 -4 17 -20 24 -36 20 -44 25 -23 8 28 -28 83 -15 104 23 36 23 -42 35
-52 24 -22 -5 14 -3 15 7 5 7 -7 14 -21 15 -31 1 -18 95 -123 95 -107 0 4 -15
28 -34 54 -59 81 -90 161 -62 161 8 0 16 -7 20 -15 8 -23 28 -18 21 5 -5 15
-2 20 14 20 11 0 24 7 29 16 6 11 37 21 93 31 80 13 442 126 465 144 6 5 44
16 84 24 41 9 75 17 77 18 1 2 -2 18 -7 37 -5 18 -7 43 -4 55 3 12 -20 98 -51
195 -74 229 -163 579 -220 860 -25 124 -54 268 -65 320 -55 270 -92 491 -91
540 0 30 -6 90 -14 134 -8 43 -15 103 -15 134 0 71 -29 131 -84 177 -44 36
-64 42 -82 26 -13 -13 -112 -41 -148 -42 -17 -1 -23 -3 -13 -6 9 -2 17 -8 17
-12 0 -8 -203 -201 -226 -214 -20 -12 -18 -21 21 -81 19 -30 35 -62 35 -70 0
-7 14 -40 30 -71 17 -31 30 -65 30 -74 0 -9 11 -33 25 -53 14 -20 25 -39 25
-42 0 -4 -11 -6 -25 -6 l-25 0 0 -113 c0 -85 -4 -118 -15 -133 -15 -19 -15
-19 -35 5 -13 15 -17 28 -11 34 5 5 5 22 0 42 -5 19 -9 51 -8 72 2 38 -12 113
-31 168 -8 24 -9 17 -3 -30 4 -33 7 -82 7 -110 0 -71 -24 -232 -38 -251 -11
-14 -14 -14 -35 3 -15 12 -20 24 -16 36 4 9 12 14 18 10 7 -4 8 0 3 13 -5 10
-8 24 -8 29 5 92 0 184 -12 238 -16 77 -31 106 -19 37 15 -85 4 -336 -15 -334
-7 1 -16 2 -22 3 -14 2 -12 51 2 51 9 0 9 3 0 12 -7 7 -12 34 -12 61 0 26 -4
67 -9 90 -5 23 -15 74 -21 112 -22 125 -31 108 -28 -55 3 -138 1 -155 -14
-158 -25 -5 -36 26 -42 119 -3 46 -9 104 -15 129 -5 25 -16 81 -26 125 -9 44
-17 108 -19 143 -2 40 -9 68 -19 80 -10 10 -17 22 -17 26 0 4 -11 18 -25 32
-14 14 -25 30 -25 36 0 5 -7 7 -15 4 -8 -3 -22 -9 -32 -13 -12 -5 -14 -3 -9 8
4 8 -2 3 -13 -10 -12 -13 -21 -34 -21 -46 0 -13 -3 -30 -6 -39 -3 -9 4 -25 18
-38 37 -36 48 -73 48 -160 0 -45 4 -107 10 -137 5 -31 17 -127 25 -213 14
-143 13 -209 -4 -208 -15 1 -37 27 -37 45 -1 36 -14 115 -24 141 -6 14 -10 48
-10 75 0 72 -17 60 -26 -18 -5 -52 -2 -97 15 -188 12 -66 21 -129 21 -140 0
-20 -17 -45 -31 -45 -11 0 -16 60 -6 67 6 3 3 11 -7 18 -9 7 -22 40 -29 72 -7
33 -18 67 -25 76 -8 10 -12 39 -11 81 1 37 -1 69 -4 73 -4 3 -7 -29 -7 -73 0
-62 8 -104 35 -193 40 -130 41 -134 19 -152 -13 -10 -17 -10 -25 2 -5 8 -8 23
-7 34 2 25 -11 65 -21 65 -10 0 -34 56 -36 82 -1 10 -10 27 -20 38 -16 18 -17
32 -11 145 5 87 4 125 -3 125 -6 0 -11 7 -11 16 0 8 -4 13 -9 9 -16 -9 -3
-312 15 -367 18 -57 16 -113 -6 -113 -10 0 -17 14 -21 40 -3 22 -12 56 -20 75
-8 19 -14 46 -13 60 1 13 -5 30 -14 36 -12 9 -13 23 -8 75 16 145 22 176 44
204 12 15 22 32 22 38 0 6 8 20 18 31 19 21 42 88 48 137 2 14 8 38 13 52 9
24 16 27 61 27 27 0 50 2 50 4 0 2 -7 17 -15 32 -8 16 -15 54 -15 84 l0 55
-25 -30 c-13 -16 -24 -36 -25 -43 0 -7 -5 -10 -10 -7 -6 4 -8 11 -4 16 3 6 -3
13 -15 16 -12 3 -21 10 -21 16 0 6 -8 4 -17 -5 -15 -16 -17 -16 -30 0 -11 13
-16 14 -20 4 -3 -9 -22 4 -55 38 -27 28 -53 48 -59 45 -5 -4 -9 -1 -9 5 0 7
-8 9 -20 5 -15 -5 -20 -2 -20 12 0 14 -2 15 -9 5 -6 -10 -10 -5 -14 16 -9 44
-48 54 -187 46 -95 -5 -118 -3 -135 9 -20 15 -20 16 -1 30 22 16 14 37 -14 37
-10 0 -20 6 -23 13 -3 9 -9 9 -26 -1 -12 -7 -26 -10 -32 -7 -10 7 -5 108 6
126 3 5 12 32 20 61 7 29 17 61 20 71 5 12 2 17 -9 17 -9 0 -16 -4 -16 -10 0
-31 -66 26 -81 69 -6 18 -13 30 -16 27 -6 -6 24 -180 42 -240 22 -72 19 -90
-20 -138 -19 -24 -47 -64 -63 -90 l-28 -48 -35 36 c-19 20 -46 42 -60 49 -22
12 -26 23 -37 102 -10 71 -16 91 -34 105 -13 10 -31 18 -40 18 -9 0 -20 5 -23
10 -4 6 -11 7 -17 4 -14 -9 -10 10 39 219 l37 157 69 67 69 67 -22 52 c-21 52
-21 55 -6 152 53 329 41 591 -39 881 -15 54 -89 184 -122 213 -31 27 -148 59
-260 71 -17 2 -39 9 -47 16 -9 7 -23 11 -31 7 -20 -7 -40 35 -49 103 -4 30 -7
140 -7 244 l0 190 -51 130 c-54 137 -77 169 -168 232 -38 26 -45 28 -80 18
-34 -9 -42 -7 -56 8 -20 22 -61 23 -121 4z m338 -262 c19 -48 23 -77 23 -168
1 -115 -15 -218 -39 -265 -49 -95 -223 -140 -307 -79 -15 10 -34 19 -43 19 -9
0 -13 5 -10 10 3 6 2 10 -4 10 -10 0 -51 78 -51 98 0 6 -5 23 -12 39 -6 15
-13 37 -15 47 -2 11 -8 25 -14 32 -14 18 -22 134 -9 134 6 0 8 -5 4 -12 -5 -8
-2 -9 10 -5 10 4 36 10 59 13 23 4 47 11 54 16 7 5 17 7 23 3 5 -3 10 -1 10 4
0 12 -1 12 -39 16 -13 1 -26 7 -30 12 -10 16 -34 21 -58 12 -17 -6 -23 -5 -23
6 0 25 42 45 95 45 41 1 47 3 31 11 -10 6 -40 9 -66 7 -51 -5 -56 2 -32 48 6
11 13 27 16 37 4 11 11 15 18 11 8 -5 9 -2 5 9 -4 11 -1 17 7 17 8 0 16 8 18
18 6 21 43 31 152 41 l70 6 67 -67 c49 -49 74 -84 90 -125z m109 -233 c0 -5
-2 -10 -4 -10 -3 0 -8 5 -11 10 -3 6 -1 10 4 10 6 0 11 -4 11 -10z m-16 -26
c34 -13 4 -120 -44 -154 l-28 -20 -6 23 c-7 26 13 99 25 91 5 -3 9 5 9 18 0
13 5 29 12 36 14 14 12 14 32 6z m-2254 -38 c0 -3 -4 -8 -10 -11 -5 -3 -10 -1
-10 4 0 6 5 11 10 11 6 0 10 -2 10 -4z m55 -117 c210 -92 239 -117 250 -217 3
-31 10 -80 16 -109 20 -99 -16 -211 -93 -295 -38 -41 -50 -48 -101 -56 -32 -5
-60 -5 -63 -1 -3 5 -16 9 -30 9 -25 0 -81 47 -76 63 1 5 -1 6 -6 3 -10 -6 -29
14 -77 79 -17 22 -33 41 -37 43 -4 2 -4 10 -1 19 4 11 2 14 -5 9 -7 -4 -12 -1
-12 8 0 8 -4 16 -9 18 -4 2 -12 13 -15 26 -6 17 -3 22 12 22 10 0 27 10 38 21
10 12 28 25 39 30 13 5 5 6 -22 2 -28 -4 -43 -2 -43 5 0 6 7 9 15 6 8 -4 22
-1 30 6 8 6 19 9 25 5 5 -3 10 -2 10 4 0 16 -36 31 -75 31 -22 0 -34 4 -30 10
4 6 31 9 60 8 30 -1 49 -6 42 -10 -11 -7 -8 -9 10 -7 16 2 26 -41 31 -128 3
-51 9 -96 14 -99 18 -11 54 6 68 31 7 14 23 26 34 26 18 1 18 2 3 6 -10 3 -24
0 -31 -6 -14 -12 -46 -5 -58 13 -4 6 -8 26 -8 44 0 45 -21 124 -36 140 -7 6
-20 12 -28 12 -9 0 -16 4 -16 8 0 4 -29 6 -65 4 l-66 -4 6 42 c3 23 7 45 9 49
2 3 -1 17 -6 31 -21 54 -17 93 14 124 24 24 31 27 39 15 7 -11 9 -11 9 -1 0 7
5 10 10 7 6 -3 10 -2 10 3 0 18 128 -11 215 -49z m2124 -144 c0 -23 -2 -26 -9
-15 -5 8 -9 33 -9 55 1 35 2 37 9 15 4 -14 8 -38 9 -55z m-562 -2 c-3 -10 -5
-2 -5 17 0 19 2 27 5 18 2 -10 2 -26 0 -35z m593 38 c0 -6 -4 -13 -10 -16 -5
-3 -10 1 -10 9 0 9 5 16 10 16 6 0 10 -4 10 -9z m-1840 -52 c0 -5 -7 -9 -15
-9 -15 0 -20 12 -9 23 8 8 24 -1 24 -14z m16 -44 c22 -34 22 -111 0 -133 -11
-11 -16 -12 -16 -3 0 7 -7 10 -19 6 -16 -5 -19 2 -24 67 -2 40 -3 76 0 81 10
16 43 6 59 -18z m1632 -69 c-11 -44 -24 -89 -30 -100 -10 -19 -10 -20 5 -7 14
11 18 11 23 -4 9 -22 -2 -30 -66 -49 -57 -17 -138 -13 -163 8 -16 13 -60 126
-49 126 4 0 18 3 32 7 14 3 22 3 18 -1 -3 -4 0 -15 8 -24 7 -10 19 -25 27 -35
12 -17 13 -17 14 2 1 12 -2 21 -8 21 -7 0 -7 29 1 50 2 3 2 8 1 13 -2 12 111
58 153 63 22 2 42 6 44 9 11 11 9 -3 -10 -79z m209 42 c-3 -8 -6 -5 -6 6 -1
11 2 17 5 13 3 -3 4 -12 1 -19z m-2640 -230 c-3 -7 -5 -2 -5 12 0 14 2 19 5
13 2 -7 2 -19 0 -25z m759 -41 c-3 -18 -3 -37 1 -40 9 -10 33 -78 33 -96 0
-16 -28 -51 -42 -51 -4 0 -8 7 -8 15 0 8 -5 15 -10 15 -6 0 -8 -10 -4 -24 4
-19 -1 -29 -28 -48 -54 -41 -132 -63 -179 -53 -40 9 -36 19 13 41 23 10 61 37
84 59 70 68 74 70 74 40 0 -34 20 -32 21 3 4 73 9 98 25 134 21 47 28 49 20 5z
m-686 -32 c0 -2 -10 -10 -22 -16 -21 -11 -22 -11 -9 4 13 16 31 23 31 12z
m-70 -152 c0 -35 -3 -44 -10 -33 -16 25 -11 80 7 80 2 0 3 -21 3 -47z m917
-75 c-3 -8 -6 -5 -6 6 -1 11 2 17 5 13 3 -3 4 -12 1 -19z m-637 -18 c-11 -21
-40 -40 -61 -40 -7 0 6 13 27 29 47 36 47 36 34 11z m777 0 c2 -21 -11 -27
-22 -10 -7 11 2 30 13 30 4 0 8 -9 9 -20z m-50 -47 c-3 -10 -5 -4 -5 12 0 17
2 24 5 18 2 -7 2 -21 0 -30z m-14 -42 c2 -10 1 -25 -4 -32 -6 -10 -9 -4 -9 19
0 36 5 42 13 13z m27 -11 c0 -16 -2 -30 -4 -30 -2 0 -6 14 -8 30 -3 17 -1 30
4 30 4 0 8 -13 8 -30z m-852 -508 c9 -27 8 -29 -14 -24 -25 4 -34 31 -11 33 9
0 9 2 -1 6 -6 2 -10 9 -6 14 8 14 21 2 32 -29z m809 -94 c-3 -8 -6 -5 -6 6 -1
11 2 17 5 13 3 -3 4 -12 1 -19z m-807 -13 c0 -8 -7 -15 -16 -15 -14 0 -14 3
-4 15 7 8 14 15 16 15 2 0 4 -7 4 -15z m404 -35 c8 -9 3 -11 -19 -8 -24 2 -32
-2 -42 -22 l-11 -25 -1 31 c-1 30 -3 31 -31 25 -19 -4 -36 -16 -43 -31 -18
-36 -41 -32 -45 9 -3 30 -1 33 17 28 12 -3 21 0 21 5 0 14 139 3 154 -12z
m-394 -4 c0 -9 -8 -12 -27 -8 -25 5 -25 6 -8 13 29 11 35 10 35 -5z m487 -2
c-3 -3 -12 -4 -19 -1 -8 3 -5 6 6 6 11 1 17 -2 13 -5z m-97 -24 c0 -5 -5 -10
-11 -10 -5 0 -7 5 -4 10 3 6 8 10 11 10 2 0 4 -4 4 -10z m-390 -4 c0 -2 -9 -6
-20 -9 -11 -3 -18 -1 -14 4 5 9 34 13 34 5z m735 -6 c3 -5 1 -10 -4 -10 -6 0
-11 5 -11 10 0 6 2 10 4 10 3 0 8 -4 11 -10z m-350 -20 c-11 -5 -31 -9 -45 -9
-20 0 -22 2 -7 8 10 4 30 7 45 8 24 2 24 1 7 -7z m-78 -6 c-3 -3 -12 -4 -19
-1 -8 3 -5 6 6 6 11 1 17 -2 13 -5z m-87 -218 c0 -3 -4 -8 -10 -11 -5 -3 -10
-1 -10 4 0 6 5 11 10 11 6 0 10 -2 10 -4z m2055 -893 c-5 -23 -4 -26 6 -15 36
34 33 -9 -3 -61 -14 -19 -26 -26 -38 -22 -12 4 -21 -2 -29 -24 -7 -16 -26 -42
-42 -57 -30 -28 -31 -28 -45 -10 -8 11 -14 14 -14 8 0 -7 -9 -21 -21 -33 -16
-16 -23 -18 -35 -8 -8 6 -14 18 -14 25 0 8 -7 14 -15 14 -22 0 -38 36 -25 60
11 21 60 28 60 9 0 -8 4 -8 13 -1 6 5 29 17 49 25 31 13 36 13 31 1 -12 -32 8
-11 23 24 13 32 74 89 98 91 4 1 5 -11 1 -26z m816 -6 c-8 -8 -11 -7 -11 4 0
20 13 34 18 19 3 -7 -1 -17 -7 -23z m5 -114 c-11 -11 -19 6 -11 24 8 17 8 17
12 0 3 -10 2 -21 -1 -24z m-826 -111 c-1 -9 -7 -28 -14 -40 l-13 -24 -17 27
c-17 25 -16 27 6 45 25 20 38 18 38 -8z m1839 -2129 c6 -20 8 -39 6 -42 -9 -9
-45 38 -45 59 0 34 28 22 39 -17z m561 -70 c0 -22 -2 -25 -10 -13 -13 20 -13
40 0 40 6 0 10 -12 10 -27z m-67 -310 c-7 -2 -19 -2 -25 0 -7 3 -2 5 12 5 14
0 19 -2 13 -5z m67 -12 c0 -5 -9 -7 -20 -4 -11 3 -20 7 -20 9 0 2 9 4 20 4 11
0 20 -4 20 -9z m65 -11 c8 -13 -15 -13 -35 0 -12 8 -11 10 7 10 12 0 25 -4 28
-10z m42 -6 c-3 -3 -12 -4 -19 -1 -8 3 -5 6 6 6 11 1 17 -2 13 -5z m71 -11
c-10 -2 -28 -2 -40 0 -13 2 -5 4 17 4 22 1 32 -1 23 -4z"/>
<path d="M3681 8206 c-13 -15 -11 -16 81 -31 42 -7 61 11 26 24 -51 19 -95 22
-107 7z"/>
<path d="M3555 8089 c-8 -13 -6 -15 23 -24 22 -6 23 -5 13 14 -13 23 -26 27
-36 10z"/>
<path d="M3520 8078 c0 -9 5 -20 10 -23 13 -8 13 5 0 25 -8 13 -10 13 -10 -2z"/>
<path d="M3615 8080 c3 -5 10 -10 16 -10 5 0 9 5 9 10 0 6 -7 10 -16 10 -8 0
-12 -4 -9 -10z"/>
<path d="M3532 7991 c-23 -17 -41 -71 -24 -71 5 0 9 -8 8 -17 -1 -15 9 -18 64
-20 60 -3 63 -2 40 11 -14 8 -28 12 -32 9 -12 -7 -48 7 -48 19 0 7 23 9 70 5
39 -3 70 -4 70 -2 0 18 -26 55 -39 55 -9 1 -32 7 -52 14 -32 11 -40 11 -57 -3z
m79 -31 c5 0 9 -4 9 -10 0 -5 -13 -10 -30 -10 -29 0 -38 9 -23 24 4 3 13 4 21
1 7 -3 18 -5 23 -5z"/>
<path d="M1708 7739 c-30 -22 -38 -42 -13 -33 15 6 20 -9 16 -48 -2 -13 2 -16
15 -11 12 4 15 3 10 -5 -4 -7 -2 -12 4 -12 6 0 10 8 8 18 -2 13 3 16 23 14 17
-2 29 3 33 13 4 11 13 14 30 9 13 -3 27 -1 30 5 11 17 -31 32 -74 25 -38 -6
-55 6 -30 21 13 8 3 25 -13 25 -7 0 -24 -10 -39 -21z m27 -19 c3 -5 1 -10 -4
-10 -6 0 -11 5 -11 10 0 6 2 10 4 10 3 0 8 -4 11 -10z"/>
<path d="M1768 7633 c7 -3 16 -2 19 1 4 3 -2 6 -13 5 -11 0 -14 -3 -6 -6z"/>
<path d="M1666 7355 c-9 -9 -20 -25 -26 -34 -8 -16 -5 -17 18 -14 21 4 24 2
12 -6 -8 -6 -10 -11 -4 -11 7 0 14 -9 17 -20 l5 -21 52 20 c29 11 55 22 58 25
12 13 -7 15 -37 5 -24 -8 -35 -8 -47 1 -12 11 -9 16 27 31 23 11 52 19 65 19
12 0 26 5 30 11 5 8 -8 9 -42 5 -76 -9 -78 -9 -95 -2 -10 4 -23 1 -33 -9z"/>
<path d="M7075 8549 c-161 -24 -267 -124 -375 -353 -56 -119 -67 -164 -74
-309 -2 -60 -9 -114 -14 -120 -5 -7 -15 -50 -21 -97 -6 -47 -15 -97 -19 -111
-4 -15 -51 -63 -112 -116 -127 -110 -187 -173 -196 -208 -5 -21 0 -33 24 -58
44 -45 69 -108 82 -207 6 -47 23 -137 37 -200 16 -70 27 -156 29 -218 2 -57 8
-129 13 -160 13 -72 31 -321 31 -429 0 -120 20 -160 103 -207 36 -20 80 -39
97 -42 l31 -7 -20 -21 c-17 -18 -52 -96 -97 -219 -13 -35 -11 -51 27 -230 35
-163 58 -238 155 -507 64 -173 143 -376 177 -450 59 -129 62 -139 65 -227 4
-106 8 -110 79 -86 54 18 77 33 49 33 -16 0 -16 1 -2 16 20 20 20 28 0 20 -11
-4 -15 -2 -11 8 3 8 -1 20 -9 27 -8 7 -13 18 -10 26 3 8 2 12 -3 9 -5 -3 -11
3 -14 14 -3 10 0 21 7 23 6 3 4 8 -7 12 -17 7 -17 8 0 22 15 12 16 14 1 10
-13 -5 -16 2 -16 31 0 21 -6 41 -16 48 -20 14 -21 25 -1 18 8 -4 15 -1 15 5 0
6 -6 11 -14 11 -17 0 -30 30 -13 30 7 1 5 6 -5 14 -10 7 -18 19 -18 26 0 10 4
10 18 -1 9 -7 6 -1 -8 14 -19 22 -22 30 -11 37 9 5 11 14 6 26 -11 26 -12 47
-2 61 5 7 1 14 -12 18 -11 3 -18 13 -16 23 1 9 -2 28 -7 42 -6 14 -10 38 -10
54 1 16 -5 44 -13 62 -9 23 -10 35 -2 43 8 8 7 11 -3 11 -10 0 -11 3 -3 11 7
7 8 20 2 37 -5 15 -11 44 -14 65 -4 24 -10 35 -17 31 -6 -4 -8 -3 -4 4 3 6 1
22 -5 35 -8 18 -8 30 0 46 10 17 9 21 -4 21 -11 0 -14 8 -9 35 3 19 1 35 -4
35 -5 0 -7 12 -4 26 3 17 9 23 19 20 8 -4 11 -1 8 5 -4 6 -13 8 -20 5 -7 -2
-21 4 -30 14 -15 17 -15 19 5 25 11 4 26 2 33 -3 12 -9 180 -2 191 9 3 3 -21
3 -54 1 -53 -4 -60 -2 -60 14 0 9 -8 26 -17 37 -14 16 -15 19 -3 15 8 -2 21
-17 29 -32 12 -26 17 -28 55 -23 22 3 48 8 57 11 12 5 18 1 22 -14 3 -12 10
-19 16 -16 5 4 12 2 16 -4 6 -10 24 -136 30 -210 2 -25 11 -72 20 -105 37
-134 42 -160 26 -150 -5 3 -12 1 -16 -5 -3 -5 1 -10 9 -10 19 0 20 -11 4 -29
-11 -11 -10 -13 0 -7 15 9 17 3 32 -104 6 -47 16 -100 21 -119 6 -24 5 -40 -3
-50 -7 -9 -8 -12 -3 -8 9 7 43 -63 44 -90 1 -15 -25 -17 -32 -3 -3 6 -4 5 -3
-2 2 -7 11 -13 22 -13 21 0 38 -20 30 -34 -3 -5 1 -11 9 -15 8 -3 15 -15 15
-26 0 -13 -4 -18 -11 -14 -7 4 -9 -1 -7 -12 2 -11 9 -18 15 -17 14 3 28 -50
14 -55 -5 -2 -8 -9 -5 -16 3 -8 -5 -16 -21 -20 -14 -4 -28 -13 -32 -22 -5 -12
-7 -12 -19 3 -13 17 -13 17 -14 1 0 -10 -5 -18 -11 -18 -5 0 -7 4 -4 10 3 5
-1 10 -10 10 -9 0 -13 -5 -9 -11 4 -7 0 -9 -13 -5 -10 3 -27 0 -37 -7 -18 -13
-17 -16 9 -56 15 -24 33 -65 41 -92 8 -27 28 -63 44 -81 36 -39 36 -43 6 -83
-16 -20 -23 -40 -20 -52 5 -16 -10 -33 -66 -79 -40 -33 -82 -66 -94 -74 -13
-8 -48 -38 -80 -65 l-57 -50 63 -92 63 -93 47 0 c44 0 47 -2 72 -45 15 -24 42
-86 62 -137 30 -81 44 -102 102 -161 113 -116 299 -238 339 -223 12 5 14 1 9
-19 -7 -27 11 -40 88 -65 35 -11 41 -11 53 6 16 23 17 61 1 67 -8 3 -5 6 5 6
17 1 18 9 16 82 -3 81 -3 81 30 108 42 34 60 113 61 258 0 85 -4 114 -26 175
-15 40 -39 89 -55 109 -34 43 -34 47 -12 94 17 35 17 35 66 29 l49 -7 -21 41
c-11 22 -26 42 -32 44 -15 5 1 37 48 94 18 23 33 50 33 60 -1 23 -76 105 -113
121 -14 7 -60 44 -102 84 -68 65 -75 75 -75 111 0 21 6 54 14 73 12 27 22 35
51 41 20 3 53 4 73 1 58 -7 150 -56 169 -88 13 -21 20 -26 30 -17 18 14 18
249 1 266 -7 7 -24 12 -38 12 -30 0 -50 17 -49 40 0 10 2 11 6 3 10 -25 19
-12 17 22 -3 28 0 33 13 28 11 -4 14 -2 9 5 -4 7 -2 12 4 12 6 0 8 5 5 10 -4
6 -10 8 -14 6 -4 -3 -5 9 -3 27 3 18 7 26 9 20 3 -7 9 -13 14 -13 6 0 5 8 -1
20 -14 26 5 100 25 100 8 0 15 5 15 10 0 6 -6 10 -12 10 -9 0 -8 4 2 10 9 6
10 10 3 10 -9 0 -9 8 -3 28 6 16 9 248 7 571 l-2 544 -30 17 c-20 11 -34 30
-44 59 -12 39 -12 44 7 64 11 12 32 45 46 74 l26 52 0 332 c0 337 -1 351 -46
614 -34 201 -145 383 -304 500 -40 30 -218 125 -233 125 -3 0 -11 -26 -18 -57
-14 -70 -65 -172 -72 -146 -4 14 -5 12 -6 -4 0 -13 -6 -23 -12 -23 -13 0 -9
26 16 118 17 67 14 93 -6 48 -7 -14 -19 -26 -28 -26 -12 0 -11 3 3 13 17 13
18 14 2 20 -10 4 -15 3 -11 -3 3 -6 1 -10 -4 -10 -6 0 -11 17 -11 38 l-1 37
-14 -25 -14 -25 -1 36 c0 22 5 39 14 42 7 3 16 20 20 37 4 23 10 31 21 26 8
-3 15 -1 15 4 0 6 5 10 10 10 6 0 10 -9 10 -20 0 -11 5 -20 11 -20 5 0 8 4 5
8 -2 4 -1 14 5 22 6 11 9 7 9 -15 0 -23 3 -27 10 -15 8 12 10 12 10 -5 1 -54
40 76 55 185 36 248 2 461 -87 546 -41 40 -82 67 -103 70 -5 1 -16 2 -23 3 -7
0 -10 6 -7 11 3 6 1 10 -6 10 -7 0 -31 9 -53 19 -52 24 -124 32 -201 20z m25
-59 c0 -5 -2 -10 -4 -10 -3 0 -8 5 -11 10 -3 6 -1 10 4 10 6 0 11 -4 11 -10z
m378 -108 c12 -22 19 -42 15 -45 -3 -4 2 -9 11 -13 20 -8 21 -21 2 -39 -12
-12 -15 -12 -20 1 -3 8 -2 12 4 9 13 -8 13 8 1 21 -6 5 -28 37 -49 70 -39 60
-39 61 -13 48 15 -7 37 -31 49 -52z m-122 43 c12 -8 24 -12 27 -8 8 7 42 -32
63 -72 l16 -30 -26 29 c-14 16 -26 24 -26 18 0 -13 -27 -12 -47 1 -7 5 -13 4
-13 -2 0 -5 5 -13 10 -16 6 -4 7 -11 4 -17 -7 -10 -18 7 -23 37 -2 6 -10 18
-18 28 -22 23 -8 22 28 -4 16 -11 29 -16 29 -11 0 5 -17 21 -37 35 -21 15 -31
27 -23 27 9 0 25 -7 36 -15z m-326 -75 c0 -5 -5 -10 -11 -10 -5 0 -7 5 -4 10
3 6 8 10 11 10 2 0 4 -4 4 -10z m35 -20 c4 -7 13 -6 27 1 15 8 19 8 14 0 -9
-14 31 -71 49 -71 18 0 45 -39 45 -65 0 -15 -6 -12 -27 18 -14 20 -28 35 -31
33 -7 -8 27 -57 98 -141 75 -89 89 -112 90 -142 0 -12 5 -25 10 -28 26 -16 8
-87 -40 -160 -42 -64 -45 -72 -17 -46 29 26 29 26 31 -36 1 -18 -3 -31 -9 -29
-5 1 -8 11 -7 21 3 16 1 17 -11 7 -8 -7 -19 -11 -25 -10 -5 2 -27 -13 -48 -32
-58 -52 -70 -60 -92 -65 -11 -2 -45 -16 -75 -31 -65 -31 -101 -28 -164 12 -62
41 -53 55 31 52 62 -3 71 -1 74 16 3 15 0 18 -17 13 -12 -3 -21 -2 -21 2 0 4
-11 13 -25 19 -53 24 -22 29 43 6 79 -28 72 -27 72 -13 0 29 -102 86 -153 85
-29 -1 -32 -4 -32 -31 0 -20 -5 -30 -15 -30 -8 0 -15 9 -15 20 0 11 -4 27 -9
35 -6 8 -11 62 -13 120 -2 58 -3 123 -4 144 -1 28 4 44 17 53 16 12 20 10 33
-11 15 -26 71 -57 99 -55 10 0 4 7 -15 15 -40 17 -43 26 -5 18 37 -8 75 -26
88 -43 8 -11 14 -5 27 27 16 40 14 72 -4 72 -5 0 -28 12 -51 26 -22 14 -56 31
-75 38 l-34 12 21 21 c11 12 20 27 20 33 0 5 8 10 18 10 12 0 14 3 4 8 -9 6
-5 12 13 22 14 7 25 17 25 22 0 5 5 6 10 3 6 -4 24 5 41 19 21 18 26 26 14 26
-9 0 -13 5 -10 10 8 13 22 13 30 0z m240 0 c4 -6 10 -8 14 -5 5 2 13 -6 19
-19 10 -22 8 -24 -30 -30 -31 -5 -46 -3 -57 8 -8 9 -12 18 -9 21 3 3 13 -1 22
-10 9 -9 16 -13 16 -8 0 5 -5 14 -12 21 -17 17 13 16 32 0 8 -7 6 -3 -4 10
-11 12 -14 22 -8 22 6 0 14 -5 17 -10z m206 -73 c-10 -9 -11 -8 -5 6 3 10 9
15 12 12 3 -3 0 -11 -7 -18z m-261 -11 c0 4 5 3 12 -4 7 -7 19 -12 28 -12 8 0
21 -9 28 -20 14 -24 7 -26 -14 -5 -17 17 -39 21 -29 5 3 -5 0 -10 -9 -10 -8 0
-21 -3 -29 -6 -22 -8 -42 32 -25 50 9 10 17 11 26 4 6 -6 12 -7 12 -2z m-281
-171 c14 -13 14 -15 -1 -15 -9 0 -26 9 -39 20 l-24 19 24 -4 c14 -3 32 -11 40
-20z m-282 -152 c-3 -10 -5 -2 -5 17 0 19 2 27 5 18 2 -10 2 -26 0 -35z m749
-58 c10 -26 -1 -35 -13 -10 -6 14 -7 25 -2 25 5 0 12 -7 15 -15z m-789 -17
c-3 -8 -6 -5 -6 6 -1 11 2 17 5 13 3 -3 4 -12 1 -19z m745 -22 c5 3 4 -3 -4
-15 -18 -29 -26 -26 -20 7 3 15 7 21 10 14 2 -6 8 -9 14 -6z m-52 -45 c0 -6 9
-8 20 -6 24 5 25 1 4 -30 -9 -13 -14 -30 -12 -37 3 -8 11 -1 21 17 9 17 16 23
16 15 -1 -21 -27 -88 -28 -71 -1 8 -7 11 -16 7 -13 -5 -15 1 -11 34 2 22 0 40
-5 40 -5 0 -9 9 -9 20 0 11 5 20 10 20 6 0 10 -4 10 -9z m-723 -73 c-3 -7 -5
-2 -5 12 0 14 2 19 5 13 2 -7 2 -19 0 -25z m-10 -75 c-3 -10 -5 -2 -5 17 0 19
2 27 5 18 2 -10 2 -26 0 -35z m657 3 c-8 -34 12 -68 39 -64 23 3 27 25 11 63
-7 18 -6 18 9 6 21 -17 22 -54 2 -71 -38 -32 -100 24 -76 69 15 28 23 27 15
-3z m-534 -36 c0 -5 -4 -10 -10 -10 -5 0 -10 5 -10 10 0 6 5 10 10 10 6 0 10
-4 10 -10z m-20 -77 c-11 -17 -11 -17 -6 0 3 10 7 28 7 40 2 22 2 22 6 0 2
-12 -1 -30 -7 -40z m440 32 c-7 -8 -9 -15 -5 -15 4 0 -6 -13 -23 -29 -16 -16
-27 -32 -24 -36 4 -3 -1 -3 -9 0 -11 4 -18 -1 -22 -14 -3 -13 -13 -21 -25 -21
-36 0 -34 18 4 47 20 15 51 40 68 55 33 29 56 38 36 13z m-546 -30 c3 -8 1
-15 -4 -15 -6 0 -10 7 -10 15 0 8 2 15 4 15 2 0 6 -7 10 -15z m576 -5 c-6 -11
-13 -20 -16 -20 -2 0 0 9 6 20 6 11 13 20 16 20 2 0 0 -9 -6 -20z m-534 1 c-3
-5 -8 -31 -10 -59 -4 -53 -15 -81 -40 -102 -9 -7 -16 -24 -17 -39 0 -14 -3
-20 -6 -13 -8 21 6 60 30 83 12 12 16 19 10 15 -16 -9 -16 -10 3 50 9 27 17
55 20 62 2 6 6 12 9 12 4 0 4 -4 1 -9z m-36 -33 c-1 -7 -8 -24 -16 -38 -10
-16 -13 -18 -8 -5 4 11 6 28 6 38 0 9 3 17 9 17 5 0 9 -6 9 -12z m97 -12 c-3
-8 3 -24 14 -37 10 -12 19 -30 19 -41 0 -10 3 -17 8 -17 23 4 32 -4 32 -28 l1
-28 14 25 c11 19 14 21 15 8 0 -16 8 -17 70 -13 77 5 142 21 178 44 20 12 25
12 33 0 5 -8 9 -9 9 -3 0 16 51 106 57 100 6 -5 -28 -69 -39 -74 -5 -2 -8 -12
-8 -23 0 -10 -5 -19 -10 -19 -11 0 -62 -105 -73 -150 -3 -14 -15 -35 -27 -47
-11 -12 -21 -32 -21 -45 -1 -17 -3 -18 -6 -5 -6 23 -20 22 -28 -3 -4 -11 -11
-17 -17 -14 -6 4 -8 3 -5 -3 6 -9 -12 -29 -41 -47 -9 -5 -12 -1 -9 16 2 12 2
18 0 11 -6 -18 -33 -24 -33 -8 0 8 -6 15 -14 15 -8 0 -17 10 -19 23 -3 13 -5
7 -6 -16 -1 -36 23 -97 42 -105 4 -2 5 -8 1 -13 -3 -5 0 -9 5 -9 14 0 14 -57
1 -65 -5 -3 -10 -19 -10 -36 0 -16 -4 -29 -10 -29 -5 0 -11 -17 -11 -37 -1
-34 -3 -32 -14 22 -7 33 -13 62 -14 64 -1 2 -8 -2 -16 -9 -13 -11 -15 -9 -15
16 0 16 -1 40 -3 54 -3 14 -5 29 -6 33 0 5 -6 5 -13 1 -8 -5 -9 -2 -5 9 4 10
2 17 -5 17 -7 0 -7 4 -1 13 9 11 9 18 3 50 -5 26 -18 -60 -15 -95 2 -21 -1
-40 -6 -43 -5 -4 -9 38 -10 102 0 70 -3 101 -9 88 -5 -11 -9 -44 -9 -72 -1
-32 -5 -53 -12 -53 -14 0 -6 197 10 250 6 19 11 46 10 60 0 23 -1 23 -8 5 -19
-47 -31 -93 -31 -120 0 -28 -1 -28 -17 -12 -13 13 -14 20 -5 29 7 7 12 25 12
40 0 16 6 28 13 28 7 0 8 3 2 8 -15 11 -13 73 2 67 12 -4 18 24 14 68 -1 9 3
17 8 17 6 0 11 8 11 18 0 18 8 32 18 32 2 0 2 -6 -1 -14z m710 -8 c-3 -8 -6
-5 -6 6 -1 11 2 17 5 13 3 -3 4 -12 1 -19z m-853 -83 c-4 -8 -8 -15 -10 -15
-2 0 -4 7 -4 15 0 8 4 15 10 15 5 0 7 -7 4 -15z m677 -8 c-10 -9 -11 -8 -5 6
3 10 9 15 12 12 3 -3 0 -11 -7 -18z m-144 -59 c-3 -7 -5 -2 -5 12 0 14 2 19 5
13 2 -7 2 -19 0 -25z m276 -40 c-7 -40 -11 -83 -8 -95 3 -12 0 -25 -6 -29 -8
-5 -10 12 -7 59 2 36 0 63 -4 61 -4 -3 -8 0 -8 5 0 6 5 11 11 11 5 0 7 4 4 10
-3 5 -1 19 5 30 21 40 27 19 13 -52z m-136 20 c-3 -8 -6 -5 -6 6 -1 11 2 17 5
13 3 -3 4 -12 1 -19z m40 -40 c-3 -7 -5 -2 -5 12 0 14 2 19 5 13 2 -7 2 -19 0
-25z m-40 -35 c-3 -10 -5 -4 -5 12 0 17 2 24 5 18 2 -7 2 -21 0 -30z m-616 4
c-10 -9 -11 -8 -5 6 3 10 9 15 12 12 3 -3 0 -11 -7 -18z m659 8 c0 -12 -19
-12 -23 0 -4 9 -1 12 9 8 7 -3 14 -7 14 -8z m-50 -55 c1 15 4 19 7 9 2 -8 -3
-28 -12 -45 l-15 -29 1 55 c2 50 2 52 9 20 6 -30 8 -31 10 -10z m27 -2 c-3 -8
-6 -5 -6 6 -1 11 2 17 5 13 3 -3 4 -12 1 -19z m-616 -28 c11 0 11 -48 -1 -75
-7 -15 -9 -8 -7 25 1 31 -2 44 -10 43 -14 -3 -18 19 -5 31 4 4 8 1 10 -8 2 -9
8 -16 13 -16z m638 -37 c0 -54 -18 -176 -43 -298 -6 -28 -42 -143 -78 -245
-22 -63 -41 -131 -43 -150 -6 -57 -16 -84 -26 -68 -14 22 -10 88 11 173 11 44
20 88 20 98 0 9 5 17 11 17 5 0 7 5 4 10 -5 8 13 87 40 175 2 6 4 1 4 -11 1
-11 -6 -43 -14 -69 -8 -27 -13 -51 -11 -53 2 -2 18 41 34 95 34 111 62 257 62
321 0 34 13 69 27 72 1 0 2 -30 2 -67z m107 -23 c1 -33 -2 -57 -7 -54 -5 3 -6
-3 -2 -12 4 -12 3 -15 -5 -10 -7 4 -12 2 -12 -3 0 -6 5 -11 11 -11 20 0 -20
-162 -43 -176 -7 -4 -7 0 0 12 5 11 13 39 16 64 7 42 5 40 -28 -34 -34 -76
-49 -96 -71 -96 -5 1 -2 5 8 11 9 5 17 16 17 23 0 7 8 28 17 47 10 19 18 48
20 64 4 54 8 70 20 83 18 19 35 91 29 118 -5 20 2 30 24 33 3 1 6 -26 6 -59z
m44 -26 c-13 -84 -16 -97 -24 -119 -5 -11 -10 -26 -12 -34 -3 -8 -7 -12 -9 -9
-3 3 0 19 6 37 6 18 9 45 5 61 -3 17 -1 30 4 30 6 0 10 11 10 24 0 28 18 81
25 74 2 -2 0 -31 -5 -64z m-853 -6 c-2 -13 -4 -3 -4 22 0 25 2 35 4 23 2 -13
2 -33 0 -45z m37 20 c-4 -13 -7 -26 -6 -30 1 -5 -3 -8 -9 -8 -7 0 -8 7 -4 18
4 9 10 25 12 35 3 10 8 16 10 13 3 -2 1 -15 -3 -28z m603 -10 c-3 -7 -5 -2 -5
12 0 14 2 19 5 13 2 -7 2 -19 0 -25z m-288 -5 c-25 -32 -39 -45 -39 -36 0 14
30 53 42 53 6 0 5 -7 -3 -17z m588 -30 c-3 -10 -5 -2 -5 17 0 19 2 27 5 18 2
-10 2 -26 0 -35z m-920 -25 c-3 -8 -6 -5 -6 6 -1 11 2 17 5 13 3 -3 4 -12 1
-19z m40 -30 c-2 -13 -4 -5 -4 17 -1 22 1 32 4 23 2 -10 2 -28 0 -40z m844
-68 c-8 -21 -10 -16 -10 32 -1 75 13 111 17 43 2 -28 -2 -62 -7 -75z m-895 28
c-4 -24 -11 -50 -17 -58 -9 -15 -7 23 7 89 8 40 17 14 10 -31z m104 48 c0 -3
-4 -8 -10 -11 -5 -3 -10 -1 -10 4 0 6 5 11 10 11 6 0 10 -2 10 -4z m450 -116
c-7 -30 -24 -82 -37 -115 -40 -95 -65 -174 -83 -265 -16 -79 -18 -82 -20 -40
l-2 45 -13 -50 c-7 -27 -14 -65 -14 -82 -1 -18 -5 -33 -10 -33 -19 0 15 156
54 245 19 44 5 37 -19 -10 -10 -19 -16 -24 -16 -12 0 9 -5 17 -11 17 -5 0 -7
5 -3 11 4 8 9 7 16 -2 8 -11 9 -10 4 4 -3 10 16 57 50 118 49 91 101 223 105
268 1 9 4 3 6 -14 3 -16 -1 -55 -7 -85z m64 76 c-3 -14 -11 -26 -16 -26 -5 0
-7 6 -4 13 3 6 9 20 12 30 10 27 16 13 8 -17z m593 -21 c-4 -8 -12 -15 -19
-14 -10 0 -10 2 0 6 6 2 12 12 12 21 0 8 3 13 6 9 4 -3 4 -13 1 -22z m-1080
-37 c-3 -8 -6 -5 -6 6 -1 11 2 17 5 13 3 -3 4 -12 1 -19z m1054 -21 c-10 -9
-11 -8 -5 6 3 10 9 15 12 12 3 -3 0 -11 -7 -18z m-1214 -54 c-3 -10 -5 -2 -5
17 0 19 2 27 5 18 2 -10 2 -26 0 -35z m213 23 c0 -3 -4 -8 -10 -11 -5 -3 -10
-1 -10 4 0 6 5 11 10 11 6 0 10 -2 10 -4z m541 -44 c-5 -10 -18 -25 -27 -33
-11 -9 -9 -2 6 19 26 35 36 42 21 14z m509 -151 c1 -54 -19 -2 -24 64 l-6 70
15 -55 c8 -30 14 -66 15 -79z m-560 83 c-8 -8 -23 -20 -34 -25 -19 -9 -19 -9
-4 4 10 8 14 18 10 22 -4 5 -2 5 5 1 6 -3 14 -2 18 4 3 5 9 10 12 10 3 0 0 -7
-7 -16z m-470 -14 c0 -5 -4 -10 -10 -10 -5 0 -10 5 -10 10 0 6 5 10 10 10 6 0
10 -4 10 -10z m50 -26 c0 -30 -2 -34 -14 -25 -8 6 -16 23 -19 36 -3 19 0 25
14 25 15 0 19 -8 19 -36z m-90 -100 c0 -3 -6 -4 -14 -1 -8 3 -16 1 -19 -6 -2
-6 -4 11 -5 38 l-2 50 20 -37 c11 -21 20 -41 20 -44z m49 59 c1 -10 8 -66 18
-125 12 -81 13 -113 5 -130 -10 -21 -11 -20 -11 15 -1 21 -5 36 -10 33 -5 -3
-11 7 -13 24 -2 16 -1 27 4 24 4 -3 8 0 8 5 0 6 -6 11 -12 11 -10 0 -9 3 1 9
13 8 11 58 -6 129 -3 12 0 22 5 22 6 0 11 -8 11 -17z m-100 -65 c1 -14 6 -28
12 -30 6 -2 11 -46 13 -107 3 -113 -10 -117 -18 -5 -3 38 -10 93 -16 123 -5
29 -10 61 -9 70 1 26 17 -19 18 -51z m506 25 c-4 -10 -8 -27 -9 -38 -3 -43
-50 -175 -60 -172 -6 3 -9 11 -7 18 2 8 8 32 13 54 13 59 52 155 62 155 4 0 5
-8 1 -17z m-561 -48 c3 -8 1 -15 -4 -15 -6 0 -10 7 -10 15 0 8 2 15 4 15 2 0
6 -7 10 -15z m578 -34 c-8 -22 -7 -31 1 -35 7 -2 5 -5 -4 -5 -9 -1 -20 -8 -23
-17 -5 -14 -4 -15 9 -4 8 7 15 8 15 2 0 -14 -26 -33 -34 -25 -4 4 -4 1 -1 -8
5 -13 -19 -89 -29 -89 -2 0 0 16 4 35 4 19 6 35 4 35 -3 0 44 128 53 143 11
18 15 -4 5 -32z m-564 -16 c0 -13 -4 -22 -9 -19 -5 3 -9 14 -9 25 0 10 4 19 9
19 5 0 9 -11 9 -25z m312 11 c0 -2 -7 -9 -15 -16 -13 -11 -14 -10 -9 4 5 14
24 23 24 12z m168 -162 c0 -17 -3 -22 -8 -13 -5 6 -6 18 -3 26 8 19 11 16 11
-13z m-321 -26 c-3 -8 -6 -5 -6 6 -1 11 2 17 5 13 3 -3 4 -12 1 -19z m343 -43
c-17 -32 -22 -27 -14 14 5 22 10 29 17 22 7 -7 6 -18 -3 -36z m375 -859 c81
-37 147 -125 125 -166 -5 -10 -10 -44 -10 -75 0 -46 -3 -55 -17 -53 -10 2 -26
-13 -44 -44 -15 -25 -25 -48 -23 -51 11 -11 -31 -76 -50 -79 -12 -2 -21 -10
-21 -18 0 -18 -62 -49 -86 -43 -18 5 -62 -35 -53 -48 3 -5 23 0 44 11 22 11
49 20 60 20 13 0 48 25 85 61 49 47 70 76 92 130 15 38 31 69 34 69 3 0 29
-75 58 -167 41 -132 63 -183 98 -236 l46 -68 -46 -152 c-60 -196 -87 -330 -87
-427 l0 -77 -62 -54 c-35 -29 -74 -65 -88 -79 l-24 -25 -8 50 c-31 189 -82
418 -88 399 -4 -10 -5 -25 -2 -32 3 -8 -1 -12 -11 -10 -9 2 -15 -1 -14 -7 1
-5 6 -9 11 -7 5 2 6 -4 2 -13 -3 -9 -6 -23 -6 -31 0 -8 -8 -14 -17 -14 -12 0
-14 -3 -7 -8 7 -4 19 -32 28 -62 11 -38 12 -50 3 -39 -11 15 -14 13 -24 -18
l-11 -35 34 5 c46 8 56 -9 48 -75 -6 -55 -34 -107 -66 -127 -21 -13 -40 0 -58
41 -6 13 -21 42 -35 65 l-25 42 24 18 c13 10 31 23 40 28 24 14 35 76 24 127
-6 24 -25 79 -43 123 -19 44 -36 94 -38 110 -3 17 -13 71 -22 120 -9 50 -18
110 -20 134 -6 72 -16 123 -35 182 -10 31 -18 81 -19 113 0 31 -3 61 -6 66 -9
14 -34 173 -29 182 10 15 54 8 65 -10 10 -16 16 -17 35 -8 22 10 24 17 24 77
0 67 14 115 52 177 18 29 24 32 66 32 28 0 67 -10 97 -24z m-774 -270 c5 -6 9
-17 9 -25 -1 -13 -4 -12 -15 3 -8 11 -14 38 -13 60 1 41 1 41 5 6 3 -19 9 -39
14 -44z m229 36 c0 -15 -2 -15 -10 -2 -13 20 -13 33 0 25 6 -3 10 -14 10 -23z
m822 -1604 c-7 -7 -12 -8 -12 -2 0 14 12 26 19 19 2 -3 -1 -11 -7 -17z m-5
-40 c-3 -8 -6 -5 -6 6 -1 11 2 17 5 13 3 -3 4 -12 1 -19z m-27 -128 c0 -11 -7
-20 -15 -20 -15 0 -21 21 -8 33 12 13 23 7 23 -13z m-465 -220 c3 -5 1 -10 -4
-10 -6 0 -11 5 -11 10 0 6 2 10 4 10 3 0 8 -4 11 -10z m384 -71 c-17 -10 -24
4 -14 29 6 16 7 16 17 -2 8 -14 7 -21 -3 -27z m126 -358 c3 -5 1 -12 -5 -16
-5 -3 -10 1 -10 9 0 18 6 21 15 7z m-110 -31 c3 -5 2 -10 -4 -10 -5 0 -13 5
-16 10 -3 6 -2 10 4 10 5 0 13 -4 16 -10z m55 -30 c8 -5 12 -11 10 -14 -3 -2
-14 2 -24 10 -22 15 -10 19 14 4z m64 -35 c11 -8 15 -15 10 -15 -6 0 -19 7
-30 15 -10 8 -14 14 -9 14 6 0 19 -6 29 -14z m41 -25 c3 -5 1 -10 -4 -10 -6 0
-11 5 -11 10 0 6 2 10 4 10 3 0 8 -4 11 -10z"/>
<path d="M7124 8022 c-9 -6 -11 -28 -6 -85 3 -30 60 -57 114 -54 26 2 50 6 54
9 5 6 -44 45 -92 74 -10 6 -14 13 -8 17 12 7 95 -29 106 -46 9 -15 20 -4 13
14 -6 17 -52 42 -114 64 -50 17 -52 17 -67 7z m92 -113 c9 -15 -33 -10 -45 5
-9 11 -6 12 14 8 14 -2 28 -8 31 -13z"/>
<path d="M6933 7868 c-61 -67 -46 -97 48 -101 50 -1 64 1 64 12 0 8 -15 19
-33 23 -20 5 -37 18 -44 33 -9 19 -14 22 -25 14 -9 -8 -13 -8 -13 -1 0 6 12
18 28 26 16 9 21 15 11 16 -8 0 -25 -10 -36 -22z"/>
<path d="M6741 7354 c0 -11 3 -14 6 -6 3 7 2 16 -1 19 -3 4 -6 -2 -5 -13z"/>
<path d="M6745 7310 c6 -30 16 -40 12 -12 -2 12 -6 24 -10 28 -3 4 -4 -4 -2
-16z"/>
<path d="M6810 7311 c0 -12 28 -22 35 -12 3 5 -2 12 -11 15 -21 8 -24 8 -24
-3z"/>
<path d="M6828 7253 c6 -2 18 -2 25 0 6 3 1 5 -13 5 -14 0 -19 -2 -12 -5z"/>
<path d="M6855 7220 c3 -5 8 -10 11 -10 2 0 4 5 4 10 0 6 -5 10 -11 10 -5 0
-7 -4 -4 -10z"/>
<path d="M6821 7203 c0 -12 6 -29 15 -37 21 -22 31 -20 12 2 -9 9 -18 26 -21
37 -4 19 -5 18 -6 -2z"/>
<path d="M6726 7107 c3 -10 9 -15 12 -12 3 3 0 11 -7 18 -10 9 -11 8 -5 -6z"/>
<path d="M7380 5276 c-6 -31 -10 -76 -9 -99 2 -24 0 -48 -4 -54 -4 -6 -8 -27
-9 -46 -2 -19 -6 -33 -10 -31 -4 2 -10 -1 -14 -7 -5 -8 -9 -7 -15 2 -5 9 -10
5 -14 -14 -5 -17 -2 -33 5 -42 13 -15 35 -10 25 6 -4 5 2 6 11 2 13 -5 16 -3
11 10 -4 11 -1 17 8 17 8 0 14 3 14 8 -4 23 3 52 14 64 10 10 13 42 12 121 -1
59 -5 110 -8 113 -3 3 -10 -20 -17 -50z"/>
<path d="M7295 5146 c-18 -13 -18 -14 2 -24 18 -10 21 -8 21 13 0 29 1 29 -23
11z"/>
<path d="M7477 5133 c-4 -3 -7 -11 -7 -17 0 -6 5 -5 12 2 6 6 9 14 7 17 -3 3
-9 2 -12 -2z"/>
<path d="M7396 4977 c-26 -28 -45 -43 -41 -33 4 15 3 17 -9 7 -11 -9 -15 -9
-18 1 -3 8 -7 6 -11 -5 -3 -9 -2 -17 3 -17 6 0 10 -14 10 -31 0 -20 -4 -28
-12 -23 -7 4 -8 3 -4 -4 12 -20 23 -14 63 39 87 117 98 153 19 66z"/>
<path d="M7453 4941 c-1 -14 3 -18 13 -14 16 6 14 25 -2 30 -5 2 -10 -6 -11
-16z"/>
<path d="M7260 4905 c0 -8 4 -15 8 -15 5 0 9 7 9 15 0 8 -4 15 -9 15 -4 0 -8
-7 -8 -15z"/>
<path d="M7308 4843 c7 -3 16 -2 19 1 4 3 -2 6 -13 5 -11 0 -14 -3 -6 -6z"/>
<path d="M7341 4828 c-1 -10 -6 -18 -12 -18 -5 0 -7 5 -4 10 3 6 2 10 -3 10
-5 0 -9 -11 -9 -24 0 -24 0 -24 19 -6 11 10 18 24 15 32 -4 9 -6 7 -6 -4z"/>
<path d="M7340 4769 c0 -11 5 -17 10 -14 6 3 10 13 10 21 0 8 -4 14 -10 14 -5
0 -10 -9 -10 -21z"/>
<path d="M7360 4743 c0 -7 -7 -10 -15 -7 -10 4 -15 0 -15 -13 0 -10 -4 -23
-10 -29 -6 -6 0 -10 18 -9 19 0 26 -4 23 -15 -7 -33 -8 -60 -1 -60 7 0 10 -17
11 -58 1 -16 5 -22 16 -18 8 3 20 6 26 6 7 0 6 4 -3 10 -10 7 -11 10 -2 10 15
0 6 49 -12 65 -6 6 -12 29 -13 53 -2 38 -22 95 -23 65z m5 -33 c-3 -5 -10 -10
-16 -10 -5 0 -9 5 -9 10 0 6 7 10 16 10 8 0 12 -4 9 -10z"/>
<path d="M7322 4600 c0 -14 2 -19 5 -12 2 6 2 18 0 25 -3 6 -5 1 -5 -13z"/>
<path d="M7330 4558 c0 -4 9 -8 20 -8 11 0 20 4 20 8 0 4 -9 8 -20 8 -11 0
-20 -4 -20 -8z"/>
<path d="M7378 4516 c-13 -10 -15 -15 -6 -24 9 -9 9 -12 0 -12 -6 0 -16 8 -21
18 -6 9 -11 12 -11 6 0 -18 26 -35 42 -29 12 5 14 0 10 -21 -3 -19 -1 -25 7
-20 6 4 11 14 11 22 0 8 4 14 9 14 12 0 22 -29 15 -43 -5 -8 -3 -9 4 -2 7 6 8
22 2 45 -4 19 -8 29 -9 23 -2 -23 -30 -13 -33 11 -3 21 -5 23 -20 12z"/>
<path d="M7410 4514 c0 -8 5 -12 10 -9 6 3 10 10 10 16 0 5 -4 9 -10 9 -5 0
-10 -7 -10 -16z"/>
<path d="M7350 4441 c0 -6 4 -12 8 -15 5 -3 9 1 9 9 0 8 -4 15 -9 15 -4 0 -8
-4 -8 -9z"/>
<path d="M7427 4391 c-3 -13 1 -21 12 -24 14 -4 14 -5 0 -6 -12 -1 -16 -11
-15 -41 1 -22 4 -40 9 -40 4 0 7 5 7 11 0 6 7 17 15 26 10 10 13 23 9 37 -4
11 -7 29 -6 39 1 23 -24 22 -31 -2z"/>
<path d="M7380 4335 c0 -8 4 -15 10 -15 5 0 7 7 4 15 -4 8 -8 15 -10 15 -2 0
-4 -7 -4 -15z"/>
<path d="M7426 4217 c3 -10 9 -15 12 -12 3 3 0 11 -7 18 -10 9 -11 8 -5 -6z"/>
<path d="M5565 8215 c-11 -9 -19 -22 -18 -28 2 -7 -12 -27 -30 -44 -32 -29
-69 -107 -98 -201 -7 -24 -17 -46 -22 -49 -5 -3 -6 4 -2 18 5 18 4 21 -4 9 -6
-8 -9 -22 -6 -30 2 -8 -1 -22 -8 -30 -15 -20 -85 -41 -93 -29 -3 5 -2 8 3 7
13 -3 83 23 83 31 0 18 -15 20 -32 4 -10 -9 -18 -13 -18 -8 0 4 -7 2 -15 -5
-18 -15 -30 -7 -22 14 4 9 13 13 22 10 8 -3 15 -1 15 6 0 6 -5 8 -11 4 -12 -7
-8 19 8 63 6 15 4 16 -8 6 -13 -11 -15 -8 -11 17 2 17 12 32 23 35 20 7 26 30
10 39 -13 9 -86 -104 -111 -171 -21 -56 -52 -185 -45 -191 2 -2 8 13 15 32 6
20 16 36 21 36 16 0 9 -58 -12 -99 -18 -35 -20 -53 -16 -133 3 -51 3 -87 0
-80 -6 17 -20 15 -27 -4 -3 -8 -2 -12 4 -9 6 3 10 1 10 -4 0 -6 -7 -11 -15
-11 -10 0 -15 -9 -14 -27 2 -24 2 -25 6 -5 2 12 9 22 14 22 6 0 7 -4 4 -10 -3
-5 2 -10 12 -11 14 0 15 -2 3 -6 -8 -3 -18 -10 -21 -16 -10 -15 -29 1 -29 24
0 11 -4 18 -9 15 -4 -3 -7 -22 -5 -43 2 -25 0 -32 -7 -23 -5 8 -9 25 -9 38 0
22 -1 22 -25 6 -20 -13 -24 -23 -22 -54 1 -21 8 -44 15 -52 6 -8 14 -35 17
-59 13 -110 17 -133 31 -177 9 -26 19 -49 21 -52 3 -3 3 42 1 98 -4 81 -2 105
8 109 8 3 14 15 14 27 0 17 2 18 10 6 8 -13 10 -12 10 3 0 9 -4 17 -10 17 -5
0 -10 8 -10 18 0 14 2 15 10 2 5 -8 12 -11 16 -8 3 4 -3 19 -15 34 -11 15 -21
34 -20 43 0 9 5 4 11 -11 5 -16 14 -28 19 -28 12 0 11 12 0 43 -7 19 -6 27 3
30 9 4 12 15 8 33 -3 19 -1 25 7 20 6 -4 11 -19 11 -34 0 -21 3 -23 10 -12 5
8 11 12 13 10 12 -16 36 -79 35 -96 0 -10 4 -47 9 -82 7 -47 17 -70 36 -90 20
-20 27 -23 32 -11 4 10 18 13 50 11 l44 -4 -10 37 c-12 42 -4 59 16 31 8 -10
18 -15 24 -12 6 4 19 2 30 -4 15 -8 28 -5 58 12 21 12 40 25 43 28 3 3 32 23
66 43 33 20 76 50 95 66 18 16 35 28 37 27 5 -6 -39 -160 -50 -173 -8 -10 -6
-13 6 -13 9 0 26 16 37 35 27 46 31 44 14 -5 -11 -30 -11 -39 -2 -33 15 9 37
13 37 6 0 -22 -39 -76 -71 -98 -23 -16 -36 -32 -32 -39 6 -9 7 -98 1 -166 -1
-8 0 -26 1 -40 l2 -25 9 23 c5 12 14 22 20 22 5 0 10 7 10 15 0 8 6 12 14 9 9
-3 16 5 21 23 5 15 10 34 12 41 8 31 12 48 12 65 1 11 6 15 13 11 8 -5 10 3 6
27 -11 65 24 206 67 279 33 54 43 98 45 190 1 44 1 45 15 20 8 -14 14 -20 15
-13 0 7 7 10 15 7 11 -5 14 0 12 22 -4 30 -7 40 -39 111 -20 46 -51 73 -83 71
-11 0 -28 3 -37 7 -21 8 -23 -8 -9 -65 5 -23 3 -53 -5 -85 -7 -28 -13 -69 -14
-92 0 -24 -4 -43 -10 -43 -5 0 -10 -5 -10 -10 0 -11 -8 -23 -50 -70 -27 -30
-139 -92 -152 -84 -4 3 -8 1 -8 -4 0 -5 -6 -9 -12 -10 -7 0 -29 -4 -49 -7 -49
-10 -139 17 -172 51 -36 36 -34 44 11 44 54 0 112 11 112 21 0 5 -7 9 -16 9
-8 0 -12 5 -9 10 3 6 -1 10 -9 10 -9 0 -16 7 -16 15 0 19 16 19 69 0 42 -15
60 -2 19 14 -13 5 -32 18 -42 30 -11 11 -27 21 -37 21 -10 0 -21 5 -24 10 -11
18 -64 11 -82 -10 -17 -20 -42 -27 -44 -12 -1 4 -3 18 -4 32 -2 14 -9 45 -15
70 -23 91 -20 110 20 117 21 5 63 11 74 12 4 1 6 8 2 16 -6 16 19 21 29 6 7
-12 -30 -107 -55 -139 -30 -37 -26 -62 9 -62 48 0 91 12 84 23 -4 7 0 8 13 3
10 -5 27 -11 37 -14 17 -4 18 -3 6 17 -8 11 -19 21 -26 21 -25 0 -61 23 -66
41 -3 11 6 42 19 69 13 28 30 68 37 89 12 34 12 39 -4 49 -16 11 -34 65 -33
102 3 64 6 79 24 98 11 12 20 27 20 33 0 7 6 5 13 -6 8 -10 19 -15 25 -11 14
9 16 -6 3 -19 -5 -6 -16 -35 -25 -65 -16 -53 -16 -55 6 -84 14 -20 18 -31 10
-34 -15 -5 44 -63 60 -59 6 1 13 -5 15 -13 4 -13 3 -13 -7 0 -9 12 -10 8 -6
-19 7 -41 22 -61 45 -60 12 0 12 2 -4 9 -13 6 8 8 60 5 44 -3 75 -2 69 2 -6 5
-14 17 -18 28 -4 12 -10 15 -14 8 -5 -8 -15 -7 -37 2 -16 7 -23 14 -15 15 8 0
2 7 -15 15 -16 7 -24 14 -17 14 10 1 10 6 2 21 -6 11 -16 20 -23 19 -28 -5
-67 14 -67 32 0 10 -6 18 -12 17 -21 -5 -18 71 5 130 20 52 40 72 30 30 -6
-23 -6 -23 14 1 39 48 50 37 45 -47 -6 -106 12 -177 49 -192 46 -20 55 -7 22
30 -35 42 -53 88 -53 143 0 29 3 38 14 34 8 -3 16 2 19 14 3 10 11 19 17 19 7
0 10 -7 6 -15 -10 -26 3 -16 19 15 8 16 15 39 15 51 0 50 11 6 22 -88 1 -7 7
-13 14 -13 7 0 10 8 7 20 -9 34 12 22 26 -15 7 -19 16 -33 21 -30 5 3 6 15 0
29 -4 12 -5 28 -1 35 6 8 14 -2 25 -29 9 -24 18 -41 21 -39 2 2 6 26 9 53 5
47 16 76 16 43 0 -9 5 -17 10 -17 6 0 10 5 10 10 0 6 5 10 10 10 6 0 10 -6 10
-14 0 -8 7 -16 15 -20 23 -8 12 38 -20 86 -14 21 -23 44 -19 50 5 8 2 9 -9 5
-10 -3 -17 -2 -17 3 0 6 5 10 11 10 28 0 -6 18 -53 28 -83 18 -108 22 -183 28
-55 4 -74 1 -90 -11z m23 -19 c-7 -8 -17 -12 -22 -9 -4 3 -2 9 5 14 22 13 31
11 17 -5z m-267 -169 c-10 -9 -11 -8 -5 6 3 10 9 15 12 12 3 -3 0 -11 -7 -18z
m-41 -122 c-7 -14 -15 -23 -17 -21 -3 2 0 14 7 25 6 12 8 27 4 34 -5 9 -4 9 6
0 11 -11 11 -17 0 -38z m-35 -91 c-24 -36 -28 -24 -8 22 12 28 18 34 21 21 2
-10 -4 -29 -13 -43z m185 -389 c10 -13 9 -15 -8 -15 -15 0 -20 5 -16 15 4 8 7
15 9 15 1 0 8 -7 15 -15z"/>
<path d="M5510 8180 c0 -5 5 -10 11 -10 5 0 7 5 4 10 -3 6 -8 10 -11 10 -2 0
-4 -4 -4 -10z"/>
<path d="M5417 8121 c-20 -22 -46 -60 -58 -84 -16 -32 -27 -44 -38 -40 -12 4
-11 2 3 -9 17 -14 17 -16 2 -46 -9 -18 -13 -32 -8 -32 5 0 21 29 37 65 15 36
31 65 36 65 13 0 11 -13 -5 -35 -7 -11 -17 -36 -21 -55 -4 -19 -13 -39 -19
-43 -7 -6 -6 -7 3 -5 18 5 25 19 44 82 16 51 13 81 -6 69 -7 -4 4 13 24 37 62
78 66 95 6 31z"/>
<path d="M5960 8091 c0 -5 7 -15 17 -22 15 -13 15 -12 4 9 -12 23 -21 28 -21
13z"/>
<path d="M5476 8014 c-4 -10 -1 -14 6 -12 15 5 23 28 10 28 -5 0 -13 -7 -16
-16z"/>
<path d="M5786 7747 c3 -10 9 -15 12 -12 3 3 0 11 -7 18 -10 9 -11 8 -5 -6z"/>
<path d="M5810 7726 c0 -2 7 -9 15 -16 13 -11 14 -10 9 4 -5 14 -24 23 -24 12z"/>
<path d="M5881 7094 c0 -11 3 -14 6 -6 3 7 2 16 -1 19 -3 4 -6 -2 -5 -13z"/>
<path d="M5360 7046 c0 -2 8 -10 18 -17 15 -13 16 -12 3 4 -13 16 -21 21 -21
13z"/>
<path d="M4726 6973 c-10 -37 -24 -93 -32 -123 -9 -34 -12 -65 -7 -81 4 -14
42 -55 83 -90 72 -62 76 -60 19 8 -47 56 -68 177 -49 284 15 84 6 85 -14 2z"/>
<path d="M5894 6990 c3 -19 11 -39 16 -44 5 -5 5 8 -1 30 -14 50 -24 60 -15
14z"/>
<path d="M5850 6971 c0 -11 4 -22 8 -25 16 -9 3 -100 -32 -226 -19 -69 -49
-181 -67 -250 -17 -69 -37 -134 -43 -145 -16 -30 -35 -106 -36 -141 0 -38 26
-42 34 -5 4 14 16 56 28 92 l21 65 44 -10 c29 -6 47 -6 54 1 6 6 -4 10 -33 11
-59 3 -65 12 -45 74 16 53 68 272 89 381 6 31 15 57 20 57 10 0 10 -8 -2 -49
-11 -40 -5 -56 8 -20 17 45 24 -86 12 -220 -14 -163 -34 -281 -69 -411 -16
-58 -33 -125 -37 -150 -12 -59 -37 -72 -148 -79 -5 -1 -2 -9 7 -19 10 -10 17
-25 17 -33 0 -12 -2 -11 -10 1 -8 12 -10 10 -10 -8 0 -15 4 -21 12 -16 7 4 8
3 4 -5 -4 -6 -12 -9 -17 -6 -5 4 -9 -1 -9 -9 0 -9 7 -16 16 -16 8 0 12 -5 8
-11 -3 -6 -15 -9 -25 -6 -11 3 -19 2 -19 -2 0 -9 -63 -7 -78 3 -17 10 -15 26
3 20 20 -8 19 3 -2 24 -16 16 -14 17 22 20 38 3 38 4 14 17 -37 21 -73 38 -84
39 -5 1 -12 12 -16 26 -6 26 -8 24 -24 -26 -3 -9 -10 -12 -17 -8 -9 6 -9 9 0
12 17 5 -12 59 -36 66 -11 4 -39 -3 -63 -14 -46 -21 -94 -27 -84 -10 3 5 -3
15 -15 22 -11 7 -20 18 -20 24 0 6 -10 19 -22 27 -20 14 -21 16 -5 16 14 1 17
6 12 24 -6 21 -6 21 9 3 22 -27 29 -15 9 13 -10 15 -18 19 -23 12 -9 -15 -40
-3 -34 12 2 7 -10 19 -28 27 -20 8 -27 16 -18 17 12 3 15 17 13 61 -1 31 -2
67 -3 80 0 12 -5 22 -11 22 -6 0 -9 -6 -6 -14 3 -8 1 -16 -4 -18 -12 -4 -40
-318 -31 -352 2 -11 18 -33 33 -48 16 -15 29 -35 29 -44 0 -10 14 -32 30 -48
17 -17 45 -47 63 -66 75 -78 166 -130 228 -130 15 0 37 -8 50 -18 35 -27 82
-49 147 -67 31 -9 63 -22 69 -27 10 -8 31 5 80 48 36 32 68 66 70 75 3 9 39
32 81 52 42 20 71 37 65 37 -7 0 -13 5 -13 11 0 7 -7 17 -17 24 -9 7 -13 17
-9 23 8 14 71 32 109 32 35 0 34 7 -5 47 l-32 33 18 55 c9 31 26 61 37 68 19
12 26 47 12 61 -5 4 -9 12 -9 17 -1 5 -2 14 -3 19 0 6 -7 10 -15 10 -17 0 -29
31 -21 53 4 8 2 32 -4 53 -5 22 -11 57 -12 79 -2 22 -12 53 -23 69 -11 17 -22
52 -24 82 l-4 53 36 -6 c42 -7 49 12 15 43 -21 19 -21 18 -40 -5 -10 -13 -19
-19 -19 -13 0 6 7 17 15 26 8 8 15 21 15 28 0 10 -3 9 -10 -2 -16 -24 -12 -5
10 51 12 31 17 55 11 58 -5 3 -11 17 -13 31 -3 21 -6 18 -18 -20 -15 -49 -36
-82 -26 -40 3 14 3 19 0 13 -8 -18 -31 -16 -31 2 0 8 4 12 9 9 8 -5 11 18 9
71 -3 73 -15 109 -45 144 -36 42 -54 69 -62 94 -8 23 -24 22 -24 -2z m71 -98
c13 -16 12 -17 -3 -4 -10 7 -18 15 -18 17 0 8 8 3 21 -13z m-503 -940 c1 -26
-1 -33 -7 -24 -7 11 -10 9 -14 -10 -3 -20 -5 -18 -6 8 -1 34 7 63 18 63 4 0 8
-17 9 -37z m92 -75 c14 -11 20 -17 14 -14 -14 7 -27 -21 -14 -29 5 -3 7 -12 4
-20 -6 -15 -30 -10 -56 13 -23 19 -24 39 -1 21 15 -13 15 -12 5 7 -6 12 -8 24
-5 28 3 3 1 6 -5 6 -7 0 -12 4 -12 9 0 14 43 1 70 -21z m-106 -29 c24 -35 10
-51 -40 -44 -25 3 -57 11 -72 17 l-27 11 38 10 c20 6 37 14 37 19 0 17 50 7
64 -13z m51 -29 c3 -5 2 -10 -4 -10 -5 0 -13 5 -16 10 -3 6 -2 10 4 10 5 0 13
-4 16 -10z"/>
<path d="M5980 6914 c0 -17 6 -39 14 -50 13 -17 14 -14 5 26 -12 55 -19 63
-19 24z"/>
<path d="M5680 6875 c-7 -9 -11 -18 -8 -20 3 -3 11 1 18 10 7 9 11 18 8 20 -3
3 -11 -1 -18 -10z"/>
<path d="M5836 6855 c4 -8 8 -15 10 -15 2 0 4 7 4 15 0 8 -4 15 -10 15 -5 0
-7 -7 -4 -15z"/>
<path d="M5783 6826 c-6 -8 -8 -19 -3 -27 6 -8 4 -16 -3 -21 -6 -4 -8 -10 -4
-15 11 -10 27 17 27 47 0 20 2 22 11 10 9 -12 10 -12 7 -1 -6 20 -21 23 -35 7z"/>
<path d="M1070 6810 c20 -13 43 -13 35 0 -3 6 -16 10 -28 10 -18 0 -19 -2 -7
-10z"/>
<path d="M4980 6747 c0 -2 14 -16 31 -33 26 -24 30 -25 20 -7 -10 19 -51 51
-51 40z"/>
<path d="M5767 6705 c-3 -11 -8 -42 -12 -70 -3 -27 -8 -63 -12 -80 -3 -16 -2
-27 1 -24 13 13 42 156 36 175 -7 18 -7 18 -13 -1z"/>
<path d="M4650 6647 c0 -40 45 -151 83 -204 37 -53 54 -57 25 -6 -12 20 -33
81 -47 136 -20 76 -30 101 -43 103 -14 2 -18 -5 -18 -29z"/>
<path d="M5116 6665 c4 -11 2 -14 -9 -10 -9 4 -17 -2 -21 -17 -11 -44 -6 -49
19 -20 27 32 31 47 15 57 -6 3 -7 -1 -4 -10z"/>
<path d="M5040 6634 c0 -6 7 -19 15 -30 8 -10 14 -14 14 -9 0 6 -6 19 -14 29
-8 11 -15 15 -15 10z"/>
<path d="M2631 6535 c-1 -11 -4 -31 -7 -45 -5 -22 -4 -23 6 -7 6 10 9 30 7 45
-3 18 -5 20 -6 7z"/>
<path d="M5721 6471 c-6 -30 -10 -56 -8 -58 7 -6 29 85 25 99 -3 7 -10 -11
-17 -41z"/>
<path d="M941 6484 c0 -11 3 -14 6 -6 3 7 2 16 -1 19 -3 4 -6 -2 -5 -13z"/>
<path d="M2276 6355 c4 -8 8 -15 10 -15 2 0 4 7 4 15 0 8 -4 15 -10 15 -5 0
-7 -7 -4 -15z"/>
<path d="M5660 6285 c-8 -9 -8 -15 -2 -15 12 0 26 19 19 26 -2 2 -10 -2 -17
-11z"/>
<path d="M5540 6245 c0 -8 2 -15 4 -15 2 0 6 7 10 15 3 8 1 15 -4 15 -6 0 -10
-7 -10 -15z"/>
<path d="M5613 6225 c-3 -9 -3 -18 -1 -21 3 -3 8 4 11 16 6 23 -1 27 -10 5z"/>
<path d="M2542 6210 c0 -14 2 -19 5 -12 2 6 2 18 0 25 -3 6 -5 1 -5 -13z"/>
<path d="M5576 6202 c-3 -5 -16 -7 -28 -5 -13 2 -41 -3 -62 -12 -39 -17 -39
-17 -15 -29 19 -9 30 -8 58 6 20 10 41 18 48 18 16 0 26 17 14 24 -5 4 -12 2
-15 -2z"/>
<path d="M1798 6193 c7 -3 16 -2 19 1 4 3 -2 6 -13 5 -11 0 -14 -3 -6 -6z"/>
<path d="M6126 6181 c-4 -7 -5 -15 -2 -18 9 -9 19 4 14 18 -4 11 -6 11 -12 0z"/>
<path d="M4711 6154 c0 -11 3 -14 6 -6 3 7 2 16 -1 19 -3 4 -6 -2 -5 -13z"/>
<path d="M5298 6038 c2 -34 5 -64 7 -66 2 -3 12 -1 22 3 10 4 13 9 7 11 -7 3
-9 25 -6 59 4 49 2 55 -14 55 -17 0 -19 -7 -16 -62z"/>
<path d="M5474 6046 c-13 -41 -4 -55 48 -79 45 -21 75 -22 31 -1 -18 9 -36 29
-43 47 -7 18 -15 40 -18 50 -6 14 -9 10 -18 -17z"/>
<path d="M1702 6040 c0 -14 2 -19 5 -12 2 6 2 18 0 25 -3 6 -5 1 -5 -13z"/>
<path d="M4805 6020 c-10 -16 -9 -70 2 -81 5 -5 23 -12 39 -14 27 -5 28 -4 10
10 -10 8 -22 16 -26 17 -4 2 -11 14 -15 27 -5 16 -4 21 4 17 6 -4 11 -1 11 8
0 19 -17 30 -25 16z"/>
<path d="M5700 6016 c0 -2 8 -10 18 -17 15 -13 16 -12 3 4 -13 16 -21 21 -21
13z"/>
<path d="M5408 6003 c7 -3 16 -2 19 1 4 3 -2 6 -13 5 -11 0 -14 -3 -6 -6z"/>
<path d="M6112 5965 c-7 -14 -12 -34 -12 -44 0 -18 3 -18 47 -5 25 8 58 14 72
14 36 0 9 17 -41 25 -23 4 -38 12 -38 21 0 23 -16 16 -28 -11z"/>
<path d="M1793 5936 c9 -26 15 -32 31 -28 12 3 15 7 8 10 -7 2 -17 15 -22 28
-14 37 -28 28 -17 -10z"/>
<path d="M5595 5950 c3 -5 14 -10 23 -10 15 0 15 2 2 10 -20 13 -33 13 -25 0z"/>
<path d="M6256 5935 c4 -8 18 -15 33 -14 14 0 20 3 13 6 -6 2 -10 9 -6 14 3 5
-6 9 -20 9 -18 0 -24 -4 -20 -15z"/>
<path d="M5570 5901 c0 -6 4 -13 10 -16 6 -3 7 1 4 9 -7 18 -14 21 -14 7z"/>
<path d="M5623 5866 c7 -15 16 -21 21 -16 6 6 4 15 -4 25 -19 23 -29 18 -17
-9z"/>
<path d="M1800 5849 c0 -5 5 -7 10 -4 6 3 10 8 10 11 0 2 -4 4 -10 4 -5 0 -10
-5 -10 -11z"/>
<path d="M1705 5785 c-9 -13 -25 -14 -110 -7 -55 5 -104 6 -108 2 -5 -4 4 -27
20 -50 15 -23 40 -63 54 -88 14 -25 31 -48 36 -49 6 -2 21 11 34 29 12 18 45
56 72 85 51 52 51 52 26 62 l-24 9 25 10 c21 9 22 11 5 11 -11 1 -25 -6 -30
-14z"/>
<path d="M2385 5744 c-21 -30 -59 -74 -85 -97 -67 -61 -231 -184 -331 -250
-109 -72 -209 -184 -209 -237 0 -25 0 -24 -19 7 -16 26 -28 33 -66 39 -92 13
-185 -9 -317 -77 -42 -21 -44 -19 -39 44 1 15 -5 51 -13 80 -12 41 -27 62 -72
102 -39 35 -65 69 -86 115 -17 36 -36 68 -42 72 -6 4 -12 18 -12 30 -3 47 -13
99 -23 116 -8 12 -9 0 -5 -43 l5 -60 -66 -53 c-37 -30 -74 -67 -83 -84 -10
-16 -50 -62 -90 -101 -91 -89 -129 -156 -181 -320 l-40 -128 51 -207 c51 -206
52 -209 186 -492 230 -487 312 -670 312 -695 0 -26 34 -135 70 -225 69 -172
73 -184 78 -287 5 -109 2 -125 -50 -293 -16 -52 -32 -126 -34 -165 l-6 -70 52
-63 c49 -61 51 -67 60 -145 9 -77 12 -84 47 -116 113 -100 189 -117 276 -61
64 40 103 99 133 199 14 47 30 97 37 111 14 32 14 32 16 116 l1 70 80 83 c44
46 101 110 127 144 27 33 59 72 73 86 14 14 38 42 52 61 l26 35 -124 129
c-106 111 -124 134 -124 162 0 17 -7 37 -15 44 -13 11 -10 15 22 30 50 22 63
52 74 175 9 96 42 212 63 227 6 4 7 8 2 8 -6 0 2 12 16 28 54 56 71 115 117
412 76 482 115 715 120 720 4 3 14 17 24 32 10 16 21 27 25 26 4 -1 23 5 42
14 63 27 90 30 97 11 4 -11 14 9 28 58 11 41 25 73 30 71 10 -3 10 -11 -1
-145 -6 -74 -5 -79 22 -119 16 -24 53 -90 81 -148 29 -58 51 -91 48 -75 -3 17
-8 57 -11 90 -6 57 -5 59 11 43 21 -20 36 -186 15 -173 -6 4 -1 -15 13 -41 13
-27 61 -143 108 -257 46 -115 93 -219 104 -231 11 -12 33 -41 49 -64 16 -23
29 -42 30 -42 1 0 -1 26 -4 57 -3 34 -10 57 -18 59 -7 1 -8 0 -2 -3 5 -2 10
-9 10 -14 0 -17 -18 0 -34 33 -9 17 -16 39 -16 50 0 10 -4 18 -10 18 -5 0 -10
-5 -10 -12 0 -31 -14 10 -31 89 -10 48 -21 99 -25 113 -10 39 10 15 54 -65 21
-38 69 -119 105 -179 37 -60 67 -111 67 -113 0 -3 -12 2 -26 12 -14 9 -28 14
-31 12 -2 -3 7 -13 20 -22 33 -21 40 -41 21 -59 -13 -13 -12 -16 5 -26 13 -7
22 -7 26 0 10 16 45 -7 39 -25 -4 -8 -1 -15 5 -15 6 0 11 11 11 25 0 18 -5 25
-20 25 -18 0 -20 6 -19 57 1 43 4 52 10 35 12 -31 20 -27 17 8 -1 17 -5 30 -9
30 -4 0 -14 12 -22 28 -22 43 -67 121 -108 188 -44 72 -71 124 -65 124 5 0 93
-140 119 -190 48 -90 79 -140 87 -140 4 0 11 -18 15 -40 5 -29 12 -40 25 -40
38 0 44 24 23 105 l-5 20 16 -20 c14 -19 15 -19 16 -2 0 10 -15 37 -34 60 -18
23 -66 101 -106 172 -40 72 -103 184 -140 250 -178 319 -258 515 -281 697 -8
62 -8 95 -1 117 14 40 4 39 -38 -4 -32 -33 -35 -41 -38 -108 -3 -71 17 -170
53 -262 4 -11 18 -46 30 -77 13 -32 20 -58 16 -58 -9 0 -79 180 -97 250 -8 30
-17 86 -21 123 -4 49 -10 67 -19 63 -16 -6 -25 17 -31 78 -2 27 -10 64 -18 84
-8 19 -13 38 -10 42 3 4 -14 24 -38 45 -95 83 -90 75 -84 130 3 27 8 58 12 67
4 11 0 20 -13 27 -17 9 -24 3 -57 -45z m-1125 -489 c11 -13 8 -15 -14 -15 -15
0 -36 -5 -47 -10 -27 -15 -24 4 4 23 28 20 41 21 57 2z m1340 -63 c0 -10 -9
-35 -20 -57 -11 -22 -20 -45 -20 -52 0 -6 -5 -15 -11 -19 -7 -4 -9 0 -6 12 3
11 13 45 22 77 16 55 35 77 35 39z m89 -307 c0 -5 -4 -3 -9 5 -5 8 -9 22 -9
30 0 16 17 -16 18 -35z m132 -121 c16 -37 27 -69 25 -72 -3 -3 -10 6 -15 19
-5 13 -18 45 -30 72 -11 26 -18 47 -15 47 3 0 18 -30 35 -66z m-1111 -94 c0
-12 -28 -25 -36 -17 -9 9 6 27 22 27 8 0 14 -5 14 -10z m-339 -110 l33 -100
37 0 c56 0 178 30 232 57 27 13 51 22 54 19 3 -3 -6 -74 -21 -158 -14 -84 -30
-225 -36 -313 l-10 -159 -48 -78 c-26 -43 -49 -78 -52 -78 -3 0 -17 10 -32 23
-21 18 -51 94 -161 417 l-135 395 26 29 c24 25 54 44 74 45 4 1 21 -44 39 -99z
m1513 74 c3 -8 2 -12 -4 -9 -6 3 -10 10 -10 16 0 14 7 11 14 -7z m-1247 -19
c-7 -16 -37 -21 -37 -5 0 10 32 31 39 25 2 -2 1 -11 -2 -20z m1217 -97 c41
-87 43 -96 50 -173 l6 -60 -19 35 c-10 19 -22 50 -26 69 -4 19 -13 41 -21 48
-23 24 -48 153 -29 153 3 0 21 -33 39 -72z m66 37 c0 -5 -5 -3 -10 5 -5 8 -10
20 -10 25 0 6 5 3 10 -5 5 -8 10 -19 10 -25z m40 -69 c0 -6 -7 -1 -15 10 -8
10 -15 23 -15 28 0 6 7 1 15 -10 8 -10 15 -23 15 -28z m39 -71 c0 -5 -6 -1
-14 9 -8 11 -15 24 -15 30 0 5 7 1 15 -10 8 -10 14 -23 14 -29z m-1446 -2332
c-7 -2 -19 -2 -25 0 -7 3 -2 5 12 5 14 0 19 -2 13 -5z"/>
<path d="M6163 5763 c9 -2 23 -2 30 0 6 3 -1 5 -18 5 -16 0 -22 -2 -12 -5z"/>
<path d="M2793 5444 c-55 -62 -57 -162 -4 -315 85 -249 148 -385 279 -609 43
-74 106 -184 139 -245 35 -65 68 -114 81 -120 12 -5 22 -15 22 -22 0 -7 7 -13
15 -13 8 0 15 -5 15 -11 0 -6 -7 -8 -16 -5 -12 5 -15 2 -9 -11 4 -10 10 -26
12 -36 3 -10 8 -16 12 -15 3 2 18 10 34 17 15 8 27 21 27 30 0 9 -22 43 -48
76 -43 54 -192 312 -192 333 0 5 -17 33 -39 63 -21 30 -72 124 -114 209 -194
400 -240 602 -155 682 l30 28 -28 0 c-21 0 -38 -11 -61 -36z"/>
<path d="M6890 5160 c0 -5 7 -10 16 -10 8 0 12 5 9 10 -3 6 -10 10 -16 10 -5
0 -9 -4 -9 -10z"/>
<path d="M3891 5118 c7 -13 17 -26 23 -30 19 -13 36 -9 30 7 -4 8 -12 15 -19
15 -7 0 -15 7 -19 15 -3 8 -10 15 -16 15 -7 0 -7 -7 1 -22z"/>
<path d="M3840 4978 c-26 -30 -35 -51 -37 -82 l-2 -41 29 59 c16 32 32 62 37
65 12 8 24 41 15 40 -4 0 -23 -19 -42 -41z"/>
<path d="M7061 4804 c0 -11 3 -14 6 -6 3 7 2 16 -1 19 -3 4 -6 -2 -5 -13z"/>
<path d="M7048 4747 c-3 -15 -2 -30 2 -32 12 -7 18 18 10 40 -6 17 -7 16 -12
-8z"/>
<path d="M7085 4710 c3 -5 8 -10 11 -10 2 0 4 5 4 10 0 6 -5 10 -11 10 -5 0
-7 -4 -4 -10z"/>
<path d="M6995 4680 c3 -5 8 -10 11 -10 2 0 4 5 4 10 0 6 -5 10 -11 10 -5 0
-7 -4 -4 -10z"/>
<path d="M7076 4645 c4 -8 10 -15 16 -15 5 0 7 -4 3 -9 -3 -5 -1 -12 5 -16 13
-8 13 11 0 36 -12 22 -32 26 -24 4z"/>
<path d="M3726 4624 c-4 -9 -4 -19 -1 -22 2 -3 7 3 11 12 4 9 4 19 1 22 -2 3
-7 -3 -11 -12z"/>
<path d="M7097 4570 c-3 -13 -1 -18 6 -13 6 4 8 0 4 -10 -3 -10 -5 -17 -3 -17
3 0 13 -3 23 -7 16 -6 16 -5 4 10 -12 15 -9 21 12 18 4 0 7 4 7 9 0 6 -7 10
-16 10 -8 0 -12 5 -9 10 3 6 0 10 -8 10 -8 0 -17 -9 -20 -20z"/>
<path d="M7150 4510 c0 -5 5 -10 10 -10 6 0 10 5 10 10 0 6 -4 10 -10 10 -5 0
-10 -4 -10 -10z"/>
<path d="M7153 4482 c-31 -10 -14 -35 25 -38 26 -2 30 1 28 22 -1 25 -12 28
-53 16z"/>
<path d="M3629 4423 c-13 -16 -12 -17 4 -4 16 13 21 21 13 21 -2 0 -10 -8 -17
-17z"/>
<path d="M7228 4403 c6 -2 18 -2 25 0 6 3 1 5 -13 5 -14 0 -19 -2 -12 -5z"/>
<path d="M3592 4378 c-21 -21 -23 -21 -39 -6 -15 16 -18 14 -35 -35 -17 -47
-21 -107 -16 -202 6 -91 -2 -150 -21 -165 -11 -8 -23 -28 -27 -45 -4 -16 -13
-39 -21 -51 -14 -22 -9 -48 14 -76 24 -27 3 -48 -76 -74 -57 -19 -76 -22 -87
-13 -16 13 -19 -2 -3 -18 7 -7 0 -42 -24 -119 -20 -60 -41 -130 -47 -155 -7
-28 -31 -70 -58 -104 -59 -73 -56 -67 -91 -150 -38 -91 -94 -269 -116 -370
-10 -44 -19 -85 -22 -90 -2 -6 20 -19 49 -30 29 -10 95 -35 146 -56 51 -20 90
-33 86 -28 -3 5 6 9 20 9 14 0 28 -5 32 -11 4 -8 0 -9 -15 -4 -11 3 -21 2 -21
-3 0 -10 72 -23 127 -24 18 0 34 -7 37 -14 3 -9 21 -14 45 -14 22 0 42 -4 45
-8 5 -8 -96 1 -144 13 -14 3 -9 0 10 -8 76 -31 113 -39 148 -33 23 4 32 3 24
-2 -10 -6 -1 -11 29 -16 52 -8 63 -1 18 13 l-34 10 40 -5 40 -5 23 98 c13 54
31 107 40 119 14 16 190 94 214 94 3 0 15 -27 28 -59 29 -80 48 -97 111 -106
42 -6 55 -4 64 9 7 8 14 13 17 10 8 -8 78 28 78 40 0 65 -41 226 -101 397 -62
177 -75 227 -100 384 -15 99 -31 217 -35 263 -4 53 -11 82 -19 82 -14 0 -50
-38 -58 -63 -12 -33 -38 -32 -64 2 -13 17 -28 31 -33 31 -5 0 -28 13 -52 29
-49 33 -192 83 -214 74 -19 -7 -18 17 2 45 8 12 13 26 10 30 -7 12 31 72 46
73 7 1 20 0 28 -1 12 -1 12 1 3 10 -8 9 -9 20 -2 37 5 14 7 29 3 34 -3 5 3 9
13 9 12 0 19 7 19 19 0 15 -3 17 -13 9 -14 -11 -15 -9 -17 117 0 39 5 82 12
98 15 33 13 34 -16 5z m-12 -257 c0 -28 -3 -52 -7 -54 -5 -3 -8 19 -8 49 0 30
3 54 8 54 4 0 7 -22 7 -49z m105 -312 c41 -17 81 -39 90 -49 15 -16 14 -21 -5
-63 -31 -66 -43 -73 -82 -49 -18 11 -61 34 -95 52 -52 26 -62 35 -59 53 3 12
5 28 5 35 1 6 8 12 16 12 8 0 14 3 14 8 -7 41 19 42 116 1z m-65 -224 c0 -8
-4 -15 -10 -15 -5 0 -10 7 -10 15 0 8 5 15 10 15 6 0 10 -7 10 -15z m-37 -60
c-10 -13 -21 -25 -26 -25 -4 0 -5 -11 -1 -25 4 -15 2 -25 -5 -25 -16 0 -6 58
14 80 26 28 39 25 18 -5z m-33 -177 c0 -6 -6 -5 -15 2 -8 7 -15 14 -15 16 0 2
7 1 15 -2 8 -4 15 -11 15 -16z m-70 -200 c0 -19 -2 -20 -10 -8 -13 19 -13 30
0 30 6 0 10 -10 10 -22z m527 -284 c-3 -3 -12 -4 -19 -1 -8 3 -5 6 6 6 11 1
17 -2 13 -5z m-190 -40 c-3 -3 -12 -4 -19 -1 -8 3 -5 6 6 6 11 1 17 -2 13 -5z
m-293 -83 c3 -5 0 -11 -8 -14 -8 -3 -17 1 -20 9 -6 15 19 20 28 5z m-83 -146
c70 -18 133 -44 125 -52 -3 -4 -26 4 -51 16 -42 21 -71 27 -182 36 -24 2 -51
9 -60 14 -25 15 97 5 168 -14z m0 -34 c-11 -7 -4 -11 25 -14 39 -4 38 -4 -8
-5 -26 -1 -49 2 -52 7 -6 10 9 19 34 20 13 1 13 -1 1 -8z"/>
<path d="M7174 4381 c4 -5 1 -12 -4 -14 -6 -3 -5 -4 2 -3 15 3 23 26 8 26 -6
0 -9 -4 -6 -9z"/>
<path d="M7256 4354 c-10 -26 -7 -29 9 -8 13 18 14 18 15 1 0 -10 5 -15 10
-12 8 5 7 11 -1 21 -15 18 -25 18 -33 -2z"/>
<path d="M7215 4310 c-3 -5 -1 -10 4 -10 6 0 11 5 11 10 0 6 -2 10 -4 10 -3 0
-8 -4 -11 -10z"/>
<path d="M7172 4264 c-7 -8 -8 -14 -3 -14 10 0 25 19 20 25 -2 1 -10 -3 -17
-11z"/>
<path d="M7310 4240 c0 -5 5 -10 11 -10 5 0 7 5 4 10 -3 6 -8 10 -11 10 -2 0
-4 -4 -4 -10z"/>
<path d="M7320 4210 c-8 -5 -11 -12 -7 -16 4 -4 13 -2 19 4 15 15 7 24 -12 12z"/>
<path d="M3747 4177 c-3 -7 -1 -20 3 -28 7 -11 10 -10 16 4 4 10 2 23 -3 28
-7 7 -12 6 -16 -4z"/>
<path d="M7320 4140 c0 -5 7 -7 15 -4 8 4 15 8 15 10 0 2 -7 4 -15 4 -8 0 -15
-4 -15 -10z"/>
<path d="M7343 4103 c9 -2 23 -2 30 0 6 3 -1 5 -18 5 -16 0 -22 -2 -12 -5z"/>
<path d="M7327 4083 c-10 -9 -9 -23 1 -23 5 0 9 7 9 15 0 17 -1 18 -10 8z"/>
<path d="M3906 4013 c-6 -14 -5 -15 5 -6 7 7 10 15 7 18 -3 3 -9 -2 -12 -12z"/>
<path d="M3236 3958 c4 -7 16 -19 26 -26 10 -7 16 -17 13 -22 -3 -5 -1 -12 5
-15 7 -4 10 3 8 22 -2 15 -12 33 -23 40 -26 16 -38 16 -29 1z"/>
<path d="M3540 3960 c0 -5 5 -10 10 -10 6 0 10 5 10 10 0 6 -4 10 -10 10 -5 0
-10 -4 -10 -10z"/>
<path d="M3996 3924 c-23 -23 -20 -30 4 -9 11 10 20 20 20 22 0 7 -9 2 -24
-13z"/>
<path d="M8030 3930 c0 -5 9 -10 20 -10 11 0 20 5 20 10 0 6 -9 10 -20 10 -11
0 -20 -4 -20 -10z"/>
<path d="M3307 3899 c4 -13 8 -18 11 -10 2 7 -1 18 -6 23 -8 8 -9 4 -5 -13z"/>
<path d="M3230 3900 c0 -22 16 -43 28 -39 7 3 3 14 -8 29 -13 17 -20 20 -20
10z"/>
<path d="M8060 3880 c0 -5 5 -10 10 -10 6 0 10 5 10 10 0 6 -4 10 -10 10 -5 0
-10 -4 -10 -10z"/>
<path d="M3230 3843 c0 -4 5 -15 10 -23 8 -13 10 -13 10 2 0 9 -4 20 -10 23
-5 3 -10 3 -10 -2z"/>
<path d="M3256 3775 c8 -37 10 -39 17 -23 2 8 -2 23 -10 33 -13 19 -14 18 -7
-10z"/>
<path d="M6302 2755 c0 -16 3 -50 7 -75 6 -33 9 -37 9 -15 0 17 -3 50 -7 75
-6 33 -9 37 -9 15z"/>
<path d="M5916 2644 c-5 -14 -4 -15 9 -4 17 14 19 20 6 20 -5 0 -12 -7 -15
-16z"/>
<path d="M6321 2614 c0 -11 3 -14 6 -6 3 7 2 16 -1 19 -3 4 -6 -2 -5 -13z"/>
<path d="M5345 2590 c-27 -29 -31 -136 -9 -218 l17 -64 81 4 c65 3 104 13 196
47 119 44 180 76 180 92 0 21 -23 104 -31 114 -6 5 -9 5 -9 -3 0 -6 -20 -23
-44 -37 -49 -29 -238 -95 -272 -95 -38 0 -60 83 -31 118 8 10 4 19 -18 38 -34
29 -37 29 -60 4z m408 -88 c-37 -32 -90 -54 -99 -41 -3 5 1 9 9 9 18 0 94 37
102 50 3 5 9 10 13 10 4 -1 -7 -13 -25 -28z m-127 -57 c-10 -8 -23 -12 -29 -8
-11 7 12 23 33 23 12 -1 11 -4 -4 -15z m-56 -14 c0 -5 -10 -11 -22 -14 -22 -6
-22 -6 -4 8 23 17 26 18 26 6z"/>
</g>
</svg>
