<?xml version="1.0" standalone="no"?>
<!DOCTYPE svg PUBLIC "-//W3C//DTD SVG 20010904//EN"
 "http://www.w3.org/TR/2001/REC-SVG-20010904/DTD/svg10.dtd">
<svg version="1.0" xmlns="http://www.w3.org/2000/svg"
 width="720.000000pt" height="1280.000000pt" viewBox="0 0 720.000000 1280.000000"
 preserveAspectRatio="xMidYMid meet">

<g transform="translate(0.000000,1280.000000) scale(0.100000,-0.100000)"
fill="#000000" stroke="none">
<path d="M2389 8900 c-20 -5 -68 -25 -107 -45 -39 -19 -73 -35 -76 -35 -3 0
-35 -14 -71 -30 -37 -17 -70 -28 -75 -25 -4 2 -13 -2 -20 -10 -7 -9 -21 -13
-30 -10 -13 4 -25 -4 -41 -27 -31 -46 -81 -98 -93 -98 -6 0 -32 -25 -59 -55
-35 -40 -50 -66 -57 -102 -13 -70 -35 -108 -90 -154 -45 -38 -66 -76 -61 -107
1 -7 -12 -26 -28 -41 l-31 -29 29 -70 c25 -60 27 -73 15 -83 -7 -6 -20 -9 -28
-6 -13 5 -106 -67 -106 -82 0 -4 14 -15 30 -24 32 -19 41 -47 15 -47 -8 0 -15
-7 -15 -15 0 -8 -13 -35 -29 -61 -16 -25 -27 -52 -24 -61 3 -8 0 -25 -7 -38
-16 -30 -7 -53 25 -65 31 -12 34 -54 5 -70 -12 -6 -20 -21 -20 -35 0 -14 -6
-25 -13 -25 -7 0 -21 -13 -30 -30 -20 -33 -13 -39 14 -14 19 17 49 13 49 -6 0
-6 -11 -15 -25 -20 -19 -7 -26 -19 -31 -51 -8 -47 -20 -55 -107 -64 -47 -5
-61 -11 -74 -32 -17 -25 -16 -26 12 -50 17 -13 40 -26 53 -29 12 -4 22 -11 22
-16 0 -5 12 -7 29 -3 25 5 30 2 40 -27 7 -18 17 -43 22 -56 5 -12 20 -28 35
-34 21 -10 31 -9 59 6 25 14 47 17 80 13 59 -6 69 -16 54 -50 -15 -33 -5 -74
21 -82 11 -3 20 -10 20 -15 0 -18 -43 -31 -125 -40 -45 -5 -103 -17 -126 -28
-24 -11 -66 -27 -94 -37 -64 -23 -136 -77 -173 -129 -17 -23 -55 -67 -85 -99
-36 -37 -63 -76 -75 -110 -31 -83 -141 -289 -169 -319 -15 -16 -21 -28 -15
-28 26 0 9 -22 -53 -71 -59 -46 -78 -69 -57 -69 4 0 43 34 87 76 l80 75 75 0
c41 0 114 2 163 5 48 3 87 2 87 -2 -1 -15 -74 -65 -102 -71 -16 -3 -28 -11
-28 -17 0 -7 -18 -30 -40 -51 -22 -21 -40 -43 -40 -48 0 -26 -69 -102 -128
-140 -37 -24 -78 -56 -91 -71 -26 -28 -51 -34 -51 -13 0 7 16 39 35 71 19 32
35 63 35 69 0 36 94 145 190 220 40 31 28 35 -27 10 -72 -34 -165 -129 -240
-248 -35 -55 -139 -162 -148 -153 -10 10 45 139 79 188 65 92 59 93 -32 8 -37
-35 -60 -55 -53 -45 12 15 11 17 -9 17 -22 0 -59 -35 -60 -57 0 -6 8 -9 20 -6
35 9 22 -15 -15 -27 -47 -16 -71 -49 -100 -142 -40 -127 -48 -206 -34 -338 10
-98 19 -131 56 -218 42 -99 103 -203 137 -231 11 -10 16 -30 16 -72 0 -50 -4
-63 -29 -91 -39 -44 -110 -204 -117 -264 -7 -52 -26 -97 -54 -129 -41 -48 -35
-55 43 -55 l72 0 2 34 c1 26 -2 33 -13 29 -17 -6 -18 9 -1 26 10 10 9 14 -5
22 -10 6 -18 15 -18 20 0 6 5 7 10 4 6 -3 10 5 10 18 0 52 82 82 287 104 136
15 178 15 356 4 264 -16 354 -31 519 -86 76 -25 149 -45 162 -45 17 0 24 -4
20 -14 -3 -8 -16 -12 -37 -10 -18 3 -70 -3 -117 -13 -48 -9 -141 -17 -215 -18
-71 -1 -141 -6 -155 -12 -14 -6 -46 -11 -73 -11 -26 -1 -62 -8 -80 -15 -73
-32 -90 -37 -179 -53 -74 -14 -137 -16 -308 -14 -378 6 -366 7 -388 -13 -21
-19 -25 -44 -52 -280 -6 -53 -23 -130 -36 -170 -50 -146 -63 -195 -85 -332
-18 -104 -23 -171 -20 -260 7 -309 9 -285 -27 -343 l-32 -53 0 -679 c0 -591 2
-680 15 -680 8 0 19 -9 25 -20 6 -11 18 -20 28 -20 15 0 15 2 2 10 -9 6 -10
10 -3 10 6 0 19 -7 27 -16 9 -8 20 -13 25 -10 5 3 25 -10 44 -29 19 -19 44
-35 56 -35 22 0 45 -30 55 -72 7 -31 3 -31 -68 7 -23 12 -53 25 -68 28 -15 4
-43 21 -63 38 -45 40 -45 25 1 -35 36 -47 51 -56 164 -96 36 -12 73 -30 84
-39 24 -21 63 -99 66 -131 4 -43 1 -47 -25 -42 -22 4 -25 1 -25 -27 0 -18 -6
-34 -14 -37 -11 -4 -3 -25 31 -86 109 -198 190 -329 254 -413 65 -84 95 -122
227 -275 28 -33 52 -65 52 -71 0 -5 310 -9 820 -9 l820 0 0 35 c0 58 57 343
112 555 31 124 104 353 121 385 6 11 12 33 13 48 1 23 -2 28 -17 24 -10 -3
-26 1 -36 9 -23 17 -47 18 -40 1 11 -28 -7 -37 -47 -26 -28 8 -46 8 -64 0 -18
-9 -40 -9 -86 0 -33 6 -70 12 -81 14 -11 1 -37 6 -57 10 -26 5 -38 4 -38 -4 0
-6 -9 -11 -20 -11 -21 0 -21 15 1 100 19 73 7 69 -15 -5 -2 -5 -6 -18 -9 -27
-4 -10 -9 -24 -11 -31 -4 -14 -185 -41 -210 -31 -25 10 -18 24 12 24 22 1 24
2 10 10 -25 15 -68 8 -65 -10 2 -13 -15 -15 -117 -14 -88 1 -121 5 -128 15 -7
11 -11 11 -15 2 -6 -15 -73 -18 -73 -3 0 5 -23 8 -55 5 -31 -2 -55 0 -55 6 0
13 -57 12 -65 -2 -6 -9 -91 -7 -210 7 -50 5 -108 24 -116 37 -4 5 -17 11 -30
12 -13 1 -29 3 -36 4 -7 0 -22 11 -33 23 -13 14 -35 23 -57 25 -36 2 -73 23
-41 23 9 0 18 4 20 9 2 5 16 11 33 13 23 2 32 -2 42 -22 l13 -25 0 27 c0 37
10 58 26 58 9 0 14 11 14 29 0 28 1 28 67 35 156 15 163 17 159 39 -4 26 3 23
-131 41 -60 8 -124 18 -142 23 l-31 8 18 23 19 23 233 -10 c128 -6 249 -14
268 -16 19 -3 143 -9 275 -15 132 -6 285 -15 340 -21 55 -5 120 -11 145 -13
25 -1 56 -7 70 -13 14 -6 59 -17 100 -23 41 -7 138 -30 214 -52 77 -21 145
-37 153 -34 9 4 13 26 13 71 0 81 17 124 65 161 56 45 68 75 55 137 -11 50
-10 57 30 167 84 230 95 317 61 473 -32 145 -37 259 -16 330 13 45 15 76 10
141 -7 82 -7 83 21 110 l29 26 -35 -10 c-19 -6 -62 -10 -95 -10 -34 0 -73 -7
-89 -15 -15 -8 -36 -15 -45 -15 -9 0 -25 -7 -35 -15 -11 -8 -30 -15 -42 -15
-13 0 -27 -6 -31 -14 -4 -7 -44 -32 -88 -55 -44 -23 -87 -45 -95 -50 -8 -5
-35 -15 -59 -22 -24 -7 -49 -19 -55 -27 -31 -40 -60 -61 -91 -66 -19 -4 -42
-14 -51 -23 -9 -9 -32 -18 -52 -20 -20 -2 -44 -11 -53 -19 -21 -19 -37 -18
-41 3 -3 15 -6 14 -26 -7 -25 -27 -26 -25 -11 18 7 22 31 45 77 76 37 25 108
81 157 126 50 45 111 96 138 112 49 31 73 61 62 78 -14 23 -192 5 -330 -34
-27 -8 -88 -24 -135 -36 -47 -12 -112 -33 -145 -46 -33 -13 -66 -24 -74 -24
-8 0 -29 -12 -48 -26 -19 -14 -43 -24 -56 -22 -20 3 -19 5 11 21 35 19 40 38
17 57 -19 16 -49 5 -65 -25 -15 -27 -28 -28 -44 -3 -7 12 -6 21 3 32 7 9 108
63 225 121 176 87 229 109 321 131 157 37 165 43 55 41 -52 -1 -113 0 -135 2
-22 2 -78 -4 -125 -12 -99 -18 -216 -31 -280 -32 -37 0 -47 4 -55 23 -5 12
-13 22 -17 22 -6 0 -32 -30 -55 -66 -10 -17 -13 -17 -22 -4 -6 8 -11 21 -11
28 0 17 71 82 90 82 8 0 101 29 207 65 l192 65 140 4 c133 5 181 14 181 36 0
6 -17 10 -37 10 -44 0 -125 21 -168 43 -44 22 -230 48 -299 41 -52 -5 -58 -3
-47 10 10 12 8 17 -9 26 -14 8 -20 18 -17 30 7 28 -23 12 -34 -18 -7 -18 -13
-22 -20 -15 -20 20 -5 48 36 68 35 17 60 20 195 20 182 0 300 -14 419 -51 l86
-27 81 16 c45 9 93 17 107 17 21 0 28 7 37 38 17 52 39 74 67 67 29 -7 47 21
63 100 13 61 15 238 4 256 -14 23 -23 150 -13 177 6 15 15 66 20 114 8 86 26
132 86 225 8 12 21 67 28 123 12 89 20 113 74 223 40 81 79 144 117 187 75 85
116 150 181 287 33 70 59 113 69 113 21 0 93 -38 128 -67 16 -13 54 -37 85
-53 31 -15 70 -42 86 -60 17 -17 46 -41 65 -52 44 -27 93 -71 240 -212 63 -61
130 -122 148 -134 54 -39 45 -76 -57 -227 -66 -98 -121 -188 -121 -199 0 -3 7
-3 15 0 8 4 15 13 15 21 0 8 4 12 9 8 5 -3 15 11 22 30 7 19 17 35 21 35 5 0
21 28 38 61 26 54 56 107 98 174 7 11 15 28 18 38 4 9 10 17 14 17 5 0 14 16
20 35 12 37 77 108 178 193 36 31 62 61 62 73 0 24 -12 24 -80 -1 -67 -25 -80
-25 -80 -2 0 24 81 120 232 276 121 124 127 128 162 124 20 -2 36 -2 36 2 0
24 -405 400 -501 465 -41 28 -99 77 -129 110 -30 33 -78 82 -106 110 -28 27
-63 69 -78 93 -35 56 -100 120 -139 137 -83 36 -206 144 -261 228 -68 106
-114 136 -217 143 -52 3 -99 16 -180 47 -106 43 -109 43 -126 25 -17 -18 -18
-19 -24 -1 -4 10 -2 23 3 30 5 7 5 14 -2 18 -5 3 -10 14 -10 23 1 14 4 13 19
-5 11 -13 21 -23 24 -23 6 0 57 89 57 98 0 3 -9 -3 -19 -12 -23 -21 -40 -3
-20 21 11 13 10 17 -5 29 -23 16 -14 44 14 44 15 0 20 -7 20 -27 0 -18 3 -24
10 -17 16 16 -8 75 -44 108 -19 19 -26 31 -18 34 17 5 15 22 -3 22 -12 0 -13
5 -4 28 6 15 13 38 16 52 5 30 9 34 22 25 7 -4 5 -14 -5 -31 -21 -31 -12 -41
17 -20 18 12 26 13 37 4 11 -10 17 -8 28 7 20 27 18 49 -3 40 -38 -15 -53 -17
-53 -5 0 20 -27 40 -50 38 -33 -4 -43 32 -21 73 33 62 63 172 65 239 2 54 7
74 31 110 34 50 56 63 48 28 -2 -13 -9 -32 -14 -43 -7 -15 -5 -32 7 -60 l16
-40 29 35 c16 19 29 42 29 51 0 26 30 92 51 112 10 10 21 28 23 40 2 12 10 47
16 78 9 42 10 80 1 157 -6 57 -11 129 -11 161 0 71 -25 111 -64 104 -22 -4
-24 -8 -15 -24 6 -13 7 -25 0 -37 -9 -15 -17 -10 -64 41 -29 31 -57 54 -60 50
-4 -3 3 -17 15 -30 12 -13 19 -23 15 -23 -3 0 -21 16 -40 35 -19 19 -38 35
-43 35 -16 0 -114 104 -114 121 0 6 -25 48 -55 94 -56 86 -61 96 -47 94 77
-12 7 62 -87 91 -35 11 -84 20 -109 20 -25 0 -73 11 -106 24 -73 28 -138 37
-187 26z m262 -130 c19 -17 50 -39 69 -50 46 -24 155 -131 204 -200 22 -30 55
-91 73 -134 18 -44 37 -82 42 -85 23 -15 29 -83 10 -107 -5 -6 -8 -76 -7 -155
2 -125 -1 -152 -19 -201 -21 -56 -21 -58 -2 -48 16 9 19 7 19 -9 0 -11 5 -42
12 -70 10 -46 13 -50 35 -45 19 5 23 2 23 -15 0 -23 -19 -28 -39 -8 -10 10
-16 7 -32 -12 -30 -36 -47 -14 -30 37 10 30 11 44 2 61 -7 12 -9 26 -6 31 3 6
1 10 -4 10 -6 0 -11 -5 -11 -10 0 -16 -51 -58 -79 -65 -13 -3 -38 -22 -55 -42
-17 -20 -39 -43 -48 -52 -10 -8 -18 -21 -18 -28 0 -7 -4 -13 -10 -13 -5 0 -9
-10 -7 -22 1 -17 -4 -24 -22 -26 -13 -2 -33 -12 -44 -22 -19 -18 -20 -18 -56
1 -19 10 -41 19 -47 19 -6 0 -17 6 -24 14 -24 30 -41 7 -38 -51 3 -54 2 -56
-32 -75 -50 -28 -166 -20 -218 15 -21 13 -57 30 -82 37 -137 39 -203 75 -229
123 -11 21 -10 29 11 61 12 19 29 36 36 36 18 0 15 27 -5 39 -14 7 -15 12 -4
24 17 21 33 13 54 -26 23 -42 62 -65 151 -88 86 -23 139 -24 156 -4 15 18 5
35 -21 35 -30 0 -199 91 -199 106 0 18 32 18 73 1 18 -8 48 -17 68 -21 19 -3
58 -21 85 -38 82 -54 152 -86 164 -74 11 11 -35 66 -57 66 -7 0 -30 15 -50 33
-40 36 -62 48 -158 92 -57 25 -65 26 -119 16 -48 -9 -62 -8 -79 4 -12 8 -36
15 -54 15 -30 0 -69 29 -109 82 -13 16 -26 97 -25 148 0 44 36 127 59 139 22
12 53 -4 83 -42 22 -29 22 -29 108 -22 47 3 106 6 130 7 42 0 43 1 37 30 l-6
29 30 -18 c27 -16 31 -16 46 -1 35 34 26 128 -18 190 -33 48 -185 85 -265 65
-36 -9 -43 1 -18 27 8 8 15 18 15 23 0 15 155 186 185 205 69 42 124 62 205
73 122 18 124 18 161 -15z m-586 -91 c-4 -5 -13 -9 -22 -9 -13 0 -13 3 -3 15
13 15 35 11 25 -6z m-65 -115 c0 -13 -4 -24 -10 -24 -5 0 -10 14 -10 31 0 17
4 28 10 24 6 -3 10 -17 10 -31z m-200 -119 c0 -8 -4 -15 -9 -15 -13 0 -22 16
-14 24 11 11 23 6 23 -9z m121 -12 c8 -21 7 -28 -6 -35 -8 -5 -15 -16 -15 -24
0 -21 -24 -12 -28 9 -4 20 19 77 31 77 4 0 12 -12 18 -27z m375 -115 c38 -41
-22 -77 -95 -57 -38 11 -41 14 -27 24 14 11 10 13 -25 19 -40 6 -41 7 -26 29
8 12 29 27 48 34 29 9 39 8 72 -10 20 -12 45 -29 53 -39z m-406 -34 c0 -31
-23 -28 -28 4 -2 15 2 22 12 22 11 0 16 -9 16 -26z m-207 -19 c-7 -21 -13 -19
-13 6 0 11 4 18 10 14 5 -3 7 -12 3 -20z m149 -9 c-1 -14 2 -26 7 -26 6 0 15
-10 22 -21 9 -17 7 -29 -6 -59 -13 -29 -14 -42 -6 -58 8 -16 7 -27 -7 -51 -18
-32 -31 -40 -33 -18 -6 84 -10 109 -19 126 -15 29 -12 93 6 119 20 29 40 23
36 -12z m-76 -62 c-5 -13 -46 -21 -46 -9 0 3 7 17 17 31 14 22 17 24 26 9 5
-9 6 -23 3 -31z m-107 -61 c-5 -21 -9 -41 -9 -45 0 -5 -7 -8 -15 -8 -21 0 -20
58 1 81 24 27 33 15 23 -28z m1508 -5 c-3 -7 -5 -2 -5 12 0 14 2 19 5 13 2 -7
2 -19 0 -25z m93 -14 c0 -8 -4 -12 -10 -9 -5 3 -10 10 -10 16 0 5 5 9 10 9 6
0 10 -7 10 -16z m2 -40 c14 -9 9 -34 -7 -34 -9 0 -15 -9 -15 -25 0 -52 -50
-14 -66 50 l-7 28 43 -7 c24 -4 47 -9 52 -12z m-1462 -120 c0 -5 -13 -23 -30
-39 -33 -32 -37 -51 -15 -75 8 -9 12 -25 8 -38 -10 -39 -29 -23 -41 36 -12 56
-12 57 13 80 15 12 25 30 23 40 -1 9 1 23 6 30 6 10 11 9 22 -5 7 -10 14 -23
14 -29z m1363 -17 c22 -33 5 -57 -40 -57 -33 0 -35 1 -28 27 14 56 43 68 68
30z m-1363 -98 c0 -5 -7 -9 -15 -9 -15 0 -20 12 -9 23 8 8 24 -1 24 -14z m9
-206 c6 -21 11 -43 11 -49 0 -5 15 -41 34 -80 47 -94 54 -187 31 -405 -21
-207 -20 -205 -47 -213 -29 -7 -103 -8 -110 -1 -3 3 3 22 13 43 20 39 25 107
9 117 -6 4 -13 -7 -16 -24 -6 -30 -29 -48 -39 -31 -4 6 -3 16 2 23 4 6 6 23 4
35 -2 20 1 23 19 17 21 -7 21 -6 6 17 -11 17 -14 45 -12 115 3 93 10 112 49
141 20 16 23 72 5 103 -10 17 -10 23 0 26 17 6 15 38 -4 53 -12 11 -14 25 -8
69 10 87 36 107 53 44z m-104 -52 c-10 -27 -28 5 -20 36 l7 28 9 -24 c6 -14 7
-31 4 -40z m1250 -123 c-9 -52 -12 -58 -32 -58 -11 0 -13 5 -8 18 5 9 13 32
19 50 16 46 29 40 21 -10z m-1338 -33 c16 -34 16 -36 -4 -56 -29 -30 -43 -16
-43 42 0 60 22 67 47 14z m1143 -15 c0 -5 -5 -10 -11 -10 -5 0 -7 5 -4 10 3 6
8 10 11 10 2 0 4 -4 4 -10z m288 -8 c2 -7 -3 -12 -12 -12 -9 0 -16 7 -16 16 0
17 22 14 28 -4z m-358 -12 c0 -5 -15 -10 -32 -9 -31 1 -32 1 -8 9 35 11 40 11
40 0z m-1190 -56 c0 -14 -4 -22 -10 -19 -5 3 -10 17 -10 31 0 14 4 22 10 19 6
-3 10 -17 10 -31z m60 -33 c0 -5 -7 -14 -15 -21 -12 -10 -15 -10 -15 2 0 8 3
18 7 21 9 10 23 9 23 -2z m1306 -55 c-4 -19 -13 -37 -21 -40 -17 -6 -21 9 -5
19 6 4 8 10 5 15 -7 11 14 54 22 46 3 -3 2 -21 -1 -40z m155 -37 c-12 -15 -21
-37 -21 -47 0 -10 -9 -27 -20 -37 -18 -17 -20 -17 -26 -1 -8 21 39 121 64 135
26 15 28 -16 3 -50z m-1573 19 c-6 -18 -28 -21 -28 -4 0 9 7 16 16 16 9 0 14
-5 12 -12z m99 -51 c7 -23 9 -45 5 -49 -4 -4 -29 7 -56 23 l-48 31 33 28 c39
33 48 28 66 -33z m1253 -61 c0 -16 -18 -31 -27 -22 -8 8 5 36 17 36 5 0 10 -6
10 -14z m222 -28 c-8 -8 -9 -4 -5 13 4 13 8 18 11 10 2 -7 -1 -18 -6 -23z
m-322 -36 c0 -4 -24 -16 -52 -27 -46 -18 -53 -24 -56 -51 -3 -35 -4 -36 -211
-114 -78 -29 -150 -50 -173 -50 l-39 0 65 58 c71 62 174 118 300 163 76 27
166 38 166 21z m220 -11 c0 -12 -31 -43 -37 -37 -7 7 16 46 27 46 6 0 10 -4
10 -9z m140 -26 c-7 -8 -17 -12 -23 -8 -6 4 -3 11 8 19 23 17 32 10 15 -11z
m-352 -8 c2 -10 -3 -17 -12 -17 -18 0 -29 16 -21 31 9 14 29 6 33 -14z m142 4
c0 -13 -29 -35 -37 -28 -7 8 15 37 28 37 5 0 9 -4 9 -9z m-246 -116 c25 -19
36 -19 36 0 0 8 6 15 14 15 44 0 12 -54 -44 -76 -36 -15 -70 -50 -70 -74 0
-15 16 -12 35 6 9 9 19 13 23 9 4 -4 1 -10 -6 -12 -7 -3 -17 -16 -22 -29 -5
-13 -17 -24 -27 -24 -34 -1 -75 -51 -53 -65 17 -10 11 -25 -9 -25 -11 0 -21 8
-24 18 -3 12 -6 8 -11 -13 -4 -16 -9 -35 -11 -40 -3 -12 -209 -96 -307 -126
-191 -58 -303 -83 -460 -99 -122 -12 -158 -6 -158 26 0 20 -5 24 -30 24 -35 0
-40 21 -14 58 8 12 12 22 8 22 -20 0 49 41 78 46 29 5 71 21 183 69 17 8 41
17 55 21 14 4 52 20 85 36 230 113 255 122 361 128 96 6 105 9 215 62 62 31
119 57 124 57 6 0 19 -6 29 -14z m158 -24 c22 -26 31 -58 18 -66 -13 -8 -70
32 -70 49 0 12 19 36 30 36 3 0 13 -9 22 -19z m233 -38 l40 -11 -40 -1 c-40
-1 -85 20 -85 40 0 5 10 4 23 -3 12 -7 40 -18 62 -25z m-255 -63 c0 -26 -36
-46 -56 -29 -29 24 -14 47 34 48 15 1 22 -5 22 -19z m-1090 -631 c36 -5 68
-13 72 -17 4 -4 -4 -22 -18 -40 -22 -28 -32 -32 -72 -33 -26 0 -41 -3 -34 -6
18 -7 15 -21 -15 -59 -24 -32 -30 -35 -73 -33 -25 1 -52 -1 -58 -5 -22 -13
-12 -44 24 -76 l36 -31 -30 -67 c-18 -40 -37 -68 -47 -70 -20 -4 -155 124
-155 147 0 27 69 136 130 206 33 39 65 76 71 83 12 15 82 15 169 1z m-230 -11
c0 -7 -22 -33 -49 -58 -35 -33 -49 -53 -45 -66 3 -14 -11 -30 -58 -64 -35 -25
-81 -61 -103 -82 -37 -34 -46 -37 -123 -43 -85 -8 -104 1 -62 27 11 7 30 33
42 57 12 24 62 83 115 135 101 98 107 101 231 104 34 1 52 -2 52 -10z m490
-19 c47 -6 118 -20 159 -30 41 -10 85 -19 97 -19 33 0 54 -10 54 -26 0 -16 -4
-17 -79 -18 -36 -1 -56 -6 -59 -14 -11 -35 -67 -83 -108 -93 -41 -11 -43 -12
-37 -43 11 -56 21 -65 100 -88 75 -22 99 -42 72 -59 -14 -9 -48 -6 -199 17
-52 8 -99 19 -104 24 -4 4 -24 6 -42 3 -39 -6 -146 14 -170 32 -15 10 -12 17
21 61 21 27 44 65 53 84 8 19 32 59 53 89 21 30 39 62 39 72 0 17 22 27 50 23
8 -2 53 -8 100 -15z m917 -1787 c10 -6 43 -82 43 -99 0 -3 -16 18 -35 47 -19
29 -35 54 -35 56 0 6 14 4 27 -4z m-1407 -94 c0 -29 -2 -31 -15 -17 -9 9 -13
23 -9 32 10 28 24 19 24 -15z m-171 -38 c0 -10 -3 -8 -9 5 -12 27 -12 43 0 25
5 -8 9 -22 9 -30z m191 -26 c0 -8 -4 -12 -10 -9 -5 3 -10 13 -10 21 0 8 5 12
10 9 6 -3 10 -13 10 -21z m43 -114 c3 -11 1 -20 -4 -20 -5 0 -9 2 -9 4 0 2 -3
11 -6 20 -3 9 -2 16 4 16 5 0 12 -9 15 -20z m1183 -60 c-15 -5 -53 -11 -85
-14 l-56 -5 50 13 c28 8 66 14 85 14 35 0 35 0 6 -8z m-173 -27 c-7 -2 -21 -2
-30 0 -10 3 -4 5 12 5 17 0 24 -2 18 -5z m-73 -13 c-14 -4 -36 -8 -50 -8 -23
-1 -23 0 -5 8 11 5 34 8 50 8 29 0 29 0 5 -8z m110 -20 c0 -5 -7 -10 -15 -10
-8 0 -15 5 -15 10 0 6 7 10 15 10 8 0 15 -4 15 -10z m-65 -10 c-3 -5 -10 -10
-16 -10 -5 0 -9 5 -9 10 0 6 7 10 16 10 8 0 12 -4 9 -10z m-911 -56 c3 -8 2
-12 -4 -9 -6 3 -10 10 -10 16 0 14 7 11 14 -7z m942 -53 c-13 -20 -26 -11 -26
16 0 25 1 26 16 11 9 -9 13 -21 10 -27z m-2136 -61 c0 -5 -4 -10 -10 -10 -5 0
-10 5 -10 10 0 6 5 10 10 10 6 0 10 -4 10 -10z m2350 -20 c0 -5 -5 -10 -11
-10 -5 0 -7 5 -4 10 3 6 8 10 11 10 2 0 4 -4 4 -10z m-197 -98 c-7 -48 -22
-64 -18 -20 2 18 3 41 4 51 1 10 5 16 10 12 5 -3 7 -22 4 -43z m-1407 -137
c-19 -54 -19 -58 -6 -50 6 3 10 -4 10 -17 0 -18 -2 -20 -10 -8 -8 12 -10 11
-10 -7 0 -13 5 -23 10 -23 6 0 5 -6 -2 -14 -11 -12 -14 -10 -21 13 -9 31 -2
79 21 135 21 53 28 30 8 -29z m1374 -1164 c-7 -11 -9 -3 -9 29 1 42 1 43 9 16
6 -17 5 -36 0 -45z m20 -57 c0 -8 -4 -14 -10 -14 -5 0 -10 9 -10 21 0 11 5 17
10 14 6 -3 10 -13 10 -21z m-523 -98 c-3 -8 -1 -17 6 -20 13 -5 -17 -9 -45 -7
-12 2 -15 -4 -11 -19 6 -22 -15 -28 -34 -9 -15 15 -5 39 17 39 10 0 23 7 30
15 16 19 44 20 37 1z m63 -48 c0 -5 -7 -8 -15 -8 -8 0 -15 2 -15 4 0 2 -3 12
-6 21 -6 15 -4 15 15 4 11 -8 21 -17 21 -21z m-48 -78 c13 0 16 -8 12 -47 -2
-27 -6 -73 -8 -103 -5 -66 -16 -120 -25 -120 -4 0 -17 7 -30 16 -18 13 -28 14
-48 5 -13 -6 -29 -8 -35 -5 -6 4 -8 -1 -6 -12 2 -12 11 -18 23 -17 91 9 90 9
93 -16 2 -13 -1 -28 -7 -34 -6 -6 -11 -20 -11 -31 0 -10 -11 -34 -25 -52 -14
-18 -25 -39 -25 -47 0 -18 -30 -27 -95 -27 -39 0 -54 5 -65 20 -9 12 -21 18
-32 14 -22 -7 -24 12 -2 20 9 3 14 12 11 19 -10 28 34 60 49 36 3 -5 13 -5 24
1 10 5 44 11 76 12 31 2 56 8 56 13 -2 15 -144 28 -153 13 -6 -9 -14 -9 -34 0
-25 12 -26 15 -19 55 4 23 8 52 9 64 1 21 53 73 73 73 14 0 21 35 10 54 -18
32 -3 44 49 39 54 -6 56 3 4 12 -67 12 -70 30 -5 33 25 1 53 6 62 12 9 5 26 8
37 5 11 -3 27 -5 37 -5z m363 -479 c3 -5 1 -12 -5 -16 -5 -3 -10 1 -10 9 0 18
6 21 15 7z m-1405 -63 c14 -5 36 -23 49 -39 l24 -30 -39 7 c-22 3 -48 17 -60
30 -12 13 -36 31 -55 39 l-34 15 45 -6 c25 -3 56 -10 70 -16z m1385 -27 c3 -5
1 -12 -5 -16 -5 -3 -10 1 -10 9 0 18 6 21 15 7z m-376 -537 c57 -9 89 -24 94
-45 3 -11 14 -19 25 -19 12 0 22 -9 25 -22 8 -28 1 -38 -28 -38 -27 0 -41 -15
-23 -24 7 -3 3 -3 -9 0 -15 3 -25 -1 -32 -14 -5 -10 -27 -30 -48 -45 -46 -32
-119 -35 -129 -5 -6 19 -24 25 -24 8 0 -5 -3 -9 -7 -9 -22 4 -24 -3 -8 -21 16
-17 16 -20 2 -26 -30 -11 -52 1 -57 31 -4 21 -12 31 -28 33 -12 2 -22 -2 -22
-8 0 -15 -46 12 -71 41 -16 18 -17 18 -23 -4 -7 -28 -52 -50 -75 -37 -14 8
-13 11 7 16 13 4 22 14 22 25 0 19 -16 26 -22 10 -1 -5 -19 -12 -39 -16 -35
-6 -36 -6 -32 19 3 16 -2 35 -16 52 -26 33 -28 64 -3 64 11 0 29 9 42 20 21
18 24 18 35 4 10 -14 13 -15 26 -1 9 8 24 17 35 20 24 6 335 -1 383 -9z m360
-31 c8 8 14 9 19 1 9 -13 105 -15 113 -1 8 11 119 -12 119 -25 0 -4 18 -8 40
-8 39 0 40 -1 40 -34 0 -27 -5 -35 -24 -40 -18 -4 -23 -12 -21 -31 2 -14 0
-26 -3 -26 -49 -8 -63 -7 -58 7 6 17 2 18 -22 3 -13 -8 -27 -7 -56 5 -21 9
-51 16 -67 16 -19 0 -30 6 -34 20 -3 11 -12 20 -20 20 -8 0 -11 -7 -8 -20 6
-24 -12 -27 -21 -4 -5 13 -15 15 -51 11 -37 -6 -46 -3 -55 13 -14 27 -13 30
13 30 16 0 26 11 40 43 16 38 19 40 31 25 10 -14 15 -15 25 -5z m-219 -15 c0
-4 -7 -8 -15 -8 -8 0 -15 4 -15 8 0 5 7 9 15 9 8 0 15 -4 15 -9z m87 -44 c-3
-3 -12 -4 -19 -1 -8 3 -5 6 6 6 11 1 17 -2 13 -5z m-462 -144 c-3 -5 -12 -7
-20 -3 -21 7 -19 13 6 13 11 0 18 -4 14 -10z m-15 -44 c0 -2 -7 -6 -15 -10 -8
-3 -15 -1 -15 4 0 6 7 10 15 10 8 0 15 -2 15 -4z"/>
<path d="M2625 8320 c-47 -21 -76 -55 -82 -98 -5 -36 -2 -46 16 -63 15 -14 19
-27 15 -43 -4 -19 2 -29 29 -50 18 -14 39 -26 45 -26 7 0 12 -4 12 -9 0 -5 17
-12 38 -16 31 -6 34 -9 17 -15 -39 -15 27 -29 108 -23 63 5 80 10 98 30 19 19
21 28 13 51 -5 15 -18 28 -28 30 -16 3 -18 0 -12 -22 7 -30 -13 -36 -34 -11
-7 9 -21 13 -34 9 -14 -3 -28 1 -35 10 -8 9 -18 16 -23 16 -20 0 -99 42 -105
55 -3 8 -11 15 -19 15 -19 0 -17 20 4 48 11 14 36 26 74 34 49 10 62 9 100 -6
78 -33 86 -38 97 -62 15 -33 33 -32 21 1 -14 38 -63 95 -80 95 -9 0 -25 7 -38
15 -50 36 -153 54 -197 35z"/>
<path d="M2242 8023 c-24 -8 -46 -23 -49 -32 -3 -9 -11 -29 -19 -46 -16 -36
-13 -40 74 -85 62 -33 64 -33 92 -16 27 15 32 15 59 1 69 -35 108 -6 78 58
-23 48 -61 77 -103 77 -26 0 -42 8 -62 29 -27 28 -27 28 -70 14z"/>
<path d="M2735 7550 c3 -5 10 -10 16 -10 5 0 9 5 9 10 0 6 -7 10 -16 10 -8 0
-12 -4 -9 -10z"/>
<path d="M1360 5928 c-46 -57 -46 -67 4 -117 38 -38 47 -43 60 -32 23 20 20
37 -15 73 -30 32 -31 44 -13 92 10 26 -9 18 -36 -16z"/>
<path d="M1298 6063 c7 -3 16 -2 19 1 4 3 -2 6 -13 5 -11 0 -14 -3 -6 -6z"/>
<path d="M1251 6032 c-1 -7 -6 -10 -11 -7 -6 3 -17 0 -25 -8 -13 -13 -13 -18
3 -37 l18 -23 13 31 c7 17 11 37 8 44 -4 11 -6 11 -6 0z"/>
<path d="M1199 5963 c-1 -5 -1 -11 0 -15 0 -5 -5 -8 -12 -8 -8 0 -14 -7 -14
-15 0 -12 6 -10 23 6 13 12 21 26 18 30 -6 11 -14 11 -15 2z"/>
<path d="M1056 5909 c-38 -44 -34 -59 14 -59 31 0 47 6 65 26 32 34 32 47 1
32 -30 -13 -60 -4 -52 17 8 23 0 18 -28 -16z"/>
<path d="M1875 6010 c-3 -5 1 -10 9 -10 9 0 16 5 16 10 0 6 -4 10 -9 10 -6 0
-13 -4 -16 -10z"/>
<path d="M1871 5924 c0 -11 3 -14 6 -6 3 7 2 16 -1 19 -3 4 -6 -2 -5 -13z"/>
<path d="M1765 5919 c-11 -17 1 -21 15 -4 8 9 8 15 2 15 -6 0 -14 -5 -17 -11z"/>
<path d="M1717 5903 c-4 -3 -7 -11 -7 -17 0 -6 5 -5 12 2 6 6 9 14 7 17 -3 3
-9 2 -12 -2z"/>
<path d="M1680 5878 c0 -9 -5 -18 -12 -20 -8 -3 -9 -6 -1 -11 16 -10 34 16 23
33 -8 13 -10 12 -10 -2z"/>
<path d="M1765 5810 c3 -5 8 -10 11 -10 2 0 4 5 4 10 0 6 -5 10 -11 10 -5 0
-7 -4 -4 -10z"/>
<path d="M1885 5790 c3 -5 8 -10 11 -10 2 0 4 5 4 10 0 6 -5 10 -11 10 -5 0
-7 -4 -4 -10z"/>
<path d="M1914 2003 c11 -12 56 -14 56 -3 0 5 -14 10 -32 10 -17 0 -28 -3 -24
-7z"/>
<path d="M1730 1793 c0 -6 6 -15 13 -20 32 -26 107 -19 81 7 -15 15 -94 26
-94 13z"/>
<path d="M1845 1659 c-10 -15 3 -25 16 -12 7 7 7 13 1 17 -6 3 -14 1 -17 -5z"/>
<path d="M1490 815 c0 -8 5 -15 10 -15 6 0 10 7 10 15 0 8 -4 15 -10 15 -5 0
-10 -7 -10 -15z"/>
<path d="M1834 769 c-3 -6 -1 -16 5 -22 8 -8 11 -5 11 11 0 24 -5 28 -16 11z"/>
<path d="M2370 889 c0 -5 5 -7 10 -4 6 3 10 8 10 11 0 2 -4 4 -10 4 -5 0 -10
-5 -10 -11z"/>
<path d="M2290 870 c0 -19 3 -21 12 -12 9 9 9 15 0 24 -9 9 -12 7 -12 -12z"/>
<path d="M3080 8538 c0 -19 18 -43 25 -36 9 9 -4 48 -16 48 -5 0 -9 -6 -9 -12z"/>
<path d="M3170 8472 c0 -5 7 -15 15 -22 8 -7 15 -8 15 -2 0 5 -7 15 -15 22 -8
7 -15 8 -15 2z"/>
<path d="M3200 7566 c0 -2 8 -10 18 -17 15 -13 16 -12 3 4 -13 16 -21 21 -21
13z"/>
<path d="M1400 7510 c0 -5 5 -10 11 -10 5 0 7 5 4 10 -3 6 -8 10 -11 10 -2 0
-4 -4 -4 -10z"/>
<path d="M3209 7494 c-50 -26 -65 -58 -60 -136 2 -36 31 -19 37 21 4 26 11 38
19 35 26 -10 62 76 38 89 -5 2 -20 -2 -34 -9z"/>
<path d="M3110 7200 c0 -11 5 -20 10 -20 6 0 10 9 10 20 0 11 -4 20 -10 20 -5
0 -10 -9 -10 -20z"/>
<path d="M960 6006 c0 -9 -6 -13 -14 -10 -8 3 -17 0 -22 -7 -5 -9 -2 -10 9 -6
10 3 17 2 17 -3 0 -5 7 -7 15 -4 17 7 20 30 5 39 -5 3 -10 -1 -10 -9z"/>
<path d="M621 5947 c-6 -8 -8 -17 -4 -20 7 -8 33 11 33 24 0 13 -16 11 -29 -4z"/>
<path d="M734 5938 l-19 -23 23 19 c21 18 27 26 19 26 -2 0 -12 -10 -23 -22z"/>
<path d="M835 5885 c-14 -20 -28 -49 -30 -65 -4 -27 -3 -28 24 -19 15 6 43 26
62 46 25 26 29 34 14 29 -36 -13 -40 -11 -40 17 1 15 0 27 -1 27 -1 0 -14 -16
-29 -35z"/>
<path d="M663 5853 c-21 -32 -43 -71 -51 -88 l-13 -29 25 24 c14 13 36 44 47
69 12 25 26 54 31 64 19 37 -3 14 -39 -40z"/>
<path d="M5155 4620 c-36 -27 -72 -50 -79 -50 -8 0 -19 -7 -26 -15 -6 -8 -22
-17 -33 -21 -23 -7 -157 -139 -157 -154 0 -5 -10 -17 -22 -27 -13 -10 -30 -31
-38 -47 -19 -37 -147 -179 -169 -187 -21 -8 -141 -143 -141 -158 0 -6 -8 -11
-18 -11 -21 0 -72 -50 -72 -71 0 -12 -2 -12 -10 1 -9 15 -25 7 -25 -13 0 -6
-15 -14 -33 -18 -18 -4 -41 -14 -51 -23 -10 -9 -22 -16 -28 -16 -5 0 -24 -13
-41 -30 -18 -16 -36 -30 -42 -30 -5 0 -10 -5 -10 -10 0 -21 -37 -51 -53 -44
-10 3 -17 1 -17 -6 0 -6 -4 -9 -9 -5 -5 3 -12 1 -16 -5 -3 -5 -15 -10 -27 -10
-13 0 -18 -5 -15 -14 4 -9 1 -13 -7 -10 -7 3 -18 -7 -26 -21 -7 -14 -18 -25
-24 -25 -6 0 -29 -16 -51 -35 -36 -32 -38 -38 -26 -57 12 -19 9 -24 -33 -62
-25 -23 -60 -53 -78 -68 -18 -15 -52 -44 -75 -65 -23 -21 -50 -45 -59 -53 -26
-22 -106 -60 -127 -60 -10 0 -25 -7 -34 -15 -14 -14 -17 -14 -35 2 -57 51
-157 280 -165 376 -3 37 -9 67 -13 67 -4 0 -14 -8 -22 -17 -33 -38 54 -323
128 -421 14 -18 28 -47 30 -65 5 -30 1 -34 -44 -61 -43 -25 -114 -96 -96 -96
4 0 39 22 78 48 39 27 87 57 106 67 19 10 60 40 90 67 56 50 198 151 405 289
66 43 176 120 245 170 69 49 161 116 204 147 150 108 378 351 683 727 44 55
93 111 108 125 26 24 51 60 41 60 -3 0 -35 -22 -71 -50z m-1786 -1370 c0 -13
-1 -13 -8 0 -5 8 -12 26 -15 40 l-7 25 15 -25 c9 -14 15 -32 15 -40z"/>
<path d="M3998 4370 c-47 -62 -152 -186 -185 -220 -18 -19 -36 -42 -39 -52 -3
-10 -9 -18 -14 -18 -12 0 -60 -48 -60 -60 0 -6 5 -10 10 -10 6 0 9 4 8 8 -2 5
13 24 32 43 110 111 205 214 206 227 2 7 11 20 21 28 10 7 14 14 8 14 -6 0 -6
3 0 8 12 8 47 62 41 62 -2 0 -15 -14 -28 -30z"/>
<path d="M3675 3999 c-4 -6 -5 -12 -2 -15 2 -3 7 2 10 11 7 17 1 20 -8 4z"/>
<path d="M3635 3960 c-3 -5 -1 -10 4 -10 6 0 11 5 11 10 0 6 -2 10 -4 10 -3 0
-8 -4 -11 -10z"/>
<path d="M1415 1440 c4 -6 11 -8 16 -5 14 9 11 15 -7 15 -8 0 -12 -5 -9 -10z"/>
<path d="M2000 1410 c0 -5 7 -10 16 -10 8 0 12 5 9 10 -3 6 -10 10 -16 10 -5
0 -9 -4 -9 -10z"/>
<path d="M1360 1370 c0 -18 6 -19 59 -17 99 4 93 37 -6 37 -46 0 -53 -3 -53
-20z"/>
<path d="M2285 1371 c-7 -12 3 -16 34 -16 13 0 26 6 28 13 5 14 -53 17 -62 3z"/>
<path d="M2395 1366 c-12 -13 -8 -56 6 -56 5 0 9 7 9 15 0 7 7 18 17 23 15 9
14 10 -3 20 -13 7 -22 6 -29 -2z"/>
<path d="M0 1350 c0 -5 5 -10 11 -10 5 0 7 5 4 10 -3 6 -8 10 -11 10 -2 0 -4
-4 -4 -10z"/>
<path d="M2306 1278 c-13 -41 -17 -72 -8 -63 12 12 26 75 17 75 -3 0 -7 -6 -9
-12z"/>
<path d="M1313 1194 c-7 -18 12 -64 27 -64 17 0 23 30 12 56 -13 27 -30 31
-39 8z"/>
<path d="M2800 1098 c0 -25 3 -29 10 -18 13 20 13 50 0 50 -5 0 -10 -15 -10
-32z"/>
<path d="M1326 1106 c3 -9 18 -16 32 -16 29 0 20 14 -15 25 -18 5 -22 3 -17
-9z"/>
<path d="M290 900 c0 -5 5 -10 10 -10 6 0 10 5 10 10 0 6 -4 10 -10 10 -5 0
-10 -4 -10 -10z"/>
</g>
</svg>
